<svg id="218ce321-9800-4e36-9dda-4c1d0ef9719a" data-name="Layer 1" xmlns="http://www.w3.org/2000/svg" xmlns:xlink="http://www.w3.org/1999/xlink" width="1083.15" height="826.31" viewBox="0 0 1083.15 826.31"><defs><linearGradient id="8608c656-43fd-4907-84f3-eb091890c985" x1="454.31" y1="591.8" x2="454.31" y2="311.53" gradientUnits="userSpaceOnUse"><stop offset="0" stop-color="gray" stop-opacity="0.25"/><stop offset="0.54" stop-color="gray" stop-opacity="0.12"/><stop offset="1" stop-color="gray" stop-opacity="0.1"/></linearGradient></defs><title>relaxing at home</title><path d="M1035.68,605.74c-6.41,15.45-14.82,30.26-26.59,41.62-14.34,13.84-32.15,21.39-51.22,25a154.27,154.27,0,0,1-17,2.2c-15.07,1.16-30.5.39-45.3-1.22a535.59,535.59,0,0,1-106.7-22.83q-8.55-2.76-17-5.81-12.75-4.58-25.27-9.81c-34-14.21-69.15-32.33-105.32-26.71-17.53,2.73-34,11-51.57,13.46A92.21,92.21,0,0,1,552.87,619a126.59,126.59,0,0,1-17-5.87,193.44,193.44,0,0,1-35.32-19.95c-26.5-18.52-50.28-41.48-78.18-57.52-30.76-17.69-64.81-26.1-99.5-32.37q-8.47-1.53-17-2.92c-16.05-2.65-32.14-5.1-48-8-15.28-2.82-30.83-6.27-44.13-14.75-9.49-6.05-17.47-14.43-24.79-23.26a277.49,277.49,0,0,1-34.52-53.22q-.75-1.5-1.47-3c-14.69-30.14-24.57-63-30.63-97-.18-1-.35-2-.52-3-5.7-33.33-7.78-67.79-7.15-102l.06-3c.39-16.89,1.44-33.71,3-50.29,1.12-11.66,2.62-23.76,8.66-33.56s15.87-16.1,25.71-21.34c43.3-23.07,84.81-29.49,131.39-18.31,7.48,1.79,14.93,3.72,22.38,5.72,5.67,1.52,11.34,3.09,17,4.67C362,90.92,401,102.53,441.48,106q5.86.51,11.73.78,11.61.54,23.22.24a401.19,401.19,0,0,0,59.44-6.12q8.52-1.47,17-3.26c24.4-5.09,48.58-11.88,72.37-19.39q7.29-2.3,14.56-4.68c10.92-3.57,21.84-7.21,32.78-10.75,32.66-10.58,65.52-20.25,99.29-24.15q4.33-.49,8.68-.87c2.77-.24,5.55-.43,8.32-.57,52.45-2.8,105.5,9.85,152,35.74q8.65,4.82,17,10.24,11.57,7.53,22.43,16.2c14.84,11.85,28.73,25.34,39.31,41.55,10.31,15.79,17,33.52,20.85,52.16.21,1,.41,2,.59,3,5.65,30.09,3.89,62.36-2.45,92.51-.67,3.16-1.38,6.33-2.12,9.49-.23,1-.47,2-.71,3-6.84,28.51-15.58,56.94-13.3,86.09.29,3.67.75,7.31,1.35,10.91.17,1,.34,2,.53,3,4.46,23.78,14.6,46.34,20.68,69.89A215.32,215.32,0,0,1,1035.68,605.74Z" transform="translate(-58.43 -36.84)" fill="#6c63ff" opacity="0.1"/><path d="M957.87,196.12h83.18c-.18-1-.38-2-.59-3H957.87V83.21q-8.34-5.42-17-10.24V193.12h-152V37.23c-2.77.14-5.55.33-8.32.57s-5.79.54-8.68.87V193.12h-217l-.52-.57L672.58,62.82C661.64,66.36,650.72,70,639.8,73.57L552.87,169V97.64q-8.49,1.78-17,3.26v71.35L476.43,107q-11.61.28-23.22-.24l78.16,85.77-.52.57h-208V80c-5.66-1.58-11.33-3.15-17-4.67V193.12H114.7l-.06,3H305.87v102H121.79c.17,1,.34,2,.52,3H305.87v97H152.94q.72,1.5,1.47,3H305.87v99.26q8.52,1.39,17,2.92V401.12h213v212a126.59,126.59,0,0,0,17,5.87V401.12h219V644.69q8.46,3.06,17,5.81V401.12h152V674.55a154.27,154.27,0,0,0,17-2.2V401.12h66.48c-.19-1-.36-2-.53-3h-66v-97h77.9c.24-1,.48-2,.71-3H957.87Zm-17,0v102h-152v-102Zm-169,102h-219v-102h219Zm-449-102h210l3,2.73v99.27h-213Zm0,202v-97h213v97Zm230,0v-97h219v97Zm388,0h-152v-97h152Z" transform="translate(-58.43 -36.84)" fill="#6c63ff" opacity="0.1"/><path d="M867.79,125.88h-1.32a3.24,3.24,0,0,0,1.61-2.62h0c0-2.07-2.53-3.76-5.62-3.76H823c-3.09,0-5.63,1.69-5.63,3.76h0c0,2.07,2.54,3.76,5.63,3.76h1.32a3.23,3.23,0,0,0-1.61,2.62c0,1.76,1.84,3.24,4.3,3.64H815.71c-3.1,0-5.63,1.69-5.63,3.76s2.53,3.76,5.63,3.76h39.41c3.1,0,5.63-1.7,5.63-3.76,0-1.76-1.85-3.25-4.31-3.65h11.35c3.09,0,5.62-1.69,5.62-3.75S870.88,125.88,867.79,125.88Z" transform="translate(-58.43 -36.84)" fill="#6c63ff" opacity="0.1"/><path d="M440.63,161.64h-1.32a3.27,3.27,0,0,0,1.61-2.62h0c0-2.06-2.53-3.75-5.63-3.75H395.88c-3.1,0-5.63,1.69-5.63,3.75h0c0,2.07,2.53,3.76,5.63,3.76h1.31a3.26,3.26,0,0,0-1.6,2.62c0,1.76,1.84,3.25,4.3,3.65H388.54c-3.09,0-5.62,1.69-5.62,3.75s2.53,3.76,5.62,3.76H428c3.09,0,5.63-1.69,5.63-3.76,0-1.76-1.85-3.24-4.31-3.64h11.35c3.09,0,5.62-1.69,5.62-3.76S443.72,161.64,440.63,161.64Z" transform="translate(-58.43 -36.84)" fill="#6c63ff" opacity="0.1"/><path d="M928.25,314.7h-1.32a3.27,3.27,0,0,0,1.61-2.62h0c0-2.07-2.53-3.76-5.63-3.76H883.5c-3.1,0-5.63,1.69-5.63,3.76h0c0,2.07,2.53,3.76,5.63,3.76h1.31a3.26,3.26,0,0,0-1.6,2.62c0,1.76,1.84,3.24,4.3,3.64H876.16c-3.09,0-5.62,1.69-5.62,3.76s2.53,3.76,5.62,3.76h39.42c3.09,0,5.63-1.69,5.63-3.76,0-1.76-1.85-3.25-4.31-3.65h11.35c3.09,0,5.62-1.69,5.62-3.75S931.34,314.7,928.25,314.7Z" transform="translate(-58.43 -36.84)" fill="#6c63ff" opacity="0.1"/><ellipse cx="525.58" cy="728.37" rx="422.56" ry="46.65" fill="#6c63ff" opacity="0.1"/><path d="M671.86,433.3V580a27.2,27.2,0,0,1-1,7.37,27.66,27.66,0,0,1-26.66,20.3h-124A27.66,27.66,0,0,1,492.53,580V433.3a27.66,27.66,0,0,1,27.67-27.67h124a27.66,27.66,0,0,1,26.66,20.3A27.2,27.2,0,0,1,671.86,433.3Z" transform="translate(-58.43 -36.84)" fill="#e9ccdb"/><path d="M494.53,433.3V580a27.62,27.62,0,0,1-1,7.38,27.62,27.62,0,0,1-1-7.38V433.3a27.62,27.62,0,0,1,1-7.38A27.62,27.62,0,0,1,494.53,433.3Z" transform="translate(-58.43 -36.84)" opacity="0.1"/><rect x="216.77" y="368.79" width="217.33" height="202" rx="27.67" ry="27.67" fill="#e9ccdb"/><path d="M671.86,433.3V580a27.2,27.2,0,0,1-1,7.37,27.6,27.6,0,0,1-1-7.37V433.3a27.6,27.6,0,0,1,1-7.37A27.2,27.2,0,0,1,671.86,433.3Z" transform="translate(-58.43 -36.84)" opacity="0.1"/><rect x="613.43" y="368.79" width="217.34" height="202" rx="27.67" ry="27.67" fill="#e9ccdb"/><path d="M481.53,622.63H283l-1-17.35c-1.1-19.48,24.08-35.65,55.53-35.65H472.65c10.55,0,18.69,5.74,17.34,12.22Z" transform="translate(-58.43 -36.84)" opacity="0.1"/><path d="M481.53,624.63H283l-1-17.35c-1.1-19.48,24.08-35.65,55.53-35.65H472.65c10.55,0,18.69,5.74,17.34,12.22Z" transform="translate(-58.43 -36.84)" fill="#caa4bc"/><path d="M680.47,623.78H879l1-17.35c1.1-19.48-24.08-35.65-55.53-35.65H689.35c-10.54,0-18.69,5.74-17.34,12.22Z" transform="translate(-58.43 -36.84)" opacity="0.1"/><path d="M680.47,625.78H879l1-17.35c1.1-19.48-24.08-35.65-55.53-35.65H689.35c-10.54,0-18.69,5.74-17.34,12.22Z" transform="translate(-58.43 -36.84)" fill="#caa4bc"/><path d="M457.48,533.94H592a28.59,28.59,0,0,1,28.59,28.59v17.76a0,0,0,0,1,0,0H426.1a0,0,0,0,1,0,0v-15A31.37,31.37,0,0,1,457.48,533.94Z" opacity="0.1"/><path d="M457.48,535.94H592a28.59,28.59,0,0,1,28.59,28.59v17.76a0,0,0,0,1,0,0H426.1a0,0,0,0,1,0,0v-15A31.37,31.37,0,0,1,457.48,535.94Z" fill="#caa4bc"/><path d="M238.13,553.79h161a27,27,0,0,1,27,27v36.5a0,0,0,0,1,0,0H226.16a0,0,0,0,1,0,0V565.76A12,12,0,0,1,238.13,553.79Z" fill="#e9ccdb"/><path d="M446.1,553.79h153a27,27,0,0,1,27,27v36.5a0,0,0,0,1,0,0H420.61a0,0,0,0,1,0,0v-38A25.5,25.5,0,0,1,446.1,553.79Z" opacity="0.1"/><path d="M450.1,553.79h153a27,27,0,0,1,27,27v36.5a0,0,0,0,1,0,0H424.61a0,0,0,0,1,0,0v-38A25.5,25.5,0,0,1,450.1,553.79Z" opacity="0.1"/><path d="M448.1,553.79h153a27,27,0,0,1,27,27v36.5a0,0,0,0,1,0,0H422.61a0,0,0,0,1,0,0v-38A25.5,25.5,0,0,1,448.1,553.79Z" fill="#e9ccdb"/><path d="M634.38,553.79H797.85a25.75,25.75,0,0,1,25.75,25.75v37.75a0,0,0,0,1,0,0H623.66a0,0,0,0,1,0,0V564.51A10.72,10.72,0,0,1,634.38,553.79Z" opacity="0.1"/><path d="M636.38,553.79H799.85a25.75,25.75,0,0,1,25.75,25.75v37.75a0,0,0,0,1,0,0H625.66a0,0,0,0,1,0,0V564.51a10.72,10.72,0,0,1,10.72-10.72Z" fill="#e9ccdb"/><path d="M287.53,738.63v27.25a13.76,13.76,0,0,1-13.75,13.75h-9.5a13.76,13.76,0,0,1-13.75-13.75V738.63Z" transform="translate(-58.43 -36.84)" fill="#9c7aa5"/><path d="M917,738.63v27.25a13.76,13.76,0,0,1-13.75,13.75h-9.5A13.76,13.76,0,0,1,880,765.88V738.63Z" transform="translate(-58.43 -36.84)" fill="#9c7aa5"/><path d="M297.62,559.78a36.5,36.5,0,1,0-43.56,35.81V743.13h41V573.25A36.52,36.52,0,0,0,297.62,559.78Z" transform="translate(-58.43 -36.84)" fill="#e9ccdb"/><path d="M868.44,559.78A36.5,36.5,0,1,1,912,595.59V743.13H871V573.25A36.52,36.52,0,0,1,868.44,559.78Z" transform="translate(-58.43 -36.84)" fill="#e9ccdb"/><path d="M297.62,559.78a36.5,36.5,0,1,0-43.56,35.81V743.13h41V573.25A36.52,36.52,0,0,0,297.62,559.78Z" transform="translate(-58.43 -36.84)" opacity="0.1"/><path d="M868.44,559.78A36.5,36.5,0,1,1,912,595.59V743.13H871V573.25A36.52,36.52,0,0,1,868.44,559.78Z" transform="translate(-58.43 -36.84)" opacity="0.1"/><rect x="216.77" y="680.79" width="617.83" height="28.5" fill="#9c7aa5"/><rect x="223.59" y="617.29" width="607.18" height="65.5" opacity="0.1"/><rect x="223.59" y="615.29" width="607.18" height="65.5" fill="#caa4bc"/><rect x="821.62" y="701.79" width="36.94" height="9.5" opacity="0.1"/><path d="M877.47,562.78A36.5,36.5,0,1,1,921,598.59V746.13h-41V576.25A36.32,36.32,0,0,1,877.47,562.78Z" transform="translate(-58.43 -36.84)" fill="#e9ccdb"/><rect x="192.1" y="701.79" width="36.48" height="9.5" opacity="0.1"/><path d="M289.59,562.78A36.5,36.5,0,1,0,246,598.59V746.13h41V576.25A36.32,36.32,0,0,0,289.59,562.78Z" transform="translate(-58.43 -36.84)" fill="#e9ccdb"/><rect x="236.62" y="615.29" width="576.15" height="1.83" opacity="0.1"/><circle cx="192.1" cy="524.79" r="16.5" fill="#caa4bc"/><circle cx="858.56" cy="524.79" r="16.5" fill="#caa4bc"/><path d="M425.05,533.74c-15.72-3.93-48.91-45.37-48.91-45.37-12.48-8.72-37.93-61.54-37.93-61.54s-9.66-4.55-18.17,15.91-58,36.82-72.82,39.11c-8.35,1.29-7.54,5-5.24,8a13.28,13.28,0,0,0,5.94,4.2c6.3,2.39,25.85,25.86,25.85,25.86,18.23,12.32,38.45,69.23,45.17,84.1,3.73,8.27,7.88,4.31,10.84-.84a78.4,78.4,0,0,1,22.93-25.1c25.44-17.89,52.71-25.31,54.57-25.34C409.63,552.67,440.77,537.67,425.05,533.74Z" transform="translate(-58.43 -36.84)" opacity="0.1"/><path d="M216.07,485a15.42,15.42,0,0,1-6.55-4.76c-2.63-3.37-3.75-7.55,5-9,15.44-2.54,66.46-20.81,74-43.86s18-17.89,18-17.89S337,469.11,350.76,479c0,0,37.86,46.83,54.69,51.32s-14.92,21.29-17.39,21.33c-2,0-30.17,8.31-55.72,28.39a78.84,78.84,0,0,0-22.41,28.23c-2.76,5.8-6.86,10.25-11.37.92-8.11-16.79-33.39-81-53.45-95C245.11,514.19,222.87,487.66,216.07,485Z" transform="translate(-58.43 -36.84)" fill="#6c63ff"/><path d="M216.07,485a15.42,15.42,0,0,1-6.55-4.76c-2.63-3.37-3.75-7.55,5-9,15.44-2.54,66.46-20.81,74-43.86s18-17.89,18-17.89S337,469.11,350.76,479c0,0,37.86,46.83,54.69,51.32s-14.92,21.29-17.39,21.33c-2,0-30.17,8.31-55.72,28.39a78.84,78.84,0,0,0-22.41,28.23c-2.76,5.8-6.86,10.25-11.37.92-8.11-16.79-33.39-81-53.45-95C245.11,514.19,222.87,487.66,216.07,485Z" transform="translate(-58.43 -36.84)" opacity="0.1"/><path d="M226.92,483.76a13.81,13.81,0,0,1-6.1-4.25c-2.43-3-3.42-6.84,4.81-8.28,14.59-2.56,63-20,70.44-41.21s17.28-16.62,17.28-16.62,27.84,54,40.66,62.86c0,0,35,42.22,50.79,46.07S390.41,542,388.08,542.09c-1.85.06-28.57,8-53,26.79A75.84,75.84,0,0,0,313.55,595c-2.69,5.34-6.63,9.47-10.74,1-7.39-15.23-30.25-73.56-48.95-86C253.86,510,233.29,486.13,226.92,483.76Z" transform="translate(-58.43 -36.84)" fill="#6c63ff"/><path d="M283,502.85s-5.24,4.93,19.82-4.52S283,502.85,283,502.85Z" transform="translate(-58.43 -36.84)" opacity="0.1"/><path d="M303.57,526.9s3.82.55,18.19-5.32S303.57,526.9,303.57,526.9Z" transform="translate(-58.43 -36.84)" opacity="0.1"/><path d="M302.31,571.06s3.57,0,17.91-5.94S302.31,571.06,302.31,571.06Z" transform="translate(-58.43 -36.84)" opacity="0.1"/><path d="M887.2,472.2v19.08c-4.12,8.52-8.15,19.4-8.15,19.4-12,15.62-10.1,67.66-10.89,81.71-.44,7.8-5.55,5.94-10,2.74a79.09,79.09,0,0,0-29.34-12.93c-29-6.35-56-3.71-57.72-3.15-2.12.7-35.24-1.53-22.56-9.64s27.84-51.8,27.84-51.8c8.11-10.92,12.34-61.32,12.34-61.32s7-6.69,21.85,7C824.66,476.42,870.7,474.82,887.2,472.2Z" transform="translate(-58.43 -36.84)" opacity="0.1"/><path d="M898.11,478.8a11.41,11.41,0,0,0,3.84-5.24c1-3.12.44-6.35-7.49-4.76-14.05,2.82-64.09,5.29-78.89-8.45s-21.85-7.05-21.85-7.05-4.23,50.39-12.34,61.32c0,0-15.15,43.69-27.84,51.8s20.44,10.34,22.56,9.63c1.68-.56,28.68-3.19,57.72,3.16a79.23,79.23,0,0,1,29.34,12.92c4.45,3.2,9.56,5.07,10-2.74.79-14-1.09-66.08,10.89-81.7C884.05,507.69,893.31,482.7,898.11,478.8Z" transform="translate(-58.43 -36.84)" fill="#6c63ff"/><path d="M898.11,478.8a11.41,11.41,0,0,0,3.84-5.24c1-3.12.44-6.35-7.49-4.76-14.05,2.82-64.09,5.29-78.89-8.45s-21.85-7.05-21.85-7.05-4.23,50.39-12.34,61.32c0,0-15.15,43.69-27.84,51.8s20.44,10.34,22.56,9.63c1.68-.56,28.68-3.19,57.72,3.16a79.23,79.23,0,0,1,29.34,12.92c4.45,3.2,9.56,5.07,10-2.74.79-14-1.09-66.08,10.89-81.7C884.05,507.69,893.31,482.7,898.11,478.8Z" transform="translate(-58.43 -36.84)" opacity="0.1"/><path d="M894.49,481.05a10.84,10.84,0,0,0,3.64-5c1-3,.42-6-7.1-4.51-13.35,2.67-60.86,5-74.91-8s-20.75-6.69-20.75-6.69-4,47.84-11.71,58.21c0,0-14.38,41.49-26.43,49.19s19.41,9.81,21.41,9.14c1.6-.53,27.24-3,54.81,3a74.94,74.94,0,0,1,27.85,12.27c4.23,3,9.08,4.81,9.5-2.6.75-13.34-1-62.74,10.34-77.58C881.14,508.47,889.93,484.75,894.49,481.05Z" transform="translate(-58.43 -36.84)" fill="#6c63ff"/><path d="M859.28,508.63s-3.5,2-20.25,7.75S856.53,514.13,859.28,508.63Z" transform="translate(-58.43 -36.84)" opacity="0.1"/><path d="M857.53,526.28s-10.5,8.6-15.75,9.35S854.53,534.68,857.53,526.28Z" transform="translate(-58.43 -36.84)" opacity="0.1"/><path d="M865.88,566s-10.5,8.6-15.75,9.35S862.88,574.42,865.88,566Z" transform="translate(-58.43 -36.84)" opacity="0.1"/><path d="M706.64,573.22a22.66,22.66,0,0,1-4.4-.63c-.1-.47-.9-.79-2.59-.86l-.34,0a35.64,35.64,0,0,1-13.62-9.26c-4.82-5.3-18.46-11.93-18.46-11.93s-9.64-8.13-16-8.79-23.94-18.4-38.9-34.82-38.08-34.32-38.08-34.32l-9.81-10.94S553,453.52,550.35,449c-1.45-2.45-6-3.71-10.66-4.15-5-2-13.25-2-17.1-1.16-2.35.53-8.85,6.68-15.25,13.23l5.26-67.5a4.15,4.15,0,0,0-2.9-4.28L492,393.77a4,4,0,0,0-2.25,3.34L485,469.57,464.1,484.85a15.85,15.85,0,0,0-3.2-7c-11.72-15.28-29.94,13.71-36.73,25.84-.32,0-.63.1-.92.17a2.42,2.42,0,0,1-.61.94A86.69,86.69,0,0,1,408,495.77a4.82,4.82,0,0,1-.79-1.18c-1-2.49-4.93-6.77-7.2-9.14-6.9-7.77-17.19-18.18-18.66-18.84-.78-.34-4.47-3.17-9.05-6.76a46.73,46.73,0,0,0-2.34-4.43c-3.26-5.4-8.82-7-12.71-7.43-3.6-2.8-6.35-4.89-7.08-5.25-2.49-1.24-8.23-10.2-11-15.92s-22.9-6.46-22.9-6.46a46.93,46.93,0,0,1,5.3-22.6c.21-.4.41-.79.62-1.17a36.43,36.43,0,0,0,24.25-46.88c2.58-.91,5.73-.51,8.44-1.46,3.64-1.27,6.94-4.21,7.5-8A11.72,11.72,0,0,0,360.7,333a24,24,0,0,0-4.59-5.81c-4.94-5.18-12.05-8.37-19-10.76-8.81-3-18.06-5.31-27.37-4.8S291,315.72,285,322.82a20.42,20.42,0,0,1-3.73,3.92c-2.14,1.46-4.88,1.7-7.47,1.6-8.54-.31-17.46-3.68-25.34-.38-9.47,4-12.78,15.54-14,25.71-1.27,10.47-1.58,21.12-4.35,31.29s-8.48,20.11-17.76,25.16c-2.71,1.47-5.67,2.5-8.22,4.24s-4.72,4.44-4.73,7.52c0,4.2,3.77,7.29,5.74,11,1,1.89,1.58,4.05,2.57,5.91h0c.1.19.2.37.31.55l.06.1c.09.14.18.28.28.42a.71.71,0,0,0,.1.14l.28.38a1.71,1.71,0,0,1,.11.14c.14.16.28.32.43.47s.36.34.55.49.29.34.45.5c4.29,4.33,11.91,1.88,17.41,4.51a12.06,12.06,0,0,1,2.87,2c1.84,2,3.32,4.47,5,6.69l.1.12.52.66.27.31c.12.15.25.3.38.44s.46.5.69.73l.45.41c.18.2.36.4.55.59,4.52,4.5,11.2,6.07,17.58,6.51,3.49.23,7.1.17,10.33-1.19a13.88,13.88,0,0,0,4-2.6,39.69,39.69,0,0,0,6,3.88c5.26,3.44,11.09,6.65,16.59,10.3,5.73,5.45,12.67,13.18,12.76,18.81.13,7.47,10.4,22.14,15,28.32.23,1.23.33,1.93.33,1.93l21.11,31.09s1.58,4.85,9.82,5.12c-1.52,9.36-1,25.82,6.31,27.54,8.48,2,22.28.33,24.28,2.82s34.91-1.33,34.91-1.33,18.29-4.14,30.43-.49a33.82,33.82,0,0,0,22.77-1.66s13.12-1.24,14.82-6.37a3.94,3.94,0,0,0,.65-1.59,6.93,6.93,0,0,1,.44-1.63c1.32-2.15,3.37-2.78,2.6-3.26,1-.86,1.21-1.06-1.88-1.58a17,17,0,0,0-6.15.21q1.11-1.12,2.19-2.37a12.46,12.46,0,0,0,1.38,0c4.59.26,4.27-1.73,8.56-2.8,5-1.24,10-1.74,16.46-2.49s13.22-4.47,16-8,14.46-1.5,17.7-7.47c2.78-5.1-7.05-9.48-12.29-9.08a6.17,6.17,0,0,0-3.67.63c-3.08,2-14.13,2.92-17.92,3.16-.83-.3-4.17-1.45-8.1-2.45,3.4-5.57,8.16-13.16,12.47-19.28,7.82-11.11,12.47-15.09,12.47-15.09a27.84,27.84,0,0,1,6-6.85c5.85,14.82,40.37,39.63,57,42.5,18.29,3.15,36.25,18.07,36.25,18.07s-1.66,7-1.66,10c0,1.34,3.32,2,7.49,2.33,2.8,2.1,16.39,1.87,21.6,1,5.82-1,22.28,3.15,35.75,4S714.78,573.55,706.64,573.22Z" transform="translate(-58.43 -36.84)" fill="url(#8608c656-43fd-4907-84f3-eb091890c985)"/><path d="M374.41,459.9l-1.25,15.88,7.71,16.72,10.9,9.6,11.86,7,11,7.66,11-9.88s-16.11-10.34-17.55-13.85-8.68-10.62-8.68-10.62l-10.22-9.88-8.3-7.57Z" transform="translate(-58.43 -36.84)" fill="#fd6f8d"/><path d="M374.41,459.9l-1.25,15.88,7.71,16.72,10.9,9.6,11.86,7,11,7.66,11-9.88s-16.11-10.34-17.55-13.85-8.68-10.62-8.68-10.62l-10.22-9.88-8.3-7.57Z" transform="translate(-58.43 -36.84)" opacity="0.1"/><path d="M324.49,398.25c-4,7.84-7.38,19.36-3.52,32.35,7.14,24-45.2-9.58-45.2-9.58s11.28-16.84,14.58-31.38c1.07-4.71,1.3-9.19,0-12.77-5.19-14.61,41.23,10.71,41.23,10.71A49.87,49.87,0,0,0,324.49,398.25Z" transform="translate(-58.43 -36.84)" fill="#ffbec5"/><path d="M317.84,420.37s19.69.73,22.37,6.33,8.27,14.37,10.71,15.59,28.24,22.4,30.43,23.37,24.35,24.1,24.35,26.54,22.89,16.56,37.5,18.75,37,28.49,43.58,27.51,20,3.9,20,3.9,15.1-.73,18.75-3.17,17.28,2.44,14.12,8.28-14.61,3.9-17.29,7.31-9.25,7.06-15.58,7.79-11.2,1.21-16.07,2.43-3.65,3.65-11,2.44-35.79-51.87-35.79-51.87l-31.65-14.36s-11.93-9.74-12.91-12.91-23.86-24.83-23.86-24.83l-29.95-21.92Z" transform="translate(-58.43 -36.84)" opacity="0.1"/><path d="M319.3,420.37s19.69.73,22.37,6.33,8.28,14.37,10.71,15.59,28.24,22.4,30.44,23.37,24.34,24.1,24.34,26.54,22.89,16.56,37.5,18.75,37,28.49,43.58,27.51,20,3.9,20,3.9,15.1-.73,18.75-3.17,17.29,2.44,14.12,8.28-14.61,3.9-17.29,7.31-9.25,7.06-15.58,7.79S497,563.78,492.14,565s-3.65,3.65-11,2.44-35.79-51.87-35.79-51.87l-31.65-14.36s-11.93-9.74-12.91-12.91S377,463.47,377,463.47l-30-21.92Z" transform="translate(-58.43 -36.84)" fill="#fd6f8d"/><path d="M421.85,529.13s29.55-26.14,31-28.08c.72-1,10.07-8.05,19.33-15a263.23,263.23,0,0,0,32.25-28.44c6.67-6.92,13.81-13.83,16.27-14.38,5-1.14,17.69-.65,20.29,3.73s13.8,12.34,13.8,12.34L564.37,470s22.57,17.53,37.18,33.6,31.81,33.44,38,34.09,15.58,8.6,15.58,8.6,13.31,6.5,18,11.69,12.5,10.23,20.45,10.55-4.22,6.5-17.37,5.68-29.21-4.87-34.9-3.89-21.58,1.13-21.58-1.79,1.62-9.74,1.62-9.74S603.82,544.22,586,541.14,529.15,509,529.47,495.53c0,0-5.51-.49-11.85,9.25,0,0-4.54,3.9-12.17,14.77S488.73,546,488.73,546s-14.12,28.55-25.48,28.32-23.54-1.54-23.54-1.54l-15.1-10.71-1-13Z" transform="translate(-58.43 -36.84)" fill="#ffbec5"/><path d="M421.85,529.13s29.55-26.14,31-28.08c.72-1,10.07-8.05,19.33-15a263.23,263.23,0,0,0,32.25-28.44c6.67-6.92,13.81-13.83,16.27-14.38,5-1.14,17.69-.65,20.29,3.73s13.8,12.34,13.8,12.34L564.37,470s22.57,17.53,37.18,33.6,31.81,33.44,38,34.09,15.58,8.6,15.58,8.6,13.31,6.5,18,11.69,12.5,10.23,20.45,10.55-4.22,6.5-17.37,5.68-29.21-4.87-34.9-3.89-21.58,1.13-21.58-1.79,1.62-9.74,1.62-9.74S603.82,544.22,586,541.14,529.15,509,529.47,495.53c0,0-5.51-.49-11.85,9.25,0,0-4.54,3.9-12.17,14.77S488.73,546,488.73,546s-14.12,28.55-25.48,28.32-23.54-1.54-23.54-1.54l-15.1-10.71-1-13Z" transform="translate(-58.43 -36.84)" opacity="0.05"/><path d="M428.67,530.59s29.54-26.13,31-28.08,38.14-28.9,38.14-28.9,24.67-27.75,29.71-28.89,17.69-.65,20.29,3.73,13.79,12.34,13.79,12.34l9.58,10.71s22.56,17.53,37.17,33.6,31.82,33.44,38,34.09,15.58,8.61,15.58,8.61,13.31,6.49,18,11.68,12.5,10.23,20.45,10.55-4.22,6.5-17.37,5.68-29.22-4.86-34.9-3.89S626.54,573,626.54,570s1.63-9.74,1.63-9.74-17.53-14.6-35.39-17.69S536,510.46,536.29,497c0,0-5.52-.49-11.85,9.25,0,0-4.54,3.9-12.17,14.77s-16.72,26.46-16.72,26.46S481.43,576,470.06,575.79s-23.53-1.54-23.53-1.54l-15.1-10.71-1-13Z" transform="translate(-58.43 -36.84)" fill="#ffbec5"/><path d="M523.75,545.8c-.8.34-1.58.75-2.35,1.16l-5,2.67a49.31,49.31,0,0,0,13.18.39c2.44-.26,5.87-2.33,3.09-4.78C530.46,543.32,526,544.82,523.75,545.8Z" transform="translate(-58.43 -36.84)" opacity="0.1"/><path d="M500.9,549.26c2.71-.54,5.63-1.07,8.16,0a14,14,0,0,1,2.45,1.51l4.34,3.13a55.17,55.17,0,0,1-11.47,2.1,4.47,4.47,0,0,1-1.55-.06,4.68,4.68,0,0,1-1.77-1.12C497.67,552,495.38,550.36,500.9,549.26Z" transform="translate(-58.43 -36.84)" opacity="0.1"/><path d="M331.6,387.58a49.87,49.87,0,0,0-7.11,10.67,35.79,35.79,0,0,1-34.14-8.61c1.07-4.71,1.3-9.19,0-12.77C285.18,362.26,331.6,387.58,331.6,387.58Z" transform="translate(-58.43 -36.84)" opacity="0.1"/><circle cx="256.58" cy="326" r="35.71" fill="#ffbec5"/><polygon points="260.88 383.53 258.97 386.61 282.16 411.78 293.06 419.4 299.36 410.95 260.88 383.53" fill="#504f88"/><path d="M355,447.38s11.43-1.44,16.71,7.32a40.62,40.62,0,0,1,5.76,16.64s5.27,4.22,4.79,6.58a6.57,6.57,0,0,1-2.6,3.73s-10.23-5.84-10.31-6.09-7.87-8.85-7.87-8.85L355,459.9Z" transform="translate(-58.43 -36.84)" fill="#504f88"/><path d="M286.15,412.58S268.3,414,266.51,426.46s-2.43,19.56,3.9,28.16,19.31,12.18,19.31,12.18,19.64,15.42,19.81,24.83,16.72,30.52,16.72,30.52,31.51,23.37,29.23,30.84-2.94,28.73,5.34,30.68,21.75.32,23.7,2.76,34.09-1.3,34.09-1.3,17.85-4.06,29.7-.49A32.94,32.94,0,0,0,470.55,583s13.8-1.3,14.61-6.82,7-5.35,1.14-6.33-9.58,2.11-13.8.65-7.79-6.33-17.53-6.17-12,.33-13,.16,6.17-5.68,2.27-14.6S432.89,534,433.22,529s-14.61-22.08-14.61-22.08-7.14-10.38-16.4-13.79-26.62-24.36-26.62-24.36-14.87-23.15-22.94-24.39-34.52-25-34.52-25S295.7,410.13,286.15,412.58Z" transform="translate(-58.43 -36.84)" opacity="0.1"/><path d="M285.67,413.55S267.81,415,266,427.43s-2.43,19.56,3.9,28.17,19.32,12.17,19.32,12.17,19.64,15.42,19.8,24.84,16.72,30.51,16.72,30.51S357.27,546.5,355,554s-2.93,28.73,5.34,30.68,21.76.33,23.7,2.76,34.09-1.3,34.09-1.3,17.86-4.05,29.71-.48A32.87,32.87,0,0,0,470.06,584s13.8-1.3,14.61-6.81,7-5.36,1.14-6.33-9.58,2.11-13.8.64-7.79-6.33-17.53-6.16-12,.32-13,.16,6.16-5.68,2.27-14.61-11.36-15.91-11-20.94-14.61-22.08-14.61-22.08-7.14-10.38-16.39-13.79-26.62-24.35-26.62-24.35-14.88-23.15-22.94-24.4-34.53-24.95-34.53-24.95S295.21,411.1,285.67,413.55Z" transform="translate(-58.43 -36.84)" fill="#fd6f8d"/><path d="M401.38,554c-1.1,2.45-1.34,5.64.55,7.54a11,11,0,0,0,4.08,2.1c3.05,1.19,6,3.28,7,6.4a7.27,7.27,0,0,0,1,2.43,4.74,4.74,0,0,0,1.84,1.23,64.65,64.65,0,0,0,27.7,5.72,21.68,21.68,0,0,0-11.49-5.76c-3.44-.56-7.08-.3-10.26-1.73s-5.3-4.16-7.38-6.84a9.58,9.58,0,0,1-1.77-3c-.75-2.41.45-5.08-.24-7.5-.4-1.39-3.74-6.36-5.16-6.67C405.08,547.49,402.11,552.37,401.38,554Z" transform="translate(-58.43 -36.84)" opacity="0.1"/><path d="M527.39,493.75c2-.65,12.17-2.55,9.1-6.41C533.69,483.8,529.56,493,527.39,493.75Z" transform="translate(-58.43 -36.84)" opacity="0.1"/><path d="M490.86,394.34l17.27-8.41-6,86.68L483.94,469l4.72-71.43A3.93,3.93,0,0,1,490.86,394.34Z" transform="translate(-58.43 -36.84)" fill="#cbe3ff"/><path d="M508.13,385.93h0l-6,86.68h0a2.63,2.63,0,0,0,2.62-2.43L511,390.13A4.07,4.07,0,0,0,508.13,385.93Z" transform="translate(-58.43 -36.84)" fill="#c8bfca"/><path d="M484,468.51l-54.8,40.28a4,4,0,0,0-.64,5.93l5.36,6.1L503.26,469l-16.88-1.21A3.56,3.56,0,0,0,484,468.51Z" transform="translate(-58.43 -36.84)" fill="#f1f1f2"/><polygon points="424.16 435.76 387.25 461.6 392.39 467.17 435.45 436.53 424.16 435.76" fill="#7e7a98"/><path d="M433.94,520.82h0L503.26,469h0a5.48,5.48,0,0,1-1.66,6.76l-60.89,45.67A5.05,5.05,0,0,1,433.94,520.82Z" transform="translate(-58.43 -36.84)" fill="#c8bfca"/><path d="M422,506.89S446.2,458,460.49,476.7s-21.92,39-21.92,39Z" transform="translate(-58.43 -36.84)" fill="#ffbec5"/><path d="M293,426.55a28.93,28.93,0,0,0-20.4,19.61c-1.57,5.37-1.46,11.26,3.86,15.2,12.18,9,29.38,15.34,37.34,30.11A104.28,104.28,0,0,1,324,522.23l20.62,30.43s3.13,9.74,24,2.12,32.28-11.53,32.28-11.53,16.18-8.68,23.41-11.85a13.11,13.11,0,0,1,3.22-1.14c2.43,0,19.83-14.89,20.63-16.94s-17.59-10.57-24.94-8.72c0,0-1.05,4.4-14.85,3.75s-19,5.2-19,5.2-6.82-2.44-11.2-2.2-12.33-4-18.26-3.49c0,0,3-6-.89-11s-7.47-4.55-9.09-10.47c-.93-3.38-4-14.13-6.49-22.77a62.67,62.67,0,0,0-18.64-29.79c-5.82-5.13-12.74-9.3-19.68-9.05A54.52,54.52,0,0,0,293,426.55Z" transform="translate(-58.43 -36.84)" opacity="0.1"/><path d="M293.43,424.11A29,29,0,0,0,273,443.73c-1.56,5.37-1.46,11.25,3.87,15.19,12.17,9,29.38,15.34,37.33,30.11a104.22,104.22,0,0,1,10.23,30.76l20.62,30.44s3.12,9.74,24,2.11,32.28-11.52,32.28-11.52,16.18-8.69,23.4-11.85a12.8,12.8,0,0,1,3.22-1.14c2.44,0,19.84-14.89,20.63-16.94s-17.58-10.57-24.93-8.72c0,0-1.05,4.4-14.85,3.75s-19,5.19-19,5.19-6.82-2.43-11.2-2.19-12.34-4-18.26-3.49c0,0,3-6-.9-11s-7.46-4.54-9.09-10.47c-.92-3.37-4-14.12-6.48-22.77a62.72,62.72,0,0,0-18.64-29.79c-5.83-5.13-12.74-9.3-19.68-9A54.17,54.17,0,0,0,293.43,424.11Z" transform="translate(-58.43 -36.84)" opacity="0.1"/><path d="M293,425.09a28.93,28.93,0,0,0-20.4,19.61c-1.57,5.37-1.46,11.26,3.86,15.2,12.18,9,29.38,15.34,37.34,30.11A104.28,104.28,0,0,1,324,520.77l20.62,30.43s3.13,9.74,24,2.11,32.28-11.52,32.28-11.52,16.18-8.69,23.41-11.85a12.67,12.67,0,0,1,3.22-1.14c2.43,0,19.83-14.89,20.63-16.94s-17.59-10.57-24.94-8.72c0,0-1.05,4.4-14.85,3.75s-19,5.19-19,5.19-6.82-2.43-11.2-2.19-12.33-4-18.26-3.49c0,0,3-6-.89-11s-7.47-4.54-9.09-10.46c-.93-3.38-4-14.13-6.49-22.78a62.64,62.64,0,0,0-18.64-29.78c-5.82-5.14-12.74-9.3-19.68-9A54.52,54.52,0,0,0,293,425.09Z" transform="translate(-58.43 -36.84)" fill="#fd6f8d"/><path d="M357,349.77c3.55-1.24,6.78-4.12,7.33-7.84a11.54,11.54,0,0,0-1.67-7.12c-4.44-8-13.39-12.26-22-15.24s-17.63-5.21-26.72-4.7-18.3,4-24.18,11a19.82,19.82,0,0,1-3.64,3.84c-2.09,1.43-4.76,1.66-7.29,1.57-8.34-.31-17.05-3.61-24.74-.37-9.24,3.88-12.48,15.21-13.68,25.17-1.24,10.24-1.54,20.67-4.25,30.63s-8.27,19.69-17.33,24.63c-2.65,1.44-5.54,2.45-8,4.15s-4.61,4.35-4.62,7.37c0,4.11,3.68,7.13,5.6,10.76,1.4,2.65,1.94,5.82,4.05,7.94,4.19,4.24,11.62,1.84,17,4.42,4.78,2.3,6.84,7.93,10.6,11.68,4.42,4.41,10.94,5.95,17.16,6.38,3.41.23,6.94.17,10.08-1.16,6.26-2.65,9.58-9.8,9.95-16.58s-1.58-13.44-3-20.09c-.47-2.19-.87-4.53,0-6.62a10,10,0,0,1,3.35-4c7.39-5.84,17.92-8.51,22.16-16.92,2.85-5.65,2-12.36,2.68-18.65.26-2.29.83-4.72,2.53-6.29,2.08-1.91,5.19-2,8-2.25a40.3,40.3,0,0,0,22.5-9.77c3.06-2.67,4.91-6,7.57-8.91S353.41,351,357,349.77Z" transform="translate(-58.43 -36.84)" opacity="0.1"/><path d="M356,348.8c3.55-1.25,6.78-4.13,7.33-7.85a11.54,11.54,0,0,0-1.68-7.11c-4.43-8-13.39-12.26-22-15.25s-17.64-5.2-26.72-4.69-18.3,4-24.19,11a19.77,19.77,0,0,1-3.63,3.84c-2.09,1.43-4.76,1.67-7.29,1.57-8.34-.3-17.05-3.6-24.75-.37-9.24,3.89-12.48,15.22-13.68,25.17-1.23,10.25-1.53,20.67-4.24,30.63s-8.28,19.7-17.34,24.63c-2.65,1.45-5.54,2.45-8,4.16s-4.61,4.35-4.61,7.36c0,4.11,3.68,7.14,5.6,10.77,1.39,2.64,1.94,5.82,4,7.94,4.2,4.23,11.63,1.83,17,4.42,4.79,2.3,6.85,7.93,10.61,11.68,4.41,4.4,10.93,5.95,17.16,6.37,3.4.24,6.94.17,10.08-1.16,6.26-2.65,9.58-9.79,9.95-16.57s-1.59-13.45-3-20.09c-.46-2.19-.86-4.53-.05-6.62a10.1,10.1,0,0,1,3.36-4c7.38-5.83,17.91-8.5,22.15-16.91,2.85-5.65,2-12.36,2.69-18.65.26-2.3.83-4.73,2.52-6.29,2.09-1.92,5.2-2,8-2.25a40.41,40.41,0,0,0,22.51-9.78c3.06-2.66,4.9-6,7.57-8.91S352.44,350.06,356,348.8Z" transform="translate(-58.43 -36.84)" fill="#ffe2da"/><g opacity="0.1"><path d="M229.39,442.06c-5-2.4-11.8-.48-16.1-3.64a9.25,9.25,0,0,0,1.53,2.15c4.2,4.23,11.63,1.83,17,4.42a11.5,11.5,0,0,1,3.26,2.38A15.88,15.88,0,0,0,229.39,442.06Z" transform="translate(-58.43 -36.84)"/><path d="M361.68,333.84A23,23,0,0,0,358,328.9a21,21,0,0,1,1.29,2,11.51,11.51,0,0,1,1.67,7.11c-.55,3.72-3.78,6.6-7.33,7.85s-8,.07-10.65,3-4.52,6.25-7.58,8.91a40.39,40.39,0,0,1-22.5,9.78c-2.82.26-5.93.33-8,2.25-1.7,1.56-2.27,4-2.52,6.29-.72,6.28.16,13-2.69,18.65-4.24,8.4-14.77,11.07-22.16,16.91a10.09,10.09,0,0,0-3.35,4c-.82,2.08-.42,4.43.05,6.62,1.42,6.64,3.38,13.3,3,20.09s-3.7,13.92-9.95,16.57c-3.15,1.33-6.68,1.39-10.09,1.16-6.22-.42-12.74-2-17.16-6.37l-.06-.07a24,24,0,0,0,2.5,3c4.41,4.4,10.93,5.95,17.16,6.37,3.4.24,6.94.17,10.08-1.16,6.26-2.65,9.58-9.79,9.95-16.57s-1.59-13.45-3-20.09c-.46-2.19-.86-4.53-.05-6.62a10.1,10.1,0,0,1,3.36-4c7.38-5.83,17.91-8.5,22.15-16.91,2.85-5.65,2-12.36,2.69-18.65.26-2.3.83-4.73,2.53-6.29,2.08-1.92,5.19-2,8-2.25a40.41,40.41,0,0,0,22.51-9.78c3.06-2.66,4.9-6,7.57-8.91s7.07-1.73,10.66-3,6.78-4.13,7.33-7.85A11.54,11.54,0,0,0,361.68,333.84Z" transform="translate(-58.43 -36.84)"/></g><ellipse cx="1008.55" cy="775.02" rx="74.6" ry="11.45" fill="#6c63ff" opacity="0.1"/><ellipse cx="106.71" cy="819.96" rx="41.4" ry="6.35" fill="#6c63ff" opacity="0.1"/><path d="M151.87,594.9s7.13,9.33-3.29,23.41-19,26-15.56,34.76c0,0,15.74-26.16,28.54-26.52S166,610.63,151.87,594.9Z" transform="translate(-58.43 -36.84)" fill="#6c63ff"/><path d="M151.87,594.9a11.49,11.49,0,0,1,1.46,2.92c12.49,14.68,19.15,28.38,7.14,28.73-11.19.32-24.61,20.32-27.83,25.37.11.39.24.78.38,1.15,0,0,15.74-26.16,28.54-26.52S166,610.63,151.87,594.9Z" transform="translate(-58.43 -36.84)" opacity="0.1"/><path d="M165.13,606.79c0,3.28-.37,5.94-.82,5.94s-.82-2.66-.82-5.94.46-1.74.91-1.74S165.13,603.5,165.13,606.79Z" transform="translate(-58.43 -36.84)" fill="#ffd037"/><path d="M169.68,610.71c-2.88,1.57-5.39,2.52-5.61,2.12s1.94-2,4.83-3.57,1.74-.42,2,0S172.57,609.14,169.68,610.71Z" transform="translate(-58.43 -36.84)" fill="#ffd037"/><path d="M114.18,594.9s-7.13,9.33,3.29,23.41,19,26,15.55,34.76c0,0-15.73-26.16-28.54-26.52S100.09,610.63,114.18,594.9Z" transform="translate(-58.43 -36.84)" fill="#6c63ff"/><path d="M114.18,594.9a11.49,11.49,0,0,0-1.46,2.92c-12.49,14.68-19.15,28.38-7.14,28.73,11.19.32,24.61,20.32,27.82,25.37a9.11,9.11,0,0,1-.38,1.15s-15.73-26.16-28.54-26.52S100.09,610.63,114.18,594.9Z" transform="translate(-58.43 -36.84)" opacity="0.1"/><path d="M100.92,606.79c0,3.28.37,5.94.82,5.94s.82-2.66.82-5.94-.46-1.74-.91-1.74S100.92,603.5,100.92,606.79Z" transform="translate(-58.43 -36.84)" fill="#ffd037"/><path d="M96.37,610.71c2.88,1.57,5.39,2.52,5.61,2.12s-1.94-2-4.83-3.57-1.74-.42-2,0S93.48,609.14,96.37,610.71Z" transform="translate(-58.43 -36.84)" fill="#ffd037"/><ellipse cx="74.6" cy="676.16" rx="74.6" ry="11.45" fill="#6c63ff" opacity="0.1"/><path d="M171.42,640.5l-.36,2.91-.5,4.12-.21,1.71-.5,4.12-.21,1.72-.5,4.11L163.43,706c-.51,4.18-7.34,7.43-15.57,7.43H118.19c-8.24,0-15-3.25-15.56-7.43l-5.72-46.8-.5-4.11-.21-1.72-.51-4.12-.2-1.71-.5-4.12-.36-2.91c-.29-2.36,3.4-4.36,8.07-4.36h60.66C168,636.14,171.71,638.14,171.42,640.5Z" transform="translate(-58.43 -36.84)" fill="#65617d"/><polygon points="112.64 606.57 112.14 610.68 37.06 610.68 36.56 606.57 112.64 606.57" fill="#9d9cb5"/><polygon points="111.93 612.4 111.43 616.52 37.78 616.52 37.27 612.4 111.93 612.4" fill="#9d9cb5"/><polygon points="111.21 618.23 110.71 622.35 38.48 622.35 37.98 618.23 111.21 618.23" fill="#9d9cb5"/></svg>