<?xml version="1.0" encoding="UTF-8"?>
<svg width="37px" height="25px" viewBox="0 0 37 25" version="1.1" xmlns="http://www.w3.org/2000/svg" xmlns:xlink="http://www.w3.org/1999/xlink">
    <!-- Generator: Sketch 63.1 (92452) - https://sketch.com -->
    <title>Group 41</title>
    <desc>Created with Sketch.</desc>
    <g id="Page-1" stroke="none" stroke-width="1" fill="none" fill-rule="evenodd">
        <g id="Google_Drive_Homepage_01.jpg" transform="translate(-570.000000, -6851.000000)" fill="#FBBC05" fill-rule="nonzero">
            <g id="Group-45" transform="translate(142.000000, 6695.000000)">
                <g id="Group-35" transform="translate(0.000000, 117.000000)">
                    <g id="Group-41" transform="translate(428.000000, 39.000000)">
                        <path d="M12.4257354,10.6430155 C15.3752189,10.6430155 17.7383592,8.26607539 17.7383592,5.32150776 C17.7383592,2.37694013 15.3752189,0 12.4257354,0 C9.47625199,0 7.09534368,2.37694013 7.09534368,5.32150776 C7.09534368,8.26607539 9.47625199,10.6430155 12.4257354,10.6430155 Z M12.5891237,14.1906874 C8.39874393,14.1906874 0,16.2660754 0,20.3991131 L0,24.8337029 L12.5891237,24.8337029 L12.5891237,20.8425721 C12.5891237,19.3348115 13.1826109,16.691796 16.8514412,14.6873614 C15.286793,14.368071 13.7760982,14.1906874 12.5891237,14.1906874 Z" id="Shape"></path>
                        <path d="M26.1363636,15.9090909 C29.5392562,15.9090909 36.3636364,17.5818182 36.3636364,20.9090909 L36.3636364,20.9090909 L36.3636364,25 L15.9090909,25 L15.9090909,20.9090909 C15.9090909,17.5818182 22.7334711,15.9090909 26.1363636,15.9090909 Z M26.1454728,3.40909091 C28.6595919,3.40909091 30.6818182,5.44545455 30.6818182,7.95454545 C30.6818182,10.4636364 28.6595919,12.5 26.1454728,12.5 C23.6313536,12.5 21.5909091,10.4636364 21.5909091,7.95454545 C21.5909091,5.44545455 23.6313536,3.40909091 26.1454728,3.40909091 Z" id="Combined-Shape"></path>
                    </g>
                </g>
            </g>
        </g>
    </g>
</svg>