<?xml version="1.0" encoding="UTF-8"?>
<svg width="129px" height="89px" viewBox="0 0 129 89" version="1.1" xmlns="http://www.w3.org/2000/svg" xmlns:xlink="http://www.w3.org/1999/xlink">
    <!-- Generator: Sketch 63.1 (92452) - https://sketch.com -->
    <title>salesforca-seeklogo.com</title>
    <desc>Created with Sketch.</desc>
    <g id="Page-1" stroke="none" stroke-width="1" fill="none" fill-rule="evenodd">
        <g id="Google_Drive_Homepage_01.jpg" transform="translate(-655.000000, -3885.000000)" fill-rule="nonzero">
            <g id="Group-69" transform="translate(0.000000, 3533.000000)">
                <g id="salesforca-seeklogo.com" transform="translate(655.000000, 352.000000)">
                    <path d="M69.9752304,86.2160326 C78.4827796,86.2160326 85.9053125,81.5356357 89.8579999,74.5874917 C93.2929641,76.1017377 97.0951076,76.943992 101.095528,76.943992 C116.439959,76.943992 128.88,64.5637619 128.88,49.2926977 C128.88,34.0198224 116.439959,21.6395921 101.095528,21.6395921 C99.2229127,21.6395921 97.3925228,21.8243446 95.6227177,22.1775479 C92.141856,16.0517339 85.508759,11.9129152 77.8952922,11.9129152 C74.7081745,11.9129152 71.6936305,12.6392461 69.0095486,13.9307025 C65.4809536,5.74181862 57.259805,0 47.6782563,0 C37.7001538,0 29.1962769,6.22905813 25.9320513,14.9649544 C24.505559,14.66609 23.0276615,14.5103183 21.5112102,14.5103183 C9.63111793,14.5103183 0,24.1102043 0,35.95429 C0,43.8914033 4.32721025,50.8214341 10.7565231,54.5291639 C9.43284101,57.5341091 8.69664615,60.8505982 8.69664615,64.3373493 C8.69664615,77.9583196 19.9048,89 33.7291076,89 C41.8456102,89 49.0588512,85.1926488 53.6320716,79.2932473 C57.7885434,83.5661021 63.575292,86.2160326 69.9752304,86.2160326 Z" id="Path" fill="#0093E0" transform="translate(64.440000, 44.500000) scale(-1, 1) rotate(-180.000000) translate(-64.440000, -44.500000) "></path>
                    <path d="M18.7504309,37.8465309 C18.6660351,37.6486934 18.7811203,37.6074056 18.8079735,37.5729991 C19.0611608,37.4078478 19.3181843,37.2891452 19.5771258,37.1566801 C20.9504752,36.5029562 22.2471012,36.312 23.6031878,36.312 C26.3652313,36.312 28.08,37.6297698 28.08,39.750932 L28.08,39.7922199 C28.08,41.7533917 26.1446515,42.4656067 24.3282243,42.9799843 L24.0922997,43.0487973 C22.7227865,43.447913 21.5412457,43.7919783 21.5412457,44.6005315 L21.5412457,44.6435397 C21.5412457,45.3351108 22.2317565,45.8443274 23.3020484,45.8443274 C24.4912616,45.8443274 25.9029727,45.4899402 26.8121453,45.0392147 C26.8121453,45.0392147 27.0787592,44.8843854 27.1765816,45.1166294 C27.230288,45.2404929 27.6906286,46.3518236 27.7385808,46.4722464 C27.7903691,46.6029912 27.6983009,46.6993295 27.6043148,46.7509393 C26.5666304,47.3169266 25.1319022,47.704 23.6473038,47.704 L23.3710995,47.7022797 C20.8430624,47.7022797 19.0784235,46.3329 19.0784235,44.3700078 L19.0784235,44.32872 C19.0784235,42.2591676 21.0252806,41.5882404 22.8493801,41.1203117 L23.1428473,41.0394563 C24.4720807,40.6730269 25.6171779,40.3582072 25.6171779,39.518688 L25.6171779,39.4774002 C25.6171779,38.7101347 24.8729606,38.1389864 23.6722389,38.1389864 C23.2061441,38.1389864 21.7196277,38.147588 20.1141898,39.0576406 C19.9204632,39.1591398 19.8072961,39.2331139 19.6576854,39.3139692 C19.5790439,39.3586977 19.3814811,39.4361124 19.2951672,39.202148 L18.7504309,37.8465309 L18.7504309,37.8465309 Z" id="Path" fill="#FFFFFF" transform="translate(23.400000, 42.008000) scale(-1, 1) rotate(-180.000000) translate(-23.400000, -42.008000) "></path>
                    <path d="M56.9104308,37.8465309 C56.8260352,37.6486934 56.9411201,37.6074056 56.9679738,37.5729991 C57.221161,37.4078478 57.4781843,37.2891452 57.7371257,37.1566801 C59.1104751,36.5029562 60.4071011,36.312 61.7631881,36.312 C64.5252312,36.312 66.24,37.6297698 66.24,39.750932 L66.24,39.7922199 C66.24,41.7533917 64.3046518,42.4656067 62.4882244,42.9799843 L62.2522996,43.0487973 C60.8827863,43.447913 59.7012457,43.7919783 59.7012457,44.6005315 L59.7012457,44.6435397 C59.7012457,45.3351108 60.3917567,45.8443274 61.4620486,45.8443274 C62.6512615,45.8443274 64.0629728,45.4899402 64.9721452,45.0392147 C64.9721452,45.0392147 65.2387593,44.8843854 65.3365817,45.1166294 C65.390288,45.2404929 65.8506284,46.3518236 65.8985806,46.4722464 C65.9503688,46.6029912 65.8583011,46.6993295 65.7643148,46.7509393 C64.7266302,47.3169266 63.2919023,47.704 61.8073036,47.704 L61.5310993,47.7022797 C59.0030625,47.7022797 57.2384234,46.3329 57.2384234,44.3700078 L57.2384234,44.32872 C57.2384234,42.2591676 59.1852804,41.5882404 61.0093799,41.1203117 L61.3028472,41.0394563 C62.6320805,40.6730269 63.7790958,40.3582072 63.7790958,39.518688 L63.7790958,39.4774002 C63.7790958,38.7101347 63.0329609,38.1389864 61.8322387,38.1389864 C61.3661443,38.1389864 59.8796276,38.147588 58.27419,39.0576406 C58.0804632,39.1591398 57.9653778,39.2296732 57.8196038,39.3139692 C57.7697335,39.3432147 57.5357267,39.42407 57.4551673,39.202148 L56.9104308,37.8465309 L56.9104308,37.8465309 Z" id="Path" fill="#FFFFFF" transform="translate(61.560000, 42.008000) scale(-1, 1) rotate(-180.000000) translate(-61.560000, -42.008000) "></path>
                    <path d="M83.8632602,41.9976121 C83.8632602,40.7908912 83.6241186,39.8404037 83.1531936,39.1686565 C82.6877876,38.5038346 81.9832396,38.1800803 81.0009198,38.1800803 C80.0167604,38.1800803 79.3158919,38.5021033 78.8578435,39.1686565 C78.394277,39.8386723 78.1588145,40.7908912 78.1588145,41.9976121 C78.1588145,43.2026018 78.394277,44.1513581 78.8578435,44.8161799 C79.3158919,45.4740766 80.0167604,45.7943684 81.0009198,45.7943684 C81.9832396,45.7943684 82.6877876,45.4740766 83.1550331,44.8161799 C83.6241186,44.1513581 83.8632602,43.2026018 83.8632602,41.9976121 M86.0743994,44.2344608 C85.8573325,44.9252523 85.5188553,45.5346723 85.0681654,46.0419453 C84.6174755,46.5509495 84.0472149,46.959538 83.3702605,47.2573228 C82.6951457,47.5533763 81.8967805,47.704 81.0009198,47.704 C80.1032195,47.704 79.3048543,47.5533763 78.6297395,47.2573228 C77.9527851,46.959538 77.3825245,46.5509495 76.9299951,46.0419453 C76.4811447,45.532941 76.1426675,44.9235209 75.9237611,44.2344608 C75.7085337,43.5471319 75.6,42.7957447 75.6,41.9976121 C75.6,41.1994796 75.7085337,40.4463611 75.9237611,39.7607635 C76.1426675,39.0717033 76.4793052,38.4622833 76.9318346,37.953279 C77.3825245,37.4442748 77.9546247,37.0374176 78.6297395,36.7482894 C79.3066939,36.4591611 80.1032195,36.312 81.0009198,36.312 C81.8967805,36.312 82.6933061,36.4591611 83.3702605,36.7482894 C84.0453753,37.0374176 84.6174755,37.4442748 85.0681654,37.953279 C85.5188553,38.460552 85.8573325,39.0699721 86.0743994,39.7607635 C86.2914663,40.4480924 86.4,41.201211 86.4,41.9976121 C86.4,42.7940134 86.2914663,43.5471319 86.0743994,44.2344608" id="Shape" fill="#FFFFFF" transform="translate(81.000000, 42.008000) scale(-1, 1) rotate(-180.000000) translate(-81.000000, -42.008000) "></path>
                    <path d="M103.822103,38.4959137 C103.746215,38.6983843 103.531832,38.6222415 103.531832,38.6222415 C103.199824,38.5062968 102.846946,38.3990047 102.471302,38.3453586 C102.089966,38.2917126 101.670687,38.2640243 101.221052,38.2640243 C100.116886,38.2640243 99.2403839,38.5634039 98.612413,39.1552411 C97.9825455,39.7470782 97.6296674,40.7040547 97.6334622,41.9984822 C97.6372565,43.1769649 97.9483957,44.0629901 98.5080676,44.7378921 C99.0639446,45.4093331 99.9100927,45.7537062 101.038922,45.7537062 C101.979929,45.7537062 102.697068,45.6550667 103.448356,45.4387519 C103.448356,45.4387519 103.628589,45.3678007 103.713963,45.5823849 C103.913168,46.0876962 104.061149,46.4493745 104.273635,47.0048707 C104.334345,47.1623478 104.186364,47.229838 104.133242,47.2488738 C103.83728,47.3544354 103.139114,47.5257567 102.611694,47.5984384 C102.118424,47.6676591 101.541678,47.704 100.900427,47.704 C99.9423448,47.704 99.0886081,47.5551755 98.3581894,47.2575264 C97.6296674,46.9616078 97.0111827,46.5532055 96.5217071,46.0444332 C96.0322319,45.535661 95.6603823,44.9265186 95.4118502,44.2377724 C95.1652152,43.5507568 95.04,42.7962509 95.04,41.9984822 C95.04,40.2731557 95.5503449,38.8783582 96.557754,37.8573526 C97.5670603,36.8328859 99.0829166,36.312 101.059791,36.312 C102.228462,36.312 103.427487,36.5283147 104.288812,36.8380775 C104.288812,36.8380775 104.453868,36.9107592 104.381775,37.0855415 L103.822103,38.4959137 L103.822103,38.4959137 Z" id="Path" fill="#FFFFFF" transform="translate(99.720000, 42.008000) scale(-1, 1) rotate(-180.000000) translate(-99.720000, -42.008000) "></path>
                    <path d="M107.666434,43.154829 C107.768506,43.8247412 107.960116,44.3821358 108.255588,44.8166266 C108.701483,45.4761526 109.381964,45.8379398 110.338221,45.8379398 C111.294477,45.8379398 111.926608,45.4744215 112.379666,44.8166266 C112.68051,44.3821358 112.811235,43.8005066 112.863166,43.154829 L107.666434,43.154829 L107.666434,43.154829 Z M114.913565,44.6279434 C114.730909,45.2943935 114.277852,45.9677677 113.980589,46.2758927 C113.511415,46.7640457 113.052985,47.1050605 112.598137,47.2954748 C112.00361,47.5412823 111.290895,47.704 110.510132,47.704 C109.600435,47.704 108.774903,47.5568617 108.105166,47.2521988 C107.433638,46.9475359 106.869554,46.5320865 106.427241,46.0145057 C105.984928,45.4986561 105.65185,44.8841371 105.440542,44.1865284 C105.227444,43.4923816 105.12,42.7359175 105.12,41.9379084 C105.12,41.1260511 105.231026,40.3695869 105.451287,39.6892885 C105.673339,39.003797 106.027906,38.3996643 106.507824,37.899394 C106.985953,37.3956615 107.601967,37.0009846 108.339753,36.7257494 C109.072166,36.4522452 109.962165,36.3103 110.984678,36.3120154 C113.0888,36.3189552 114.197268,36.7724875 114.653908,37.016564 C114.734491,37.0598399 114.811493,37.1360057 114.714793,37.3541166 L114.238456,38.6437408 C114.166826,38.8358862 113.964472,38.7649136 113.964472,38.7649136 C113.443366,38.5779613 112.701999,38.2421397 110.973934,38.2456018 C109.843976,38.2473328 109.005909,38.5693061 108.481222,39.0730385 C107.942209,39.5888882 107.678969,40.3470834 107.63241,41.4168656 L114.918937,41.4099415 C114.918937,41.4099415 115.110547,41.4134035 115.130245,41.5934316 C115.137408,41.6695974 115.380949,43.0405804 114.913565,44.6279434 L114.913565,44.6279434 Z" id="Shape" fill="#FFFFFF" transform="translate(110.160000, 42.008000) scale(-1, 1) rotate(-180.000000) translate(-110.160000, -42.008000) "></path>
                    <path d="M47.9064956,43.154829 C48.0103611,43.8247412 48.2001843,44.3821358 48.4956637,44.8166266 C48.941569,45.4761526 49.6220672,45.8379398 50.5783462,45.8379398 C51.5346251,45.8379398 52.166772,45.4744215 52.621631,44.8166266 C52.9206921,44.3821358 53.0514196,43.8005066 53.1033522,43.154829 L47.9064956,43.154829 L47.9064956,43.154829 Z M55.1520098,44.6279434 C54.9693497,45.2943935 54.5180721,45.9677677 54.2208018,46.2758927 C53.7516163,46.7640457 53.2931753,47.1050605 52.8383163,47.2954748 C52.2437756,47.5412823 51.5310436,47.704 50.7502614,47.704 C49.8423337,47.704 49.0149912,47.5568617 48.3452378,47.2521988 C47.6736936,46.9475359 47.1095965,46.5320865 46.6672727,46.0145057 C46.2249489,45.4986561 45.891863,44.8841371 45.6805504,44.1865284 C45.4692379,43.4923816 45.36,42.7359175 45.36,41.9379084 C45.36,41.1260511 45.4710286,40.3695869 45.6912951,39.6892885 C45.9133524,39.003797 46.2679277,38.3996643 46.747858,37.899394 C47.2259975,37.3956615 47.8420273,37.0009846 48.5798306,36.7257494 C49.3122614,36.4522452 50.2022815,36.3103 51.2248196,36.3120154 C53.3289912,36.3189552 54.4374866,36.7724875 54.8941368,37.016564 C54.9747219,37.0598399 55.051726,37.1360057 54.9550237,37.3541166 L54.4804655,38.6437408 C54.4070434,38.8358862 54.2046846,38.7649136 54.2046846,38.7649136 C53.6835665,38.5779613 52.9439723,38.2421397 51.2122838,38.2456018 C50.0840898,38.2473328 49.2460024,38.5693061 48.7213026,39.0730385 C48.1822764,39.5888882 47.9190311,40.3470834 47.8724707,41.4168656 L55.1591727,41.4099415 C55.1591727,41.4099415 55.3507871,41.4134035 55.3704853,41.5934316 C55.3776488,41.6695974 55.6211952,43.0405804 55.1520098,44.6279434 L55.1520098,44.6279434 Z" id="Shape" fill="#FFFFFF" transform="translate(50.400000, 42.008000) scale(-1, 1) rotate(-180.000000) translate(-50.400000, -42.008000) "></path>
                    <path d="M32.0085746,38.5395537 C31.7039995,38.759196 31.661857,38.8145389 31.5584164,38.9563552 C31.4051711,39.1725386 31.3266328,39.4803838 31.3266328,39.8712434 C31.3266328,40.4903926 31.5526697,40.9348657 32.0219837,41.2340635 C32.0162369,41.232334 32.6924321,41.7615509 34.2823527,41.7425268 C35.3991282,41.728691 36.3971386,41.5799569 36.3971386,41.5799569 L36.3971386,38.3804427 L36.3990542,38.3804427 C36.3990542,38.3804427 35.4087061,38.1884718 34.293846,38.1279405 C32.7077566,38.0414671 32.002828,38.5412831 32.0085746,38.5395537 M35.1098776,43.4841002 C34.793809,43.5048538 34.3838777,43.5169601 33.8934926,43.5169601 C33.2249597,43.5169601 32.5794136,43.4408635 31.9740945,43.2938588 C31.3649442,43.1468541 30.817092,42.916835 30.3458625,42.6124488 C29.8727175,42.3063331 29.4915197,41.9154735 29.215678,41.4519763 C28.9398364,40.9884791 28.8,40.4419675 28.8,39.8297361 C28.8,39.207128 28.9187652,38.6658048 29.1562955,38.2230612 C29.3938257,37.7785881 29.7367123,37.4084821 30.1734615,37.1231201 C30.6063797,36.837758 31.1408228,36.6284925 31.7614665,36.5022414 C32.3725324,36.3759903 33.0659677,36.312 33.8245322,36.312 C34.6233236,36.312 35.4201994,36.3708019 36.1921729,36.4901351 C36.9564842,36.6077389 37.8951119,36.7789561 38.1556291,36.8325696 C38.4142306,36.8879126 38.7015657,36.9588207 38.7015657,36.9588207 C38.8950379,37.0020574 38.8797134,37.1888399 38.8797134,37.1888399 L38.8758823,43.624187 C38.8758823,45.0354322 38.4582886,46.0817598 37.6365104,46.73031 C36.8185633,47.3771307 35.6136717,47.704 34.0563158,47.704 C33.4720679,47.704 32.5315244,47.6313624 31.9683477,47.5293238 C31.9683477,47.5293238 30.2654087,47.2318555 29.5643112,46.7372279 C29.5643112,46.7372279 29.4110659,46.6507545 29.4953508,46.4570542 L30.0470341,45.1184466 C30.1159945,44.9454999 30.3018045,45.0043018 30.3018045,45.0043018 C30.3018045,45.0043018 30.3611871,45.0250554 30.4301475,45.0613742 C31.9300364,45.7981272 33.8264477,45.7756441 33.8264477,45.7756441 C34.6692972,45.7756441 35.3167588,45.623451 35.7535081,45.3207943 C36.178764,45.0267849 36.3952231,44.5823118 36.3952231,43.6449406 L36.3952231,43.3474723 C35.7247746,43.4339456 35.1098776,43.4841002 35.1098776,43.4841002" id="Shape" fill="#FFFFFF" transform="translate(33.840000, 42.008000) scale(-1, 1) rotate(-180.000000) translate(-33.840000, -42.008000) "></path>
                    <path d="M95.0243257,47.2230212 C95.0836058,47.3872847 94.9593095,47.4658454 94.9076788,47.4837002 C94.7757331,47.5319079 94.1140947,47.6622474 93.6035235,47.6926004 C92.6263635,47.7479501 92.0832842,47.5943995 91.5975727,47.3908556 C91.1156852,47.1873118 90.5802553,46.8587849 90.2819442,46.4856211 L90.2819442,47.36943 C90.2819442,47.4926275 90.1882437,47.5908285 90.0582108,47.5908285 L88.0637333,47.5908285 C87.9336999,47.5908285 87.84,47.4926275 87.84,47.36943 L87.84,36.5333986 C87.84,36.4119864 87.9470859,36.312 88.0771188,36.312 L90.1213148,36.312 C90.2513483,36.312 90.3565219,36.4119864 90.3565219,36.5333986 L90.3565219,41.9469506 C90.3565219,42.6736378 90.442573,43.3985395 90.6146756,43.853835 C90.7829538,44.303774 91.0124238,44.6644394 91.2954372,44.9233329 C91.5803623,45.1804409 91.9035327,45.3607736 92.257299,45.4625455 C92.6187146,45.5661029 93.018375,45.6000269 93.3013879,45.6000269 C93.7086977,45.6000269 94.1561644,45.5018259 94.1561644,45.5018259 C94.3053199,45.4857567 94.3894588,45.5714594 94.4391773,45.6982279 C94.5730346,46.0303257 94.9516607,47.0248338 95.0243257,47.2230212" id="Path" fill="#FFFFFF" transform="translate(91.440000, 42.008000) scale(-1, 1) rotate(-180.000000) translate(-91.440000, -42.008000) "></path>
                    <path d="M76.8894833,52.4419086 C76.652312,52.5132394 76.4370334,52.5613876 76.1560765,52.6131023 C75.8714709,52.6630343 75.5321336,52.688 75.1471864,52.688 C73.8044315,52.688 72.7462822,52.31708 72.0037537,51.5859393 C71.2648738,50.8583656 70.7631652,49.7509552 70.5113985,48.2940243 L70.4201787,47.8036252 L68.7344378,47.8036252 C68.7344378,47.8036252 68.5301059,47.8107583 68.4863203,47.5931994 L68.2108365,46.0827703 C68.1907686,45.9401088 68.2546221,45.849162 68.4516571,45.849162 L70.0917881,45.849162 L68.4279399,36.7687547 C68.2984076,36.0376143 68.1488074,35.4366525 67.9827875,34.9801356 C67.8204162,34.5307517 67.6616937,34.1937138 67.4646592,33.9476226 C67.2749221,33.7122311 67.0961312,33.5374707 66.7859841,33.4358244 C66.5305692,33.3520107 66.2350169,33.3127788 65.9120993,33.3127788 C65.7333084,33.3127788 65.4943127,33.3413111 65.3173461,33.3769764 C65.1422044,33.4108586 65.0491602,33.4483072 64.9159797,33.5035886 C64.9159797,33.5035886 64.7244183,33.5749194 64.6477933,33.3876761 C64.5875885,33.2325316 64.1497335,32.0573572 64.0968261,31.9129123 C64.0457431,31.7684675 64.1187189,31.6561216 64.2117631,31.6222394 C64.4306904,31.5473421 64.5930616,31.4974106 64.8904382,31.4278631 C65.3027513,31.3333498 65.6512109,31.328 65.9777772,31.328 C66.660101,31.328 67.2840439,31.4225133 67.8003478,31.6044067 C68.318476,31.7880835 68.770926,32.1072887 69.1722929,32.5388399 C69.6046744,33.0060565 69.8765095,33.4946722 70.1355731,34.1633982 C70.3928129,34.8232079 70.613565,35.6435117 70.7887067,36.5993441 L72.4616766,45.849162 L74.9063658,45.849162 C74.9063658,45.849162 75.1125226,45.8420289 75.1544838,46.0613711 L75.431792,47.5700169 C75.4500356,47.7144617 75.3880064,47.8036252 75.1891471,47.8036252 L72.8156093,47.8036252 C72.8283803,47.85534 72.9360193,48.6720774 73.2078544,49.4406664 C73.3246158,49.7670048 73.543543,50.0327117 73.727807,50.2146053 C73.9102467,50.3929324 74.1200517,50.5195443 74.3499256,50.5926582 C74.5852726,50.6675559 74.8534585,50.703221 75.1471864,50.703221 C75.3697624,50.703221 75.590514,50.6782553 75.7565339,50.6443734 C75.9864079,50.5962252 76.0758033,50.571259 76.1360081,50.5534266 C76.378653,50.4820959 76.4114919,50.5516434 76.4589262,50.6657727 L77.0263131,52.1886844 C77.0846935,52.3527451 76.9405663,52.4222926 76.8894833,52.4419086" id="Path" fill="#FFFFFF" transform="translate(70.560000, 42.008000) scale(-1, 1) rotate(-180.000000) translate(-70.560000, -42.008000) "></path>
                    <path d="M43.92,31.5535597 C43.92,31.4288601 43.812439,31.328 43.6631707,31.328 L41.2946341,31.328 C41.1453658,31.328 41.04,31.4288601 41.04,31.5535597 L41.04,47.4784403 C41.04,47.60314 41.1453658,47.704 41.2946341,47.704 L43.6631707,47.704 C43.812439,47.704 43.92,47.60314 43.92,47.4784403 L43.92,31.5535597 L43.92,31.5535597 Z" id="Path" fill="#FFFFFF" transform="translate(42.480000, 39.516000) scale(-1, 1) rotate(-180.000000) translate(-42.480000, -39.516000) "></path>
                </g>
            </g>
        </g>
    </g>
</svg>