<?xml version="1.0" encoding="UTF-8"?>
<svg width="70px" height="70px" viewBox="0 0 70 70" version="1.1" xmlns="http://www.w3.org/2000/svg" xmlns:xlink="http://www.w3.org/1999/xlink">
    <!-- Generator: Sketch 63.1 (92452) - https://sketch.com -->
    <title>Group 10</title>
    <desc>Created with Sketch.</desc>
    <g id="Page-1" stroke="none" stroke-width="1" fill="none" fill-rule="evenodd">
        <g id="Google_Drive_Homepage_01.jpg" transform="translate(-813.000000, -975.000000)">
            <g id="Group-75" transform="translate(-15.000000, 929.000000)">
                <g id="Group-11" transform="translate(828.000000, 46.000000)">
                    <g id="Group-10">
                        <circle id="Oval" fill="#F8F9FA" cx="35" cy="35" r="35"></circle>
                        <path d="M28.0100167,31 C31.3355593,31 34,28.32 34,25 C34,21.68 31.3355593,19 28.0100167,19 C24.6844741,19 22,21.68 22,25 C22,28.32 24.6844741,31 28.0100167,31 Z M28.1942369,35 C23.4695838,35 14,37.34 14,42 L14,47 L28.1942369,47 L28.1942369,42.5 C28.1942369,40.8 28.8633938,37.82 33,35.56 C31.2358591,35.2 29.5325507,35 28.1942369,35 Z" id="Shape" fill="#11884E" fill-rule="nonzero"></path>
                        <path d="M43.5,37 C47.3263636,37 55,38.84 55,42.5 L55,42.5 L55,47 L32,47 L32,42.5 C32,38.84 39.6736364,37 43.5,37 Z M44.01002,23 C46.7755511,23 49,25.24 49,28 C49,30.76 46.7755511,33 44.01002,33 C41.244489,33 39,30.76 39,28 C39,25.24 41.244489,23 44.01002,23 Z" id="Combined-Shape" fill="#1BA160" fill-rule="nonzero"></path>
                    </g>
                </g>
            </g>
        </g>
    </g>
</svg>