<?xml version="1.0" encoding="UTF-8"?>
<svg width="70px" height="70px" viewBox="0 0 70 70" version="1.1" xmlns="http://www.w3.org/2000/svg" xmlns:xlink="http://www.w3.org/1999/xlink">
    <!-- Generator: Sketch 63.1 (92452) - https://sketch.com -->
    <title>Group 2</title>
    <desc>Created with Sketch.</desc>
    <g id="Page-1" stroke="none" stroke-width="1" fill="none" fill-rule="evenodd">
        <g id="Google_Drive_Homepage_01.jpg" transform="translate(-128.000000, -1708.000000)">
            <g id="Group-65" transform="translate(128.000000, 1704.000000)">
                <g id="Group-17" transform="translate(0.000000, 4.000000)">
                    <g id="Group-2">
                        <circle id="Oval-Copy" fill="#F8F9FA" cx="35" cy="35" r="35"></circle>
                        <path d="M42,16 L21.4285714,16 C19.5428571,16 18,17.51875 18,19.375 L18,43 L21.4285714,43 L21.4285714,19.375 L42,19.375 L42,16 Z" id="Shape" fill="#3467BB" fill-rule="nonzero"></path>
                        <path d="M40,23 L50,33 L50,49.6666667 C50,51.5 48.5,53 46.6666667,53 L28.3166667,53 C26.4833333,53 25,51.5 25,49.6666667 L25.0166667,26.3333333 C25.0166667,24.5 26.5,23 28.3333333,23 L40,23 Z M38.3333333,25.5 L38.3333333,34.6666667 L47.5,34.6666667 L38.3333333,25.5 Z" id="Combined-Shape" fill="#4285F4" fill-rule="nonzero"></path>
                    </g>
                </g>
            </g>
        </g>
    </g>
</svg>