<?xml version="1.0" encoding="UTF-8"?>
<svg width="70px" height="70px" viewBox="0 0 70 70" version="1.1" xmlns="http://www.w3.org/2000/svg" xmlns:xlink="http://www.w3.org/1999/xlink">
    <!-- Generator: Sketch 63.1 (92452) - https://sketch.com -->
    <title>Group 10 Copy</title>
    <desc>Created with Sketch.</desc>
    <g id="Page-1" stroke="none" stroke-width="1" fill="none" fill-rule="evenodd">
        <g id="Google_Drive_Homepage_01.jpg" transform="translate(-817.000000, -2466.000000)">
            <g id="Group-66" transform="translate(-129.000000, 2312.000000)">
                <g id="Group-13" transform="translate(946.000000, 154.000000)">
                    <g id="Group-10-Copy">
                        <circle id="Oval" fill="#F8F9FA" cx="35" cy="35" r="35"></circle>
                        <g id="Group-3" transform="translate(18.000000, 18.000000)">
                            <path d="M25.0142939,22.0125786 L23.4333905,22.0125786 L22.8730703,21.4722699 C24.834191,19.1909663 26.0148656,16.2292739 26.0148656,13.0074328 C26.0148656,5.82332762 20.191538,0 13.0074328,0 C5.82332762,0 0,5.82332762 0,13.0074328 C0,20.191538 5.82332762,26.0148656 13.0074328,26.0148656 C16.2292739,26.0148656 19.1909663,24.834191 21.4722699,22.8730703 L22.0125786,23.4333905 L22.0125786,25.0142939 L32.0182962,35 L35,32.0182962 L25.0142939,22.0125786 Z M13.0074328,22.0125786 C8.02458548,22.0125786 4.00228702,17.9902802 4.00228702,13.0074328 C4.00228702,8.02458548 8.02458548,4.00228702 13.0074328,4.00228702 C17.9902802,4.00228702 22.0125786,8.02458548 22.0125786,13.0074328 C22.0125786,17.9902802 17.9902802,22.0125786 13.0074328,22.0125786 Z" id="Shape" fill="#F5A623" fill-rule="nonzero"></path>
                            <polygon id="Path" fill="#FFD65E" points="8.6649514 19.0108634 12.9473985 15.9491138 17.2298456 19.0108634 15.5688965 14.0880503 19.8713551 11.086335 14.6283591 11.086335 12.9473985 6.00343053 11.266438 11.086335 6.00343053 11.086335 10.2858776 14.0680389"></polygon>
                        </g>
                    </g>
                </g>
            </g>
        </g>
    </g>
</svg>