<?xml version="1.0" encoding="UTF-8"?>
<svg width="27px" height="26px" viewBox="0 0 27 26" version="1.1" xmlns="http://www.w3.org/2000/svg" xmlns:xlink="http://www.w3.org/1999/xlink">
    <!-- Generator: Sketch 63.1 (92452) - https://sketch.com -->
    <title>Shape</title>
    <desc>Created with Sketch.</desc>
    <g id="Page-1" stroke="none" stroke-width="1" fill="none" fill-rule="evenodd">
        <g id="Google_Drive_Homepage_01.jpg" transform="translate(-964.000000, -6851.000000)" fill="#FBBC05" fill-rule="nonzero">
            <g id="Group-45" transform="translate(142.000000, 6695.000000)">
                <g id="Group-35" transform="translate(0.000000, 117.000000)">
                    <g id="Group-3">
                        <g id="Group-58" transform="translate(792.000000, 0.000000)">
                            <g id="Group-56">
                                <g id="proprietary_enterprise_black_24dp" transform="translate(30.000000, 33.000000)">
                                    <path d="M24,11.3333333 L18.6666667,11.3333333 L18.6666667,8.66666667 C18.6666667,7.18666667 17.48,6 16,6 L10.6666667,6 C9.18666667,6 8,7.18666667 8,8.66666667 L8,11.3333333 L2.66666667,11.3333333 C1.18666667,11.3333333 0.0133333333,12.52 0.0133333333,14 L-7.28306304e-14,28.6666667 C-7.28306304e-14,30.1466667 1.18666667,31.3333333 2.66666667,31.3333333 L24,31.3333333 C25.48,31.3333333 26.6666667,30.1466667 26.6666667,28.6666667 L26.6666667,14 C26.6666667,12.52 25.48,11.3333333 24,11.3333333 Z M13.3333333,23.3333333 C11.8666667,23.3333333 10.6666667,22.1333333 10.6666667,20.6666667 C10.6666667,19.2 11.8666667,18 13.3333333,18 C14.8,18 16,19.2 16,20.6666667 C16,22.1333333 14.8,23.3333333 13.3333333,23.3333333 Z M16,11.3333333 L10.6666667,11.3333333 L10.6666667,8.66666667 L16,8.66666667 L16,11.3333333 Z" id="Shape"></path>
                                </g>
                            </g>
                        </g>
                    </g>
                </g>
            </g>
        </g>
    </g>
</svg>