<svg xmlns="http://www.w3.org/2000/svg" width="694.988" height="487.976" viewBox="0 0 694.988 487.976">
  <defs>
    <style>
      .cls-1 {
        fill: #c7cbd5;
      }

      .cls-2 {
        fill: #e7e9ee;
      }

      .cls-3 {
        fill: #59688e;
      }

      .cls-4 {
        fill: #bcc7e2;
      }

      .cls-5 {
        fill: #8591af;
      }

      .cls-6 {
        fill: #7d8aab;
      }

      .cls-7 {
        fill: #262e42;
      }

      .cls-8 {
        fill: #647192;
      }

      .cls-9 {
        fill: #606a80;
      }

      .cls-10 {
        fill: #96a0b9;
      }

      .cls-11 {
        fill: #6d7da4;
      }

      .cls-12 {
        fill: #403657;
      }

      .cls-13 {
        fill: #51b087;
      }

      .cls-14 {
        fill: #ffa681;
      }

      .cls-15 {
        fill: #85d6b3;
      }

      .cls-16 {
        fill: #fff;
      }

      .cls-17 {
        fill: #4da57f;
      }

      .cls-18 {
        fill: #9c78ed;
      }

      .cls-19 {
        fill: #f97853;
      }

      .cls-20 {
        fill: #ea5143;
      }

      .cls-21 {
        fill: #55b98e;
      }

      .cls-22 {
        fill: #7846d1;
      }

      .cls-23 {
        fill: #6fc49f;
      }

      .cls-24 {
        fill: #40485b;
      }

      .cls-25 {
        fill: #cbcbcb;
      }

      .cls-26 {
        fill: #81848b;
      }

      .cls-27 {
        fill: #8191bb;
      }

      .cls-28 {
        fill: #c7cee1;
      }

      .cls-29 {
        fill: #84878f;
      }

      .cls-30 {
        fill: #7e8db5;
      }

      .cls-31 {
        fill: #9da3af;
      }

      .cls-32 {
        fill: #9aa9ce;
      }

      .cls-33 {
        opacity: 0.5;
      }

      .cls-34 {
        fill: #161921;
      }

      .cls-35 {
        fill: #8b93a7;
      }
    </style>
  </defs>
  <g id="OBJECTS" transform="translate(-22.419 -103.072)">
    <g id="Group_11861" data-name="Group 11861" transform="translate(51.496 114.341)">
      <path id="Path_35406" data-name="Path 35406" class="cls-1" d="M296.256,193.132c-23.106-83.82-127.229-110.822-186.9-48.179q-1.288,1.351-2.569,2.745c-85.548,92.994-45.135,322.161,133.4,380.245s364.241-47.982,374.674-142.8-71.936-124.61-199.762-98.1C342.881,302.027,310.64,245.312,296.256,193.132Z" transform="translate(-30.731 -110.568)"/>
      <path id="Path_35407" data-name="Path 35407" class="cls-2" d="M324.774,175.9c-23.887,3.889-30.508,25.053-12.062,40.066,6.1,4.962,14.8,9.084,27.2,11.142,47.247,7.838,72.318-13.065,53.381-40.168C381.606,170.214,348.448,172.047,324.774,175.9Z" transform="translate(89.27 -79)"/>
      <path id="Path_35408" data-name="Path 35408" class="cls-3" d="M86.114,294.09c-11.729-21.17-33.884-20.251-41.786,2.18-2.611,7.414-3.551,17-1.3,29.37,8.582,47.118,36.727,63.653,55.839,36.673C110.666,345.661,97.739,315.07,86.114,294.09Z" transform="translate(-41.761 -25.892)"/>
      <path id="Path_35409" data-name="Path 35409" class="cls-3" d="M441.635,309.812c-2.2,11.52,7.312,19.68,18.091,15.24,3.561-1.467,7.156-4.3,10.352-9.269,12.178-18.945,6.01-35.194-10.946-33.527C448.666,283.286,443.815,298.4,441.635,309.812Z" transform="translate(159.335 -24.216)"/>
      <path id="Path_35410" data-name="Path 35410" class="cls-4" d="M410.509,231.41c11.481,2.4,19.8-6.975,15.547-17.828-1.407-3.587-4.173-7.228-9.092-10.51-18.734-12.5-35.087-6.609-33.708,10.374C384.106,223.928,399.132,229.036,410.509,231.41Z" transform="translate(130.072 -67.378)"/>
      <path id="Path_35411" data-name="Path 35411" class="cls-5" d="M221.361,150.677c9.09,7.411,20.791,2.921,22.007-8.673.4-3.832-.379-8.339-3.235-13.515-10.881-19.717-28.11-22.014-34.7-6.3C201.364,131.884,212.353,143.333,221.361,150.677Z" transform="translate(40.175 -109.919)"/>
    </g>
    <g id="Group_11872" data-name="Group 11872" transform="translate(22.419 285.407)">
      <g id="Group_11863" data-name="Group 11863" transform="translate(566.942 221.977)">
        <path id="Path_35412" data-name="Path 35412" class="cls-6" d="M486.752,433.435a12.052,12.052,0,0,0,10.8-3.349,9.883,9.883,0,0,0,3.005-6.47v-.1c-.051-16.07,19.69-15,26.028-34.647s-18.707-21.3-33.016-9.172c-10.286,8.722-22.631-3.462-37.583,6.711-12.981,8.827-5.75,30.568-27.044,23.772-6.8-2.174-12.886-.078-18.025,3.776a30.482,30.482,0,0,0-11.371,17.419l1.7,1.2C443.243,458.319,462.169,429.33,486.752,433.435Z" transform="translate(-399.55 -372.022)"/>
        <g id="Group_11862" data-name="Group 11862" transform="translate(39.651 21.862)">
          <path id="Path_35413" data-name="Path 35413" class="cls-7" d="M431.863,425.257l55.678-35.74a1.6,1.6,0,1,0-1.733-2.7l-59.881,38.438Z" transform="translate(-425.926 -386.565)"/>
        </g>
      </g>
      <g id="Group_11865" data-name="Group 11865" transform="translate(584.571)">
        <g id="Group_11864" data-name="Group 11864" transform="translate(23.03 13.654)">
          <path id="Path_35414" data-name="Path 35414" class="cls-7" d="M428.526,396c-2.35-35.031-2.738-71.766-.129-96.123,3.405-31.82,11.111-53.972,22.9-65.837a2.008,2.008,0,0,1,2.849,2.831c-20.612,20.743-28.022,76.434-21.476,161.17Z" transform="translate(-426.597 -233.445)"/>
        </g>
        <path id="Path_35415" data-name="Path 35415" class="cls-8" d="M436.624,268.819s-16.783-.027-15.583-29.532C421.041,239.287,446.719,246.613,436.624,268.819Z" transform="translate(-406.394 -216.85)"/>
        <path id="Path_35416" data-name="Path 35416" class="cls-8" d="M430.452,274.788s-.908-16.759,28.62-17.2C459.072,257.586,453.185,283.632,430.452,274.788Z" transform="translate(-401.628 -207.64)"/>
        <path id="Path_35417" data-name="Path 35417" class="cls-8" d="M439.206,250.123s-6.443-15.5,21.248-25.761C460.453,224.362,463.588,250.88,439.206,250.123Z" transform="translate(-397.548 -224.362)"/>
        <path id="Path_35418" data-name="Path 35418" class="cls-8" d="M436.2,296.836s-15.8,5.652-24.654-22.521C411.544,274.315,438.187,272.523,436.2,296.836Z" transform="translate(-411.143 -199.236)"/>
        <path id="Path_35419" data-name="Path 35419" class="cls-8" d="M428.6,307.047s-3.793-16.35,25.213-21.893C453.817,285.154,452.523,311.826,428.6,307.047Z" transform="translate(-402.639 -193.765)"/>
        <path id="Path_35420" data-name="Path 35420" class="cls-8" d="M436.354,321.482s-15.693,5.952-25.077-22.049C411.277,299.433,437.881,297.138,436.354,321.482Z" transform="translate(-411.277 -186.608)"/>
      </g>
      <g id="Group_11867" data-name="Group 11867" transform="translate(71.926 106.696)">
        <path id="Path_35421" data-name="Path 35421" class="cls-9" d="M120.952,442.918l-4.573-.18-2.425-.1-6.87-.275S43.586,334.57,83.365,299.419c12.246-10.822,33.654-1.849,28.922,47.889C107.9,393.414,120.952,442.918,120.952,442.918Z" transform="translate(-70.265 -295.337)"/>
        <g id="Group_11866" data-name="Group 11866" transform="translate(20.779 31.8)">
          <path id="Path_35422" data-name="Path 35422" class="cls-7" d="M109.422,432.091l-2.425-.1c-11.085-26.117-16.681-54.174-19.459-73.868a341.272,341.272,0,0,1-3.452-40.532,1.1,1.1,0,0,1,2.195-.016,338.525,338.525,0,0,0,3.435,40.278C92.512,377.644,98.167,405.93,109.422,432.091Z" transform="translate(-84.087 -316.49)"/>
        </g>
      </g>
      <g id="Group_11869" data-name="Group 11869" transform="translate(0 92.604)">
        <path id="Path_35423" data-name="Path 35423" class="cls-10" d="M157.647,469.232l-6.21,2.306-3.3,1.221-9.334,3.462S-6.1,367.563,27.464,298.427C37.8,277.142,71.4,277.2,92.795,346.3,112.625,410.356,157.647,469.232,157.647,469.232Z" transform="translate(-22.419 -285.962)"/>
        <g id="Group_11868" data-name="Group 11868" transform="translate(31.238 44.489)">
          <path id="Path_35424" data-name="Path 35424" class="cls-7" d="M140.978,456.644l-3.3,1.221c-29.365-28.722-52.476-63.1-67.16-87.862a493.541,493.541,0,0,1-27.2-52.237,1.588,1.588,0,0,1,2.922-1.245,490.514,490.514,0,0,0,27.034,51.906C88.044,393.314,111.362,427.961,140.978,456.644Z" transform="translate(-43.199 -315.557)"/>
        </g>
      </g>
      <g id="Group_11871" data-name="Group 11871" transform="translate(551.077 114.627)">
        <path id="Path_35425" data-name="Path 35425" class="cls-11" d="M468.477,468.008a40.716,40.716,0,0,0-.914-7.545c-5.21-23.85,8.961-28.348,27.65-35.879s20.9-29.907,7.674-48.5,10.543-33.54,1.787-61.524-39.161-9.37-45.813,16.428c-4.779,18.549-29.089,14.537-38.091,38.593-7.819,20.881,18.388,40.17-11.881,49.743-9.668,3.053-15.012,10.474-17.811,19.158a43.306,43.306,0,0,0,1.09,29.525Z" transform="translate(-388.997 -300.612)"/>
        <g id="Group_11870" data-name="Group 11870" transform="translate(37.542 41.182)">
          <path id="Path_35426" data-name="Path 35426" class="cls-7" d="M418.886,454.22l49.855-123.08a2.278,2.278,0,1,0-4.223-1.708L413.97,454.22Z" transform="translate(-413.97 -328.007)"/>
        </g>
      </g>
    </g>
    <g id="Group_11895" data-name="Group 11895" transform="translate(72.097 166.856)">
      <path id="Path_35427" data-name="Path 35427" class="cls-12" d="M155.805,173.973s1.048-22.159-12.429-26.414c-20.986-6.628-26.826,4.256-30.066,11.448-4.151,9.217-2.381,27.3,10.14,29.041C142.142,190.654,154.651,180.166,155.805,173.973Z" transform="translate(-27.363 -145.501)"/>
      <path id="Path_35428" data-name="Path 35428" class="cls-12" d="M170.109,242.267a23.049,23.049,0,0,0,22.562-18.319c1.607-7.689,3.179-14.5,3.179-18.321v-.1c.1-1.209.152-2.417.161-3.608.143-17.485-10.636-49.42-48.552-44.343,0,0-31.461,3.59-35.042,34.334,0,0-1.491,14.184-2.482,24.454-.018.182-.036.364-.054.543a23.042,23.042,0,0,0,22.936,25.359Z" transform="translate(-28.138 -139.695)"/>
      <g id="Group_11874" data-name="Group 11874" transform="translate(162.746 139.115)">
        <g id="Group_11873" data-name="Group 11873">
          <path id="Path_35429" data-name="Path 35429" class="cls-13" d="M187.962,238.041s6.7,53.113,14.363,80.38c0,0,10.881-5.069,25.122-11.948,15.442-7.459,37.641-21.07,37.641-21.07l5.61,13.516s-57.343,54.12-76.338,57.184-30.636-64.949-30.636-64.949Z" transform="translate(-163.724 -238.041)"/>
          <path id="Path_35430" data-name="Path 35430" class="cls-14" d="M230.492,280.486s-1.575-7.545,1.8-12.653,8.518-14.668,14.553-16.663c5.051-1.67-2.4,6.855-2.622,12.264a85.051,85.051,0,0,0,12.93-2.7c4.765-1.548,14.2-3.479,18.569-4.34a1.2,1.2,0,0,1,1.045,2.075c-1.491,1.293-4.609,2.918-11.054,4.471,0,0,15.708-2.975,17.338-.568s-18.077,5.762-18.077,5.762,15.29-.905,15.689,1.494c.242,1.46-15.6,4.8-15.6,4.8s14.456.388,10.959,2.67c-1.018.664-29,3.814-38.746,15.319C237.278,292.418,230.723,285.643,230.492,280.486Z" transform="translate(-130.304 -231.54)"/>
        </g>
      </g>
      <g id="Group_11876" data-name="Group 11876" transform="translate(0 20.368)">
        <g id="Group_11875" data-name="Group 11875">
          <path id="Path_35431" data-name="Path 35431" class="cls-13" d="M145.755,249.569s-32.08,9.46-59.708,15.694c0,0-.717-11.981-1.44-27.781-.785-17.132.627-43.133.627-43.133l-14.556,1.5S50.351,272.03,56.69,290.195s86.856-7.279,86.856-7.279Z" transform="translate(-55.465 -141.283)"/>
          <path id="Path_35432" data-name="Path 35432" class="cls-14" d="M80.966,213.906s7.387-2.2,10.274-7.6S102.1,190.029,97.178,186c-1.8-1.469-3.092,4.943-7.743,7.712a84.993,84.993,0,0,1-3.775-12.659c-.9-4.929-3.692-14.142-5.015-18.4a1.2,1.2,0,0,0-2.321.068c-.428,1.926-.374,5.44,1.324,11.849,0,0-4.856-15.231-7.747-15.522s3.53,18.642,3.53,18.642-6.478-13.879-8.776-13.088c-1.4.481,3.193,16.006,3.193,16.006s-7.217-12.532-7.562-8.37c-.1,1.212,10.442,27.326,4.958,41.369C67.244,213.612,76.321,216.153,80.966,213.906Z" transform="translate(-52.032 -159.05)"/>
        </g>
      </g>
      <g id="Group_11881" data-name="Group 11881" transform="translate(61.566 121.038)">
        <g id="Group_11878" data-name="Group 11878" transform="translate(6.051)">
          <path id="Path_35433" data-name="Path 35433" class="cls-15" d="M218.611,449.673l.256,1.135c-24.982,16.912-118.423,5.364-118.423,5.364.159-1.96.368-4.009.642-6.13.29-2.365.652-4.812,1.069-7.344,1.129-6.8,2.643-14.157,4.343-21.724.546-2.383,1.093-4.8,1.669-7.229,1.687-7.225,3.482-14.549,5.18-21.684.588-2.453,1.165-4.872,1.723-7.278.779-3.339,1.515-6.625,2.222-9.809.92-4.235,1.741-8.3,2.429-12.136.463-2.578.867-5.05,1.177-7.4.356-2.483.6-4.83.749-7-1.485-5.49-2.87-10.866-4.16-16.082-.64-2.655-1.27-5.251-1.888-7.817-1.92-8.217-3.606-16.034-5.08-23.36-.523-2.661-1.04-5.251-1.509-7.776-1.634-8.638-2.952-16.455-4.015-23.276-.41-2.721-.8-5.257-1.135-7.652-.374-2.619-.695-5.044-.974-7.241-1.254-9.671-1.687-15.155-1.687-15.155.219-.177.451-.338.688-.511,2.834-2.013,7.265-3.909,12.19-5.589,5.2-1.783,10.949-3.333,16.016-4.556.767-.185,1.521-.362,2.258-.535,6.66-1.556,11.637-2.459,11.637-2.459,22.658,4.746,29.122,1.693,29.122,1.693l11.518,3.4,1.354.475,8.394,2.946.34.125,15.053,5.3,10.041,3.522-3.9,17.97-1.7,7.849-5.132,23.656-1.687,7.817-5.11,23.573-1.681,7.74-4.23,19.534.843,3.73L198.87,363l2.62,11.514,2.381,10.415,1.64,7.217,4.931,21.714,1.646,7.175,4.889,21.464Z" transform="translate(-100.444 -225.809)"/>
          <path id="Path_35434" data-name="Path 35434" class="cls-14" d="M175.3,232.2c-2.411,14.163-9.278,28.409-23.554,29.949-17.246,1.866-26.188-19.767-30.078-33.056,6.66-1.556,13.561-3.077,13.561-3.077,22.658,4.746,27.029,1.855,27.029,1.855l11.687,3.854Z" transform="translate(-89.761 -226.016)"/>
          <g id="Group_11877" data-name="Group 11877" transform="translate(37.78 0.632)">
            <path id="Path_35435" data-name="Path 35435" class="cls-16" d="M148.028,250.041c-18.074,0-22.4-22.323-22.438-22.553a.891.891,0,0,1,1.753-.323c.165.9,4.265,21.96,21.735,21.067,15.29-.773,16.189-17.743,16.221-18.465a.891.891,0,0,1,1.78.074c-.008.194-.989,19.316-17.91,20.171Q148.59,250.041,148.028,250.041Z" transform="translate(-125.575 -226.436)"/>
          </g>
          <path id="Path_35436" data-name="Path 35436" class="cls-17" d="M121.9,239.52a4.412,4.412,0,1,1-4.412-4.411A4.412,4.412,0,0,1,121.9,239.52Z" transform="translate(-94.088 -221.44)"/>
          <path id="Path_35437" data-name="Path 35437" class="cls-17" d="M116.019,253.84a4.412,4.412,0,1,1-4.412-4.411A4.413,4.413,0,0,1,116.019,253.84Z" transform="translate(-97.046 -214.232)"/>
          <path id="Path_35438" data-name="Path 35438" class="cls-17" d="M134.757,260.61a4.411,4.411,0,1,1-4.411-4.412A4.411,4.411,0,0,1,134.757,260.61Z" transform="translate(-87.615 -210.825)"/>
          <path id="Path_35439" data-name="Path 35439" class="cls-17" d="M121.582,268.069a4.411,4.411,0,1,1-5.734-2.461A4.411,4.411,0,0,1,121.582,268.069Z" transform="translate(-94.088 -206.248)"/>
          <path id="Path_35440" data-name="Path 35440" class="cls-17" d="M147.128,274.036a4.412,4.412,0,1,1-4.412-4.412A4.412,4.412,0,0,1,147.128,274.036Z" transform="translate(-81.389 -204.068)"/>
          <path id="Path_35441" data-name="Path 35441" class="cls-17" d="M165.846,280.084a4.412,4.412,0,1,1-4.412-4.412A4.412,4.412,0,0,1,165.846,280.084Z" transform="translate(-71.968 -201.024)"/>
          <path id="Path_35442" data-name="Path 35442" class="cls-17" d="M169.612,242.455a4.411,4.411,0,1,1-4.411-4.412A4.412,4.412,0,0,1,169.612,242.455Z" transform="translate(-70.072 -219.963)"/>
          <path id="Path_35443" data-name="Path 35443" class="cls-17" d="M148.315,292.777a4.411,4.411,0,1,1-4.412-4.411A4.412,4.412,0,0,1,148.315,292.777Z" transform="translate(-80.791 -194.635)"/>
          <path id="Path_35444" data-name="Path 35444" class="cls-17" d="M130.235,301.877a4.412,4.412,0,1,1-4.412-4.411A4.412,4.412,0,0,1,130.235,301.877Z" transform="translate(-89.891 -190.055)"/>
          <path id="Path_35445" data-name="Path 35445" class="cls-17" d="M128.129,285.305a4.412,4.412,0,1,1-4.412-4.412A4.412,4.412,0,0,1,128.129,285.305Z" transform="translate(-90.951 -198.396)"/>
          <path id="Path_35446" data-name="Path 35446" class="cls-17" d="M157.042,261.378a4.412,4.412,0,1,1-4.412-4.412A4.411,4.411,0,0,1,157.042,261.378Z" transform="translate(-76.399 -210.439)"/>
          <path id="Path_35447" data-name="Path 35447" class="cls-17" d="M173.268,257.675a4.411,4.411,0,1,1-4.412-4.411A4.412,4.412,0,0,1,173.268,257.675Z" transform="translate(-68.232 -212.302)"/>
          <path id="Path_35448" data-name="Path 35448" class="cls-17" d="M162.911,297.633a4.411,4.411,0,1,1-4.412-4.412A4.412,4.412,0,0,1,162.911,297.633Z" transform="translate(-73.445 -192.192)"/>
          <path id="Path_35449" data-name="Path 35449" class="cls-17" d="M163.7,320.853a4.411,4.411,0,1,1-4.411-4.411A4.411,4.411,0,0,1,163.7,320.853Z" transform="translate(-73.049 -180.505)"/>
          <path id="Path_35450" data-name="Path 35450" class="cls-17" d="M148.655,310.618a4.411,4.411,0,1,1-5.734-2.461A4.411,4.411,0,0,1,148.655,310.618Z" transform="translate(-80.462 -184.833)"/>
          <path id="Path_35451" data-name="Path 35451" class="cls-17" d="M128.676,319.218a4.412,4.412,0,1,1-5.734-2.461A4.413,4.413,0,0,1,128.676,319.218Z" transform="translate(-90.518 -180.505)"/>
        </g>
        <path id="Path_35452" data-name="Path 35452" class="cls-18" d="M229.984,430.192l-.914-5.5-3.56-21.323-1.221-7.3-3.4-20.381-6.179.279L132.8,379.68l-30.326,1.368L100.52,396.9l-.912,7.385-2.692,21.9-.495,4.012Z" transform="translate(-96.418 -150.687)"/>
        <g id="Group_11880" data-name="Group 11880" transform="translate(0 148.689)">
          <g id="Group_11879" data-name="Group 11879">
            <path id="Path_35453" data-name="Path 35453" class="cls-7" d="M229.98,455.74l-.837-4.967-.069-.522-.591-3.51-.591-3.476-2.4-14.353-.7-4.241-.522-3.058-.069-.452-3.092-18.594-.209-1.32-.278-1.147-.244-1.009-1.391-6.152-2.745-12.025-.8-3.441-1.354-6.012-1.634-7.195-1.112-4.935-.8-3.441-3.023-13.31-1.112-4.866-.522-2.363-.242-1.078-2.121-9.349c-33.3,9.836-68.572,4-84.21.487-.7,3.163-1.46,6.464-2.225,9.8q-.259,1.094-.522,2.189-.417,1.721-.833,3.441c-.105.556-.244,1.076-.383,1.634-1.285,5.456-2.641,11.016-3.961,16.542-.278,1.147-.522,2.294-.8,3.406-.14.591-.278,1.147-.416,1.738-.556,2.432-1.112,4.865-1.669,7.229-.7,3.161-1.356,6.255-1.981,9.313-.244,1.147-.487,2.259-.695,3.372-.627,3.094-1.182,6.117-1.669,9.036-.418,2.538-.765,4.97-1.043,7.368-.1.731-.173,1.46-.278,2.156-.1,1.182-.242,2.329-.347,3.476,0,.173-.035.313-.035.486l-1.947,15.849-.313,2.467-.416,3.441-.174,1.46-2.154,17.342-.418,3.476-.138,1.113-.481,3.994Z" transform="translate(-96.419 -324.924)"/>
          </g>
        </g>
      </g>
      <g id="Group_11894" data-name="Group 11894" transform="translate(87.367 32.324)">
        <g id="Group_11888" data-name="Group 11888" transform="translate(6.208)">
          <g id="Group_11885" data-name="Group 11885" transform="translate(56.187 32.19)">
            <path id="Path_35454" data-name="Path 35454" class="cls-19" d="M159.16,191.851s5.416-6.863,9.444-1.188-1.667,22.432-11.527,18.342Z" transform="translate(-154.086 -188.416)"/>
            <g id="Group_11882" data-name="Group 11882" transform="translate(4.309 6.007)">
              <path id="Path_35455" data-name="Path 35455" class="cls-20" d="M158.787,201.815a.83.83,0,0,0,.8-.579c1.527-5.173,7.169-7.271,7.226-7.291a.783.783,0,0,0,.483-1.021.849.849,0,0,0-1.073-.462c-.263.095-6.481,2.387-8.241,8.346a.789.789,0,0,0,.577.976A.9.9,0,0,0,158.787,201.815Z" transform="translate(-157.954 -192.412)"/>
            </g>
            <g id="Group_11883" data-name="Group 11883" transform="translate(7.236 9.119)">
              <path id="Path_35456" data-name="Path 35456" class="cls-20" d="M163.5,198.167a.86.86,0,0,0,.451-.126.77.77,0,0,0,.25-1.094,7.519,7.519,0,0,0-3.128-2.395.851.851,0,0,0-1.1.4.776.776,0,0,0,.421,1.046A5.987,5.987,0,0,1,162.8,197.8.841.841,0,0,0,163.5,198.167Z" transform="translate(-159.901 -194.482)"/>
            </g>
            <g id="Group_11884" data-name="Group 11884" transform="translate(0 17.543)">
              <path id="Path_35457" data-name="Path 35457" class="cls-16" d="M157.722,203.022a5.846,5.846,0,1,0,5.639-1.823,1.061,1.061,0,0,1,.212-1.112,7.028,7.028,0,1,1-6.921,2.453Q157.186,202.783,157.722,203.022Z" transform="translate(-155.087 -200.086)"/>
            </g>
          </g>
          <path id="Path_35458" data-name="Path 35458" class="cls-14" d="M130.69,214.02v20.558s9.555,7.374,17.01,8.014,10.02-8.139,10.02-8.139V215.32Z" transform="translate(-111.179 -143.339)"/>
          <path id="Path_35459" data-name="Path 35459" class="cls-19" d="M130.69,215.36v8.2c5,5.55,13.881,7.517,27.028,5.576V216.66Z" transform="translate(-111.179 -142.665)"/>
          <path id="Path_35460" data-name="Path 35460" class="cls-14" d="M181.413,209.479c-.238,1.984-.517,4-.875,6.016-2.36,13.367-10.818,27.808-21.494,30.231-23.056,5.233-32.631-12.876-36.317-26.236-.407-1.484.356-3.184.035-4.94-.765-4.164-2.447-8.894-2.829-13.557-.263-3.232-.45-6.421-.585-9.3a18.887,18.887,0,0,1,11.685-18.507c10.6-4.215,26.694-7.553,41.939,1.388a19.053,19.053,0,0,1,9.29,16.109A142.9,142.9,0,0,1,181.413,209.479Z" transform="translate(-116.898 -166.038)"/>
          <g id="Group_11886" data-name="Group 11886" transform="translate(33.909 38.995)">
            <path id="Path_35461" data-name="Path 35461" class="cls-19" d="M141.634,207.733a.9.9,0,0,1-.147-1.778l3.076-.517-4.238-11.284a.9.9,0,1,1,1.676-.631l5,13.321-5.219.878A.988.988,0,0,1,141.634,207.733Z" transform="translate(-140.268 -192.942)"/>
          </g>
          <path id="Path_35462" data-name="Path 35462" class="cls-12" d="M148.516,194.044c0,1.974,1.016,3.573,2.27,3.573s2.271-1.6,2.271-3.573-1.016-3.572-2.271-3.572S148.516,192.072,148.516,194.044Z" transform="translate(-102.207 -155.191)"/>
          <path id="Path_35463" data-name="Path 35463" class="cls-12" d="M131.817,194.044c0,1.974,1.016,3.573,2.272,3.573s2.27-1.6,2.27-3.573-1.016-3.572-2.27-3.572S131.817,192.072,131.817,194.044Z" transform="translate(-110.612 -155.191)"/>
          <path id="Path_35464" data-name="Path 35464" class="cls-12" d="M158.214,186.893a43.592,43.592,0,0,0-9.451-.806c-1.034.038-1.864.816-1.721,1.64l0,.021a1.452,1.452,0,0,0,1.646,1.037c2.68-.2,9.69-.158,12.954.813a1.691,1.691,0,0,0-.686-1.413A5.474,5.474,0,0,0,158.214,186.893Z" transform="translate(-102.958 -157.408)"/>
          <path id="Path_35465" data-name="Path 35465" class="cls-12" d="M131.322,187.216a43.691,43.691,0,0,1,9.439-.934c1.034.023,1.875.791,1.744,1.616l0,.021a1.453,1.453,0,0,1-1.631,1.06c-2.683-.165-9.692-.026-12.942.991a1.69,1.69,0,0,1,.666-1.422A5.49,5.49,0,0,1,131.322,187.216Z" transform="translate(-112.579 -157.303)"/>
          <path id="Path_35466" data-name="Path 35466" class="cls-16" d="M155.4,206.327c-.664,3.14-2.87,8.916-10.3,8.916-7.45,0-9.54-5.278-10.259-8.916Z" transform="translate(-109.092 -147.211)"/>
          <g id="Group_11887" data-name="Group 11887" transform="translate(31.408 70.6)">
            <path id="Path_35467" data-name="Path 35467" class="cls-19" d="M143.308,216.8a8.77,8.77,0,0,0,4.119-1.206.878.878,0,0,0-.922-1.494h0a7.079,7.079,0,0,1-3.2.943,7.448,7.448,0,0,1-3.372-.947.878.878,0,0,0-.908,1.5A9.157,9.157,0,0,0,143.308,216.8Z" transform="translate(-138.604 -213.967)"/>
          </g>
          <path id="Path_35468" data-name="Path 35468" class="cls-12" d="M183.159,208.345c-.213.18-.421.117-.616-.235-3.046-5.368-.183-16.079-9.2-20.186a19.105,19.105,0,0,1-9.328-9.555c-1.569,2.686-5.657,5.15-5.657,5.15a162.219,162.219,0,0,1-21.141,10.293,35.6,35.6,0,0,0-7.079,3.561l.192.054s-2.984,4.845-.8,12.378-.624,19.952-5.471,22.819c.087-.212,3.722-8.8,1.667-15.81-1.183-4.018-1.173-10.412-2.294-14.242-1.242-.855-4.113-2.3-5.086-2.876-.277-3.3-.475-6.544-.616-9.48a19.228,19.228,0,0,1,12.32-18.868c11.171-4.295,28.136-7.7,44.208,1.418a19.318,19.318,0,0,1,9.8,16.419A140.91,140.91,0,0,1,183.159,208.345Z" transform="translate(-117.711 -167.003)"/>
        </g>
        <g id="Group_11893" data-name="Group 11893" transform="translate(0 31.441)">
          <path id="Path_35469" data-name="Path 35469" class="cls-14" d="M125.265,192.046s-6.3-7.643-10.013-2.132,1.771,22.4,10.869,18.429Z" transform="translate(-113.333 -187.918)"/>
          <g id="Group_11889" data-name="Group 11889" transform="translate(0 16.427)">
            <path id="Path_35470" data-name="Path 35470" class="cls-16" d="M125.768,203.116a5.843,5.843,0,1,1-5.03-3.139,1.346,1.346,0,0,0,.066-1.129,7.027,7.027,0,1,0,6.118,4.059C126.538,202.978,126.153,203.048,125.768,203.116Z" transform="translate(-113.582 -198.845)"/>
          </g>
          <g id="Group_11890" data-name="Group 11890" transform="translate(2.665 5.648)">
            <path id="Path_35471" data-name="Path 35471" class="cls-19" d="M123.257,200.8a.769.769,0,0,1-.74-.561c-1.41-5.024-6.615-7.061-6.667-7.082a.768.768,0,0,1,.544-1.437c.244.092,5.98,2.318,7.6,8.1a.768.768,0,0,1-.741.976Z" transform="translate(-115.355 -191.675)"/>
          </g>
          <g id="Group_11892" data-name="Group 11892" transform="translate(4.545 8.669)">
            <g id="Group_11891" data-name="Group 11891">
              <path id="Path_35472" data-name="Path 35472" class="cls-19" d="M117.373,197.263a.754.754,0,0,1-.415-.123.768.768,0,0,1-.23-1.063,7.025,7.025,0,0,1,2.885-2.326.769.769,0,0,1,.628,1.4,5.548,5.548,0,0,0-2.22,1.754A.77.77,0,0,1,117.373,197.263Z" transform="translate(-116.605 -193.684)"/>
            </g>
          </g>
        </g>
      </g>
    </g>
    <g id="Group_11983" data-name="Group 11983" transform="translate(256.998 166.65)">
      <path id="Path_35473" data-name="Path 35473" class="cls-14" d="M368.446,308.272c-14.654,10.519-37.581,17.736-37.581,17.736l-4.695-16.885-3.664-13.172-2.584-9.286-26.279-.018c1.425,4.925,2.894,9.955,4.372,14.91,1.9,6.391,3.787,12.65,5.585,18.418,2.536,8.121,4.875,15.26,6.759,20.362.442,1.19.953,2.488,1.526,3.869,3.513,9.489,6.349,19.779,19.755,13.322,11.8-5.684,27.805-13.563,35.8-18.793Z" transform="translate(-120.49 -74.256)"/>
      <g id="Group_11896" data-name="Group 11896" transform="translate(171.456 135.144)">
        <path id="Path_35474" data-name="Path 35474" class="cls-19" d="M296.551,298.442c1.9,6.389,3.785,12.649,5.585,18.417a37.337,37.337,0,0,0,22.571-10.851l-3.662-13.172Z" transform="translate(-290.483 -206.285)"/>
        <path id="Path_35475" data-name="Path 35475" class="cls-21" d="M293,235.262s27.413,65.377,39.2,86.559c0,0-16.523,14.047-32.617,14.432C299.59,336.252,290.315,264.474,293,235.262Z" transform="translate(-292.515 -235.262)"/>
      </g>
      <g id="Group_11900" data-name="Group 11900" transform="translate(53.749 357.656)">
        <g id="Group_11898" data-name="Group 11898">
          <g id="Group_11897" data-name="Group 11897">
            <path id="Path_35476" data-name="Path 35476" class="cls-15" d="M268.229,426.417c.275-4.575.535-8.93.773-12.966.971-16.5,1.6-27.767,1.6-27.767l-6.464-.29-3.643-.164-43.94-1.951s-.8,12.6-1.742,31.1c-.192,3.785-.392,7.82-.592,12.041Z" transform="translate(-214.215 -383.278)"/>
          </g>
        </g>
        <path id="Path_35477" data-name="Path 35477" class="cls-13" d="M263.934,385.393l6.464.29s-.624,11.264-1.595,27.767a392.508,392.508,0,0,1-54.194.925c.943-18.5,1.742-31.1,1.742-31.1l43.94,1.951Z" transform="translate(-214.017 -383.278)"/>
        <g id="Group_11899" data-name="Group 11899" transform="translate(43.96 1.953)">
          <path id="Path_35478" data-name="Path 35478" class="cls-22" d="M247.107,425.763c1.021-17.628,1.857-32.73,2.311-41.022l-3.644-.164c-.456,8.33-1.294,23.5-2.317,41.186Z" transform="translate(-243.457 -384.577)"/>
        </g>
      </g>
      <g id="Group_11904" data-name="Group 11904" transform="translate(119.556 357.656)">
        <g id="Group_11902" data-name="Group 11902">
          <g id="Group_11901" data-name="Group 11901">
            <path id="Path_35479" data-name="Path 35479" class="cls-18" d="M260.358,426.417h54.014c-.2-4.221-.4-8.256-.592-12.041-.943-18.5-1.742-31.1-1.742-31.1l-43.94,1.951-3.643.164-6.464.29s.624,11.264,1.6,27.767C259.823,417.487,260.083,421.842,260.358,426.417Z" transform="translate(-257.99 -383.278)"/>
          </g>
        </g>
        <path id="Path_35480" data-name="Path 35480" class="cls-22" d="M264.454,385.393l-6.464.29s.624,11.264,1.6,27.767a392.509,392.509,0,0,0,54.194.925c-.943-18.5-1.742-31.1-1.742-31.1l-43.94,1.951Z" transform="translate(-257.99 -383.278)"/>
        <g id="Group_11903" data-name="Group 11903" transform="translate(6.461 1.953)">
          <path id="Path_35481" data-name="Path 35481" class="cls-22" d="M268.249,425.763c-1.022-17.686-1.861-32.856-2.317-41.186l-3.644.164c.454,8.292,1.29,23.394,2.311,41.022Z" transform="translate(-262.288 -384.577)"/>
        </g>
      </g>
      <g id="Group_11908" data-name="Group 11908" transform="translate(46.543 108.825)">
        <g id="Group_11907" data-name="Group 11907">
          <g id="Group_11906" data-name="Group 11906">
            <g id="Group_11905" data-name="Group 11905">
              <path id="Path_35482" data-name="Path 35482" class="cls-15" d="M209.425,435.256c-.006.9,0,1.8,0,2.677.02,16.069.1,28.524.179,34.638a256.961,256.961,0,0,0,46.569,8.176l2.109.159c.377.027.753.053,1.131.072.833.06,1.672.113,2.5.152.926.06,1.845.107,2.777.153a247.646,247.646,0,0,0,31.7-.57c2.135-.177,4.256-.383,6.392-.615.138-.012.271-.026.409-.039.543-.06,1.084-.126,1.633-.191l.986-.12a260.317,260.317,0,0,0,36.871-7.178c.033-2.777.047-6.894.047-12.084,0-.965,0-1.957-.006-2.995v-.006c-.008-7.423-.054-16.666-.132-27.109-.008-.893-.014-1.792-.021-2.7-.059-6.954-.132-14.4-.224-22.171-.013-.9-.019-1.8-.033-2.7-.1-7.965-.218-16.24-.358-24.642-.086-5.131-.177-10.305-.284-15.489-.105-5.248-.218-10.5-.343-15.726-.027-1.137-.053-2.275-.086-3.411-1.2-49.385-3.286-94.779-6.73-99.842-2.386-3.5-7.853-7.622-14.292-11.774q-1.179-.753-2.4-1.52c-2.744-1.712-25.119-9.314-27.961-10.986L266.2,217.755c-.146.087-22.76,7.715-22.9,7.795-.973.555-1.957,1.117-2.928,1.679-8.376,4.832-16.639,9.922-21.4,14.3a23.266,23.266,0,0,0-1.845,1.864,13.15,13.15,0,0,0-1.1,1.415,7.434,7.434,0,0,0-.827,2.076c-2.862,10.4-4.363,51.263-5.11,95.724q-.079,4.778-.146,9.6-.029,2.113-.059,4.238c-.021.971-.033,1.95-.041,2.921l-.02,1.461q-.05,3.628-.08,7.232-.029,2.665-.059,5.32C209.472,395.785,209.406,417.533,209.425,435.256Z" transform="translate(-209.422 -217.755)"/>
            </g>
          </g>
        </g>
      </g>
      <g id="Group_11910" data-name="Group 11910" transform="translate(0 135.6)">
        <g id="Group_11909" data-name="Group 11909" transform="translate(0 17.683)">
          <path id="Path_35483" data-name="Path 35483" class="cls-14" d="M182.714,483.872c-.582,6.312,7.106,2.889,4.931-9.9s3.993-24.373,6.651-24-2.2,13.967.165,18.865,5.413-4.62,8.455-10.391c3.152-6,2.968-19.077,1.533-28.412s15.487-66.049,15.573-82.483l2.063-6.966,7.55-25.509,11.819-39.947s-7.079-30.234-19.018-27.637c0,0-6.318,21.06-13.074,44.812-1.144,4.032-2.3,8.143-3.444,12.241-4.812,17.22-9.334,34.221-11.436,44.31-5.553,26.632-5.983,81.993-5.983,81.993s-9.8,20.341-10.027,29.391C178.225,469.884,183.288,477.56,182.714,483.872Z" transform="translate(-178.461 -247.329)"/>
          <path id="Path_35484" data-name="Path 35484" class="cls-19" d="M196.724,289.484l16.168,36.04,7.55-25.51-20.274-22.772C199.024,281.275,197.868,285.386,196.724,289.484Z" transform="translate(-169.27 -232.273)"/>
        </g>
        <path id="Path_35485" data-name="Path 35485" class="cls-13" d="M196.191,299.726c7.093,12.163,14.3,24.26,21.49,36.377,2.366-7.925,4.818-15.534,7.12-22.529.006-.02.014-.033.02-.053.919-2.8,1.817-5.493,2.677-8.071a.855.855,0,0,1,.047-.132c.3-.9.588-1.8.885-2.67v-.007c3.431-10.371,6.088-18.614,6.848-23.42,2.049-12.936-3.536-38.28-11.4-43.279h0c-.2.457-.825-.952-1.2-.092-1.382,3.193-7.517,11.079-10.552,18.76-.389.979-.786,2-1.2,3.035C206.535,268.941,201.161,283.636,196.191,299.726Z" transform="translate(-169.538 -235.566)"/>
      </g>
      <g id="Group_11969" data-name="Group 11969" transform="translate(46.544 116.621)">
        <g id="Group_11912" data-name="Group 11912" transform="translate(50.835 2.672)">
          <g id="Group_11911" data-name="Group 11911">
            <path id="Path_35486" data-name="Path 35486" class="cls-17" d="M259.962,237.9c10.242,0,17.462-9.344,17.764-9.743a1.385,1.385,0,0,0-.179-1.86,1.184,1.184,0,0,0-1.739.191c-.093.123-6.816,8.767-15.846,8.767-8.924,0-14.365-9.783-14.42-9.883a1.194,1.194,0,0,0-1.69-.477,1.373,1.373,0,0,0-.448,1.805C243.653,227.161,249.6,237.9,259.962,237.9Z" transform="translate(-243.238 -224.719)"/>
          </g>
        </g>
        <g id="Group_11913" data-name="Group 11913" transform="translate(105.149 93.287)">
          <path id="Path_35487" data-name="Path 35487" class="cls-17" d="M285.082,297.1a1.181,1.181,0,0,0,.562-.144,1.379,1.379,0,0,0,.549-1.792l-4.466-9.439a1.207,1.207,0,0,0-1.675-.586,1.376,1.376,0,0,0-.55,1.79l4.466,9.439A1.24,1.24,0,0,0,285.082,297.1Z" transform="translate(-279.367 -284.996)"/>
        </g>
        <g id="Group_11914" data-name="Group 11914" transform="translate(119.584 84.657)">
          <path id="Path_35488" data-name="Path 35488" class="cls-17" d="M289.558,292.258a1.2,1.2,0,0,0,.549.2,1.274,1.274,0,0,0,1.351-1.21l.875-10.538a1.309,1.309,0,0,0-1.13-1.445,1.272,1.272,0,0,0-1.352,1.21l-.876,10.537A1.362,1.362,0,0,0,289.558,292.258Z" transform="translate(-288.97 -279.255)"/>
        </g>
        <g id="Group_11915" data-name="Group 11915" transform="translate(94.927 68.217)">
          <path id="Path_35489" data-name="Path 35489" class="cls-17" d="M273.816,281.423a1.275,1.275,0,0,0,1.23-1.115l1.613-10.437a1.328,1.328,0,0,0-1.027-1.533,1.258,1.258,0,0,0-1.433,1.1l-1.615,10.437a1.327,1.327,0,0,0,1.027,1.532A1.2,1.2,0,0,0,273.816,281.423Z" transform="translate(-272.568 -268.319)"/>
        </g>
        <g id="Group_11916" data-name="Group 11916" transform="translate(49.762 73.436)">
          <path id="Path_35490" data-name="Path 35490" class="cls-17" d="M248.811,283.56a1.16,1.16,0,0,0,.633-.187,1.382,1.382,0,0,0,.437-1.825l-5.038-9.1a1.2,1.2,0,0,0-1.708-.469,1.385,1.385,0,0,0-.437,1.827l5.039,9.1A1.229,1.229,0,0,0,248.811,283.56Z" transform="translate(-242.524 -271.791)"/>
        </g>
        <g id="Group_11917" data-name="Group 11917" transform="translate(104.096 35.994)">
          <path id="Path_35491" data-name="Path 35491" class="cls-17" d="M279.915,255.295a1.185,1.185,0,0,0,.676-.213l8.306-5.746a1.391,1.391,0,0,0,.37-1.843,1.2,1.2,0,0,0-1.724-.4l-8.306,5.746a1.391,1.391,0,0,0-.37,1.843A1.228,1.228,0,0,0,279.915,255.295Z" transform="translate(-278.667 -246.884)"/>
        </g>
        <g id="Group_11918" data-name="Group 11918" transform="translate(62.629 117.107)">
          <path id="Path_35492" data-name="Path 35492" class="cls-17" d="M256.8,312.947a1.171,1.171,0,0,0,.561-.144,1.38,1.38,0,0,0,.55-1.792l-4.468-9.439a1.208,1.208,0,0,0-1.675-.586,1.378,1.378,0,0,0-.549,1.79l4.466,9.439A1.24,1.24,0,0,0,256.8,312.947Z" transform="translate(-251.083 -300.841)"/>
        </g>
        <g id="Group_11919" data-name="Group 11919" transform="translate(78.339 43.227)">
          <path id="Path_35493" data-name="Path 35493" class="cls-17" d="M271.163,259.975a1.23,1.23,0,0,0,1.058-.625,1.388,1.388,0,0,0-.4-1.837l-8.384-5.613a1.2,1.2,0,0,0-1.718.422,1.388,1.388,0,0,0,.4,1.837l8.384,5.613A1.189,1.189,0,0,0,271.163,259.975Z" transform="translate(-261.534 -251.696)"/>
        </g>
        <g id="Group_11920" data-name="Group 11920" transform="translate(107.905 4.847)">
          <path id="Path_35494" data-name="Path 35494" class="cls-17" d="M281.205,233.575a1.334,1.334,0,0,0,.141.72,1.239,1.239,0,0,0,1.015.7,1.277,1.277,0,0,0,1.329-1.236l.4-6.075c-.786-.5-1.583-1.012-2.4-1.52Z" transform="translate(-281.201 -226.165)"/>
        </g>
        <g id="Group_11921" data-name="Group 11921" transform="translate(109.456 61.893)">
          <path id="Path_35495" data-name="Path 35495" class="cls-17" d="M291.863,272.392a1.226,1.226,0,0,0,1.057-.625,1.389,1.389,0,0,0-.394-1.837l-8.385-5.615a1.2,1.2,0,0,0-1.718.424,1.389,1.389,0,0,0,.4,1.837l8.384,5.613A1.191,1.191,0,0,0,291.863,272.392Z" transform="translate(-282.233 -264.113)"/>
        </g>
        <g id="Group_11922" data-name="Group 11922" transform="translate(46.196 13.684)">
          <path id="Path_35496" data-name="Path 35496" class="cls-17" d="M246.18,242.471a1.179,1.179,0,0,0,.684-.221,1.389,1.389,0,0,0,.355-1.846l-4.781-7.76a1.2,1.2,0,0,0-1.726-.38,1.392,1.392,0,0,0-.355,1.848l4.78,7.76A1.226,1.226,0,0,0,246.18,242.471Z" transform="translate(-240.152 -232.044)"/>
        </g>
        <g id="Group_11923" data-name="Group 11923" transform="translate(46.692 147.858)">
          <path id="Path_35497" data-name="Path 35497" class="cls-17" d="M241.728,331.595a1.207,1.207,0,0,0,.9-.41l6.851-7.631a1.4,1.4,0,0,0-.036-1.885,1.188,1.188,0,0,0-1.762.039l-6.851,7.631a1.4,1.4,0,0,0,.036,1.884A1.2,1.2,0,0,0,241.728,331.595Z" transform="translate(-240.482 -321.297)"/>
        </g>
        <g id="Group_11924" data-name="Group 11924" transform="translate(71.865 146.272)">
          <path id="Path_35498" data-name="Path 35498" class="cls-17" d="M258.473,330.538a1.2,1.2,0,0,0,.9-.41l6.849-7.631a1.4,1.4,0,0,0-.035-1.884,1.189,1.189,0,0,0-1.762.038l-6.852,7.632a1.4,1.4,0,0,0,.036,1.884A1.2,1.2,0,0,0,258.473,330.538Z" transform="translate(-257.227 -320.242)"/>
        </g>
        <g id="Group_11925" data-name="Group 11925" transform="translate(84.52 196.813)">
          <path id="Path_35499" data-name="Path 35499" class="cls-17" d="M272.335,365.2a1.416,1.416,0,0,0-.042-1.045l-4.277-9.54a1.212,1.212,0,0,0-1.663-.625,1.375,1.375,0,0,0-.585,1.778l4.275,9.54a1.212,1.212,0,0,0,1.663.625A1.3,1.3,0,0,0,272.335,365.2Z" transform="translate(-265.645 -353.862)"/>
        </g>
        <g id="Group_11926" data-name="Group 11926" transform="translate(12.281 228.29)">
          <path id="Path_35500" data-name="Path 35500" class="cls-17" d="M224.281,386.141a1.409,1.409,0,0,0-.044-1.045l-4.275-9.54a1.213,1.213,0,0,0-1.663-.625,1.375,1.375,0,0,0-.585,1.778l4.275,9.54a1.211,1.211,0,0,0,1.663.625A1.3,1.3,0,0,0,224.281,386.141Z" transform="translate(-217.591 -374.8)"/>
        </g>
        <g id="Group_11927" data-name="Group 11927" transform="translate(49.99 248.104)">
          <path id="Path_35501" data-name="Path 35501" class="cls-17" d="M242.676,395.307c.836.06,1.67.113,2.5.152l.87-5.943a1.32,1.32,0,0,0-1.039-1.52,1.257,1.257,0,0,0-1.421,1.109Z" transform="translate(-242.676 -387.98)"/>
        </g>
        <g id="Group_11928" data-name="Group 11928" transform="translate(38.081 224.593)">
          <path id="Path_35502" data-name="Path 35502" class="cls-17" d="M236.714,385.218a1.335,1.335,0,0,0,.517-.885l1.532-10.452a1.324,1.324,0,0,0-1.039-1.523,1.258,1.258,0,0,0-1.424,1.111l-1.532,10.451a1.324,1.324,0,0,0,1.039,1.523A1.17,1.17,0,0,0,236.714,385.218Z" transform="translate(-234.754 -372.341)"/>
        </g>
        <g id="Group_11929" data-name="Group 11929" transform="translate(93.984 138.258)">
          <path id="Path_35503" data-name="Path 35503" class="cls-17" d="M278.144,326.732a1.179,1.179,0,0,0,.622-.179,1.385,1.385,0,0,0,.454-1.822l-4.955-9.155a1.2,1.2,0,0,0-1.7-.486,1.384,1.384,0,0,0-.454,1.821l4.955,9.157A1.233,1.233,0,0,0,278.144,326.732Z" transform="translate(-271.941 -314.911)"/>
        </g>
        <g id="Group_11930" data-name="Group 11930" transform="translate(84.391 115.125)">
          <path id="Path_35504" data-name="Path 35504" class="cls-17" d="M266.805,311.592a1.238,1.238,0,0,0,1.108-.722l4.535-9.4a1.38,1.38,0,0,0-.537-1.8,1.207,1.207,0,0,0-1.679.574l-4.534,9.4a1.379,1.379,0,0,0,.535,1.8A1.183,1.183,0,0,0,266.805,311.592Z" transform="translate(-265.559 -299.523)"/>
        </g>
        <g id="Group_11931" data-name="Group 11931" transform="translate(124.747 117.982)">
          <path id="Path_35505" data-name="Path 35505" class="cls-17" d="M292.7,309.257a1.3,1.3,0,0,0,.471.37,1.192,1.192,0,0,0,1.285-.212l5.1-4.581c-.026-1.138-.05-2.274-.081-3.411l-6.625,5.949A1.406,1.406,0,0,0,292.7,309.257Z" transform="translate(-292.405 -301.423)"/>
        </g>
        <g id="Group_11932" data-name="Group 11932" transform="translate(84.456 15.382)">
          <path id="Path_35506" data-name="Path 35506" class="cls-17" d="M266.848,245.24a1.241,1.241,0,0,0,1.109-.722l4.534-9.4a1.378,1.378,0,0,0-.537-1.795,1.209,1.209,0,0,0-1.679.573l-4.534,9.4a1.38,1.38,0,0,0,.537,1.8A1.171,1.171,0,0,0,266.848,245.24Z" transform="translate(-265.603 -233.173)"/>
        </g>
        <g id="Group_11933" data-name="Group 11933" transform="translate(53.514 48.84)">
          <path id="Path_35507" data-name="Path 35507" class="cls-17" d="M248.141,268.482a1.166,1.166,0,0,0,.238-.024,1.332,1.332,0,0,0,.988-1.56L247.49,256.51a1.253,1.253,0,0,0-1.46-1.055,1.33,1.33,0,0,0-.988,1.56l1.876,10.388A1.269,1.269,0,0,0,248.141,268.482Z" transform="translate(-245.02 -255.43)"/>
        </g>
        <g id="Group_11934" data-name="Group 11934" transform="translate(69.697 57.96)">
          <path id="Path_35508" data-name="Path 35508" class="cls-17" d="M258.906,274.549a1.166,1.166,0,0,0,.238-.024,1.333,1.333,0,0,0,.988-1.562l-1.876-10.386a1.256,1.256,0,0,0-1.46-1.057,1.331,1.331,0,0,0-.988,1.562l1.875,10.386A1.271,1.271,0,0,0,258.906,274.549Z" transform="translate(-255.785 -261.496)"/>
        </g>
        <g id="Group_11935" data-name="Group 11935" transform="translate(59.979 25.145)">
          <path id="Path_35509" data-name="Path 35509" class="cls-17" d="M250.566,251.265a1.228,1.228,0,0,0,1.054-.618l5.3-8.931a1.389,1.389,0,0,0-.385-1.84,1.2,1.2,0,0,0-1.72.41l-5.3,8.931a1.387,1.387,0,0,0,.383,1.84A1.179,1.179,0,0,0,250.566,251.265Z" transform="translate(-249.32 -239.668)"/>
        </g>
        <g id="Group_11936" data-name="Group 11936" transform="translate(103.434 117.053)">
          <path id="Path_35510" data-name="Path 35510" class="cls-17" d="M284.643,312.6a1.4,1.4,0,0,0,.215-1.485l-4.259-9.547a1.214,1.214,0,0,0-1.663-.63,1.376,1.376,0,0,0-.588,1.778l4.26,9.547a1.206,1.206,0,0,0,2.034.337Z" transform="translate(-278.227 -300.805)"/>
        </g>
        <g id="Group_11937" data-name="Group 11937" transform="translate(76.537 88.626)">
          <path id="Path_35511" data-name="Path 35511" class="cls-17" d="M261.581,294.414a1.25,1.25,0,0,0,1.161-.849l3.6-9.851a1.362,1.362,0,0,0-.707-1.726,1.22,1.22,0,0,0-1.615.755l-3.6,9.851a1.364,1.364,0,0,0,.707,1.727A1.157,1.157,0,0,0,261.581,294.414Z" transform="translate(-260.335 -281.895)"/>
        </g>
        <g id="Group_11938" data-name="Group 11938" transform="translate(32.464 149.886)">
          <path id="Path_35512" data-name="Path 35512" class="cls-17" d="M236.731,334.752a1.177,1.177,0,0,0,.562-.144,1.379,1.379,0,0,0,.549-1.792l-4.466-9.439a1.207,1.207,0,0,0-1.675-.586,1.375,1.375,0,0,0-.549,1.79l4.466,9.439A1.236,1.236,0,0,0,236.731,334.752Z" transform="translate(-231.017 -322.646)"/>
        </g>
        <g id="Group_11939" data-name="Group 11939" transform="translate(103.819 223.619)">
          <path id="Path_35513" data-name="Path 35513" class="cls-17" d="M278.483,377.906a1.4,1.4,0,0,0,.14.6,1.206,1.206,0,0,0,1.679.57l8.784-4.866a1.378,1.378,0,0,0,.532-1.8,1.206,1.206,0,0,0-1.679-.57l-8.784,4.866A1.348,1.348,0,0,0,278.483,377.906Z" transform="translate(-278.483 -371.693)"/>
        </g>
        <g id="Group_11940" data-name="Group 11940" transform="translate(127.661 231.944)">
          <path id="Path_35514" data-name="Path 35514" class="cls-17" d="M294.343,381.171a1.372,1.372,0,0,0,.137.6,1.209,1.209,0,0,0,1.681.568l3.82-2.115c0-.965,0-1.957-.006-2.995l-4.956,2.744A1.346,1.346,0,0,0,294.343,381.171Z" transform="translate(-294.343 -377.231)"/>
        </g>
        <g id="Group_11941" data-name="Group 11941" transform="translate(90.638 245.75)">
          <path id="Path_35515" data-name="Path 35515" class="cls-17" d="M269.836,388.315l3,6.861c.544-.06,1.088-.126,1.637-.193l.983-.119-3.369-7.68a1.206,1.206,0,0,0-1.655-.642A1.365,1.365,0,0,0,269.836,388.315Z" transform="translate(-269.715 -386.415)"/>
        </g>
        <g id="Group_11942" data-name="Group 11942" transform="translate(20.721 124.816)">
          <path id="Path_35516" data-name="Path 35516" class="cls-17" d="M224.454,319.073a1.273,1.273,0,0,0,1.228-1.115L227.3,307.52a1.327,1.327,0,0,0-1.027-1.533,1.258,1.258,0,0,0-1.433,1.1l-1.613,10.437a1.325,1.325,0,0,0,1.027,1.532A1.176,1.176,0,0,0,224.454,319.073Z" transform="translate(-223.206 -305.969)"/>
        </g>
        <g id="Group_11944" data-name="Group 11944" transform="translate(35.893 89.496)">
          <path id="Path_35518" data-name="Path 35518" class="cls-17" d="M234.546,290.885a1.185,1.185,0,0,0,.677-.213l8.306-5.746a1.391,1.391,0,0,0,.37-1.843,1.2,1.2,0,0,0-1.723-.4l-8.307,5.744a1.393,1.393,0,0,0-.37,1.845A1.228,1.228,0,0,0,234.546,290.885Z" transform="translate(-233.298 -282.474)"/>
        </g>
        <g id="Group_11945" data-name="Group 11945" transform="translate(119.368 147.858)">
          <path id="Path_35519" data-name="Path 35519" class="cls-17" d="M294.54,333.4a1.177,1.177,0,0,0,.562-.144,1.377,1.377,0,0,0,.549-1.79l-4.466-9.439a1.209,1.209,0,0,0-1.675-.588,1.378,1.378,0,0,0-.549,1.792l4.466,9.439A1.235,1.235,0,0,0,294.54,333.4Z" transform="translate(-288.826 -321.296)"/>
        </g>
        <g id="Group_11946" data-name="Group 11946" transform="translate(13.36 103.967)">
          <path id="Path_35520" data-name="Path 35520" class="cls-17" d="M227.939,300.379a1.226,1.226,0,0,0,1.057-.625,1.389,1.389,0,0,0-.394-1.837l-8.385-5.613a1.2,1.2,0,0,0-1.717.422,1.388,1.388,0,0,0,.394,1.837l8.384,5.613A1.193,1.193,0,0,0,227.939,300.379Z" transform="translate(-218.309 -292.1)"/>
        </g>
        <g id="Group_11947" data-name="Group 11947" transform="translate(40.094 113.078)">
          <path id="Path_35521" data-name="Path 35521" class="cls-17" d="M239.088,310.681a1.184,1.184,0,0,0,1.174.308,1.345,1.345,0,0,0,.876-1.636l-2.6-10.209a1.24,1.24,0,0,0-1.53-.936,1.345,1.345,0,0,0-.875,1.636l2.595,10.209A1.363,1.363,0,0,0,239.088,310.681Z" transform="translate(-236.093 -298.161)"/>
        </g>
        <g id="Group_11948" data-name="Group 11948" transform="translate(7.704 15.985)">
          <path id="Path_35522" data-name="Path 35522" class="cls-17" d="M214.547,235.438l2.169,3.516a1.235,1.235,0,0,0,1.045.6,1.145,1.145,0,0,0,.679-.218,1.39,1.39,0,0,0,.358-1.845l-2.41-3.913A23.714,23.714,0,0,0,214.547,235.438Z" transform="translate(-214.547 -233.574)"/>
        </g>
        <g id="Group_11950" data-name="Group 11950" transform="translate(104.785 182.623)">
          <path id="Path_35524" data-name="Path 35524" class="cls-17" d="M280.373,354.721a1.2,1.2,0,0,0,.9-.41l6.852-7.632a1.4,1.4,0,0,0-.036-1.884,1.191,1.191,0,0,0-1.763.038l-6.849,7.632a1.4,1.4,0,0,0,.035,1.884A1.2,1.2,0,0,0,280.373,354.721Z" transform="translate(-279.125 -344.422)"/>
        </g>
        <g id="Group_11951" data-name="Group 11951" transform="translate(59.204 209.303)">
          <path id="Path_35525" data-name="Path 35525" class="cls-17" d="M250.051,372.468a1.2,1.2,0,0,0,.9-.41l6.851-7.631a1.4,1.4,0,0,0-.036-1.885,1.188,1.188,0,0,0-1.762.039l-6.851,7.631a1.4,1.4,0,0,0,.036,1.885A1.2,1.2,0,0,0,250.051,372.468Z" transform="translate(-248.805 -362.17)"/>
        </g>
        <g id="Group_11952" data-name="Group 11952" transform="translate(44.332 196.335)">
          <path id="Path_35526" data-name="Path 35526" class="cls-17" d="M242.362,366.212a1.392,1.392,0,0,0,.268-1.006l-1.234-10.5A1.265,1.265,0,0,0,240,353.555a1.314,1.314,0,0,0-1.081,1.488l1.236,10.5a1.263,1.263,0,0,0,1.391,1.156A1.221,1.221,0,0,0,242.362,366.212Z" transform="translate(-238.912 -353.544)"/>
        </g>
        <g id="Group_11953" data-name="Group 11953" transform="translate(72.498 228.29)">
          <path id="Path_35527" data-name="Path 35527" class="cls-17" d="M258.894,385.1a1.2,1.2,0,0,0,.9-.41l6.851-7.631a1.4,1.4,0,0,0-.036-1.884,1.188,1.188,0,0,0-1.762.038L258,382.841a1.4,1.4,0,0,0,.036,1.885A1.2,1.2,0,0,0,258.894,385.1Z" transform="translate(-257.648 -374.8)"/>
        </g>
        <g id="Group_11954" data-name="Group 11954" transform="translate(0 209.708)">
          <path id="Path_35528" data-name="Path 35528" class="cls-17" d="M209.425,362.439c-.006.9,0,1.8,0,2.676l7.731.695a1.271,1.271,0,0,0,1.348-1.216,1.309,1.309,0,0,0-1.138-1.44Z" transform="translate(-209.422 -362.439)"/>
        </g>
        <g id="Group_11955" data-name="Group 11955" transform="translate(89.311 166.576)">
          <path id="Path_35529" data-name="Path 35529" class="cls-17" d="M270.08,344.046a1.207,1.207,0,0,0,.9-.41L277.829,336a1.4,1.4,0,0,0-.036-1.884,1.189,1.189,0,0,0-1.762.039l-6.851,7.631a1.4,1.4,0,0,0,.036,1.885A1.2,1.2,0,0,0,270.08,344.046Z" transform="translate(-268.832 -333.748)"/>
        </g>
        <g id="Group_11956" data-name="Group 11956" transform="translate(57.597 172.136)">
          <path id="Path_35530" data-name="Path 35530" class="cls-17" d="M247.739,338.868a1.362,1.362,0,0,0,.442.932l7.571,6.808a1.191,1.191,0,0,0,1.756-.162,1.4,1.4,0,0,0-.152-1.878l-7.571-6.808a1.19,1.19,0,0,0-1.756.162A1.381,1.381,0,0,0,247.739,338.868Z" transform="translate(-247.736 -337.447)"/>
        </g>
        <g id="Group_11957" data-name="Group 11957" transform="translate(15.326 199.187)">
          <path id="Path_35531" data-name="Path 35531" class="cls-17" d="M225.82,367.262a1.181,1.181,0,0,0,.624-.179,1.386,1.386,0,0,0,.454-1.822l-4.956-9.155a1.2,1.2,0,0,0-1.7-.486,1.381,1.381,0,0,0-.454,1.82l4.955,9.157A1.23,1.23,0,0,0,225.82,367.262Z" transform="translate(-219.617 -355.441)"/>
        </g>
        <g id="Group_11958" data-name="Group 11958" transform="translate(11.705 171.724)">
          <path id="Path_35532" data-name="Path 35532" class="cls-17" d="M218.454,349.242a1.238,1.238,0,0,0,1.108-.721l4.535-9.4a1.38,1.38,0,0,0-.537-1.8,1.207,1.207,0,0,0-1.679.574l-4.534,9.4a1.378,1.378,0,0,0,.537,1.795A1.172,1.172,0,0,0,218.454,349.242Z" transform="translate(-217.209 -337.172)"/>
        </g>
        <g id="Group_11959" data-name="Group 11959" transform="translate(25.232 64.979)">
          <path id="Path_35533" data-name="Path 35533" class="cls-17" d="M227.452,278.233a1.238,1.238,0,0,0,1.109-.721l4.534-9.4a1.38,1.38,0,0,0-.535-1.8,1.209,1.209,0,0,0-1.679.574l-4.536,9.4a1.378,1.378,0,0,0,.537,1.795A1.172,1.172,0,0,0,227.452,278.233Z" transform="translate(-226.207 -266.165)"/>
        </g>
        <g id="Group_11960" data-name="Group 11960" transform="translate(18.405 24.54)">
          <path id="Path_35534" data-name="Path 35534" class="cls-17" d="M224.786,252.318a1.171,1.171,0,0,0,.238-.024,1.331,1.331,0,0,0,.988-1.562l-1.875-10.386a1.255,1.255,0,0,0-1.461-1.057,1.334,1.334,0,0,0-.988,1.562l1.876,10.386A1.271,1.271,0,0,0,224.786,252.318Z" transform="translate(-221.665 -239.265)"/>
        </g>
        <g id="Group_11962" data-name="Group 11962" transform="translate(34.588 33.661)">
          <path id="Path_35536" data-name="Path 35536" class="cls-17" d="M235.551,258.385a1.162,1.162,0,0,0,.238-.024,1.331,1.331,0,0,0,.988-1.562L234.9,246.413a1.254,1.254,0,0,0-1.46-1.057,1.332,1.332,0,0,0-.988,1.562l1.876,10.386A1.272,1.272,0,0,0,235.551,258.385Z" transform="translate(-232.43 -245.332)"/>
        </g>
        <g id="Group_11963" data-name="Group 11963" transform="translate(29.32)">
          <path id="Path_35537" data-name="Path 35537" class="cls-17" d="M229.888,233.472a1.161,1.161,0,0,0,.691-.039,1.3,1.3,0,0,0,.8-.952l2.1-9.54-2.93,1.679-1.587,7.246A1.335,1.335,0,0,0,229.888,233.472Z" transform="translate(-228.926 -222.941)"/>
        </g>
        <g id="Group_11965" data-name="Group 11965" transform="translate(30.749 173.653)">
          <path id="Path_35539" data-name="Path 35539" class="cls-17" d="M236.293,350.248a1.406,1.406,0,0,0,.213-1.487l-4.259-9.547a1.211,1.211,0,0,0-1.661-.628,1.371,1.371,0,0,0-.588,1.777l4.259,9.548a1.212,1.212,0,0,0,1.663.628A1.266,1.266,0,0,0,236.293,350.248Z" transform="translate(-229.876 -338.455)"/>
        </g>
        <g id="Group_11966" data-name="Group 11966" transform="translate(123.795 200.734)">
          <path id="Path_35540" data-name="Path 35540" class="cls-17" d="M292.814,359.124l8.325,1.44c-.006-.891-.014-1.79-.025-2.7l-7.9-1.376a1.261,1.261,0,0,0-1.428,1.1A1.326,1.326,0,0,0,292.814,359.124Z" transform="translate(-291.771 -356.47)"/>
        </g>
        <g id="Group_11967" data-name="Group 11967" transform="translate(126.329 176.347)">
          <path id="Path_35541" data-name="Path 35541" class="cls-17" d="M294.5,342.9l5.544.959c-.012-.9-.018-1.8-.03-2.7l-5.111-.885a1.258,1.258,0,0,0-1.428,1.1A1.319,1.319,0,0,0,294.5,342.9Z" transform="translate(-293.457 -340.247)"/>
        </g>
        <g id="Group_11968" data-name="Group 11968" transform="translate(3.851 145.226)">
          <path id="Path_35542" data-name="Path 35542" class="cls-17" d="M213.23,332.064a1.251,1.251,0,0,0,1.162-.848l3.6-9.851a1.364,1.364,0,0,0-.705-1.727,1.22,1.22,0,0,0-1.615.756l-3.606,9.851a1.364,1.364,0,0,0,.708,1.726A1.157,1.157,0,0,0,213.23,332.064Z" transform="translate(-211.984 -319.546)"/>
        </g>
      </g>
      <g id="Group_11972" data-name="Group 11972" transform="translate(47.062 201.583)">
        <g id="Group_11971" data-name="Group 11971">
          <g id="Group_11970" data-name="Group 11970">
            <path id="Path_35543" data-name="Path 35543" class="cls-17" d="M209.767,321.161c2.341-9.671,5.283-20.419,8.2-29.68l.02-.054c.9-2.862,1.8-5.579,2.677-8.071a.764.764,0,0,1,.047-.132c.271-.786.549-1.547.819-2.287a1.352,1.352,0,0,0,.066-.383v-.006a1.1,1.1,0,0,0-2.135-.364c-2.989,8.143-6.518,19.871-9.546,31.372Q209.834,316.335,209.767,321.161Z" transform="translate(-209.767 -279.458)"/>
          </g>
        </g>
      </g>
      <g id="Group_11982" data-name="Group 11982" transform="translate(75.231)">
        <path id="Path_35544" data-name="Path 35544" class="cls-12" d="M235.6,201.939s-8.679-9.567-5.4-20.694,12.237-11.006,12.237-11.006,5.229-11.837,14.133-12.226,17.3-16.206,25.4-11.909-.876,13.665-.876,13.665,13.881-14.642,18.459-10.347-6.356,15.815-6.356,15.815,11.666-8.2,15.5-5.077-9.14,16.595-9.14,16.595,8.393,15.131-.054,21.915Z" transform="translate(-228.027 -145.364)"/>
        <g id="Group_11975" data-name="Group 11975" transform="translate(66.078 56.073)">
          <path id="Path_35545" data-name="Path 35545" class="cls-19" d="M274.595,186.368s5.55-7.4,9.677-1.281-1.708,24.193-11.811,19.782Z" transform="translate(-272.46 -182.664)"/>
          <g id="Group_11973" data-name="Group 11973" transform="translate(1.352 6.48)">
            <path id="Path_35546" data-name="Path 35546" class="cls-20" d="M274.214,197.114a.853.853,0,0,0,.821-.624c1.566-5.579,7.348-7.841,7.405-7.864a.854.854,0,0,0-.6-1.6c-.271.1-6.642,2.574-8.444,9a.853.853,0,0,0,.591,1.052A.877.877,0,0,0,274.214,197.114Z" transform="translate(-273.36 -186.974)"/>
          </g>
          <g id="Group_11974" data-name="Group 11974" transform="translate(4.351 9.834)">
            <path id="Path_35547" data-name="Path 35547" class="cls-20" d="M279.044,193.18a.852.852,0,0,0,.717-1.315,7.781,7.781,0,0,0-3.2-2.584.854.854,0,1,0-.7,1.559,6.166,6.166,0,0,1,2.465,1.95A.853.853,0,0,0,279.044,193.18Z" transform="translate(-275.354 -189.205)"/>
          </g>
        </g>
        <g id="Group_11979" data-name="Group 11979" transform="translate(0 56.073)">
          <path id="Path_35548" data-name="Path 35548" class="cls-19" d="M239.52,186.368s-5.549-7.4-9.677-1.281,1.708,24.193,11.811,19.782Z" transform="translate(-228.505 -182.664)"/>
          <g id="Group_11976" data-name="Group 11976" transform="translate(2.167 6.48)">
            <path id="Path_35549" data-name="Path 35549" class="cls-20" d="M238.724,197.114a.856.856,0,0,1-.822-.624c-1.565-5.579-7.347-7.841-7.4-7.864a.854.854,0,1,1,.6-1.6c.271.1,6.64,2.574,8.444,9a.853.853,0,0,1-.591,1.052A.884.884,0,0,1,238.724,197.114Z" transform="translate(-229.947 -186.974)"/>
          </g>
          <g id="Group_11978" data-name="Group 11978" transform="translate(4.256 9.834)">
            <g id="Group_11977" data-name="Group 11977">
              <path id="Path_35550" data-name="Path 35550" class="cls-20" d="M232.188,193.18a.853.853,0,0,1-.717-1.315,7.8,7.8,0,0,1,3.205-2.584.854.854,0,0,1,.7,1.559,6.165,6.165,0,0,0-2.467,1.95A.849.849,0,0,1,232.188,193.18Z" transform="translate(-231.336 -189.205)"/>
            </g>
          </g>
        </g>
        <path id="Path_35551" data-name="Path 35551" class="cls-14" d="M245.768,207.632v17.973s5.361,9.154,12.61,9.776,13.676-7.88,13.676-7.88V208.895Z" transform="translate(-219.817 -114.025)"/>
        <path id="Path_35552" data-name="Path 35552" class="cls-19" d="M245.768,207.632v7.975c4.865,5.4,13.5,6.745,26.285,4.859V208.895Z" transform="translate(-219.817 -114.025)"/>
        <path id="Path_35553" data-name="Path 35553" class="cls-14" d="M233.172,184.486a173.549,173.549,0,0,0,2.329,22.7v.02a.255.255,0,0,0,.014.068l.006.014c.329,1.7.7,3.307,1.1,4.75.242.845.5,1.732.8,2.637,4.262,13.366,14.131,32.71,38.937,23.86,10.448-3.724,15.89-14.513,18.66-26.216.161-.7.316-1.388.449-2.052.093-.443.182-.873.262-1.3l.12-.624c.021-.107.035-.18.041-.229a.157.157,0,0,0,.007-.039,128.27,128.27,0,0,0,1.765-24.6,18.76,18.76,0,0,0-9.522-15.962c-15.627-8.865-32.127-5.556-42.99-1.383A18.686,18.686,0,0,0,233.172,184.486Z" transform="translate(-226.167 -137.036)"/>
        <path id="Path_35554" data-name="Path 35554" class="cls-12" d="M234.709,192.118l.007.02a.256.256,0,0,0,.014.068l.006.014c.161.583,1.034,3.784,1.9,7.387,4.262,13.366,14.131,32.71,38.937,23.86,10.448-3.724,15.89-14.513,18.661-26.216.161-.7.316-1.388.449-2.052.093-.443.182-.873.262-1.3l.12-.624c.021-.107.035-.18.041-.229a.157.157,0,0,0,.007-.039l-3.65-.738a27.87,27.87,0,0,1-4.134,9.6c-3.086-7.395-18.748-2.483-18.748-2.483l-.074.027a9.686,9.686,0,0,1-5.917-.027s-15.473-5.126-18.68,1.926a98.56,98.56,0,0,1-5.382-9.468l-3.811.269Zm30.839,10.621c17.707-2.387,14.923,7.147,14.923,7.147a29.7,29.7,0,0,1-4.973,3.778,20.4,20.4,0,0,1-10.427,2.838c-2.717-.114-3.462.442-10.332-3.274a17.324,17.324,0,0,1-3.644-2.765h-.006v-.008C250.793,208.59,247.794,199.687,265.548,202.739Z" transform="translate(-225.383 -121.968)"/>
        <path id="Path_35555" data-name="Path 35555" class="cls-12" d="M244.55,186.737c0,1.92.988,3.474,2.208,3.474s2.208-1.554,2.208-3.474-.989-3.474-2.208-3.474S244.55,184.819,244.55,186.737Z" transform="translate(-220.43 -126.29)"/>
        <path id="Path_35556" data-name="Path 35556" class="cls-12" d="M262.915,186.737c0,1.92.989,3.474,2.208,3.474s2.21-1.554,2.21-3.474-.989-3.474-2.21-3.474S262.915,184.819,262.915,186.737Z" transform="translate(-211.186 -126.29)"/>
        <path id="Path_35557" data-name="Path 35557" class="cls-12" d="M240.931,178.38s9.127-3.606,16.153-.571l-.7,3.909s-10.314-.872-15.51,1.234A6.776,6.776,0,0,1,240.931,178.38Z" transform="translate(-222.466 -129.646)"/>
        <path id="Path_35558" data-name="Path 35558" class="cls-12" d="M275.1,178.4s-9.194-3.633-16.273-.576l.708,3.937s10.389-.878,15.625,1.243A6.835,6.835,0,0,0,275.1,178.4Z" transform="translate(-213.243 -129.645)"/>
        <g id="Group_11981" data-name="Group 11981" transform="translate(35.696 59.27)">
          <g id="Group_11980" data-name="Group 11980">
            <path id="Path_35559" data-name="Path 35559" class="cls-19" d="M255.871,201.494a9.069,9.069,0,0,1-3.091-.651.854.854,0,0,1,.646-1.58c.771.313,2.622.8,3.424.323a.929.929,0,0,0,.419-.8c.308-2.983-.508-12.976-.516-13.077a.854.854,0,0,1,1.7-.14c.035.418.837,10.254.513,13.393a2.608,2.608,0,0,1-1.242,2.085A3.61,3.61,0,0,1,255.871,201.494Z" transform="translate(-252.25 -184.791)"/>
          </g>
        </g>
        <path id="Path_35560" data-name="Path 35560" class="cls-16" d="M268.622,200.229c-.648,3.261-2.8,9.262-10.062,9.262-7.275,0-9.316-5.484-10.016-9.262Z" transform="translate(-218.419 -117.751)"/>
        <path id="Path_35561" data-name="Path 35561" class="cls-12" d="M233.17,184.483a175.019,175.019,0,0,0,2.332,22.7l3.815-.271s-.925-5.9-1.351-9.74-1.152-11.024,2.127-11.921,1.351-9.08,5.9-12.632,14.731-4.537,21.443-.4,14.274-.313,17.365.4,7.3,4.977,6.165,8.966,2.271,6.4,3.1,10.528-1.819,15.224-1.819,15.224l3.645.735a128.007,128.007,0,0,0,1.768-24.591,18.763,18.763,0,0,0-9.52-15.968c-15.634-8.862-32.13-5.558-42.992-1.383A18.7,18.7,0,0,0,233.17,184.483Z" transform="translate(-226.168 -137.036)"/>
      </g>
    </g>
    <g id="Group_12025" data-name="Group 12025" transform="translate(316.73 272.733)">
      <g id="Group_12023" data-name="Group 12023" transform="translate(78.555)">
        <g id="Group_12022" data-name="Group 12022">
          <g id="Group_11985" data-name="Group 11985" transform="translate(0 127.933)">
            <g id="Group_11984" data-name="Group 11984">
              <path id="Path_35562" data-name="Path 35562" class="cls-21" d="M371.522,306.794c-2.321,21.17-16.144,68.462-25.714,77.727-12.458,12.061-53.462,37.453-74.819,50.472-3.853,2.348,14.245,17.989,14.245,17.989s56.708-24.25,78.364-43.369c6.126-5.409,18.566-22.468,32.61-54.962,4.257-9.853,14.575-29.722,14.039-42.677C409.63,297.063,385.941,299.517,371.522,306.794Z" transform="translate(-270.45 -301.032)"/>
            </g>
          </g>
          <path id="Path_35563" data-name="Path 35563" class="cls-14" d="M318.992,385.756s-15.422,5.857-20.89,12.3S285.413,409.965,287.17,412.5s9.761-4.881,9.761-4.881,2.195,8.157,9.956,9.036,22.452-14.307,22.452-14.307Z" transform="translate(-262.17 -130.457)"/>
          <g id="Group_12020" data-name="Group 12020" transform="translate(79.024)">
            <g id="Group_11992" data-name="Group 11992" transform="translate(0 106.17)">
              <path id="Path_35564" data-name="Path 35564" class="cls-15" d="M453.06,373.187c0,1.339-.008,2.924-.032,4.72s-.062,3.784-.117,5.967c-.042,1.5-.09,3.077-.144,4.735q-.077,2.1-.164,4.351-.1,2.3-.215,4.747c-1.073,22.171-3.67,52.782-9.379,77.324H323.017c4-17.837,10.125-45.969,14.982-82.47q.3-2.3.6-4.65t.591-4.741c.105-.846.206-1.7.308-2.557.081-.707.164-1.41.242-2.1q.334-2.952.6-5.8.23-2.377.427-4.681c2.057-24.54,1.331-42.931,4.286-53.946,3.444-12.823,43.6-27.524,43.6-27.524l25.156,1.317s23.987,7.832,36.81,19.089,2.1,44.86,2.413,63.938C453.053,371.555,453.056,372.32,453.06,373.187Z" transform="translate(-323.017 -286.555)"/>
              <g id="Group_11986" data-name="Group 11986" transform="translate(17.332 81.47)">
                <path id="Path_35565" data-name="Path 35565" class="cls-17" d="M447.226,350.632a280.274,280.274,0,0,1-33.459,1.848c-36.574,0-70.908-5.592-79.221-7.049q.23-2.377.427-4.681c9.659,1.711,65.562,10.956,112.285,5.162C447.261,347.251,447.25,348.835,447.226,350.632Z" transform="translate(-334.546 -340.749)"/>
              </g>
              <g id="Group_11987" data-name="Group 11987" transform="translate(16.177 91.954)">
                <path id="Path_35566" data-name="Path 35566" class="cls-17" d="M447.5,353.088c-.042,1.5-.09,3.077-.144,4.735a281.1,281.1,0,0,1-33.2,1.813c-38.639,0-74.777-6.24-80.375-7.252.105-.846.206-1.7.308-2.557.081-.706.164-1.41.242-2.1C339.889,348.738,398.668,359.109,447.5,353.088Z" transform="translate(-333.778 -347.723)"/>
              </g>
              <g id="Group_11988" data-name="Group 11988" transform="translate(14.982 101.357)">
                <path id="Path_35567" data-name="Path 35567" class="cls-17" d="M447.587,359.026q-.1,2.3-.215,4.747a277.161,277.161,0,0,1-34.638,1.992c-37.41,0-72.47-5.845-79.752-7.138q.3-2.3.6-4.65C342.248,355.52,399.994,365.254,447.587,359.026Z" transform="translate(-332.983 -353.978)"/>
              </g>
              <g id="Group_11989" data-name="Group 11989" transform="translate(70.88 8.799)">
                <path id="Path_35568" data-name="Path 35568" class="cls-23" d="M372.188,307.745c12.509,0,24.05-13.3,24.549-13.88a.882.882,0,0,0-1.339-1.149c-.122.141-12.207,14.065-24.287,13.226a.883.883,0,0,0-.122,1.762C371.388,307.731,371.789,307.745,372.188,307.745Z" transform="translate(-370.167 -292.408)"/>
              </g>
              <g id="Group_11990" data-name="Group 11990" transform="translate(36.274 111.008)">
                <path id="Path_35569" data-name="Path 35569" class="cls-23" d="M394.618,423.054a.882.882,0,0,0,.1-1.759c-32.312-3.719-45.7-59.651-45.828-60.215a.883.883,0,0,0-1.72.4c.549,2.354,13.811,57.709,47.346,61.569C394.551,423.053,394.585,423.054,394.618,423.054Z" transform="translate(-347.147 -360.398)"/>
              </g>
              <g id="Group_11991" data-name="Group 11991" transform="translate(49.823 127.984)">
                <path id="Path_35570" data-name="Path 35570" class="cls-23" d="M377.216,400.446a.883.883,0,0,0,.465-1.634c-17.187-10.6-19.743-26.215-19.765-26.371a.883.883,0,0,0-1.745.263c.1.671,2.668,16.565,20.583,27.611A.883.883,0,0,0,377.216,400.446Z" transform="translate(-356.159 -371.691)"/>
              </g>
            </g>
            <g id="Group_12019" data-name="Group 12019" transform="translate(37.272)">
              <circle id="Ellipse_598" data-name="Ellipse 598" class="cls-12" cx="35.398" cy="35.398" r="35.398" transform="translate(8.244 12.632)"/>
              <path id="Path_35571" data-name="Path 35571" class="cls-12" d="M356.633,257.613s-10.024-2.766-8.7-12.5c1.124-8.282,10.852-2.913,10-9.385s-2.756-12.354,5.616-13.973c7.323-1.415,7.446,3.6,17.063-3.677,11.359-8.6,20.087,11.317,30.225,11.915,14.955.881,16.843,9.34,18.313,16.1s-4.286,11.511-4.286,11.511Z" transform="translate(-347.81 -215.931)"/>
              <g id="Group_11996" data-name="Group 11996" transform="translate(3.063 54.193)">
                <path id="Path_35572" data-name="Path 35572" class="cls-19" d="M360.976,255.722s-5.607-7.476-9.776-1.294,1.724,24.442,11.933,19.985Z" transform="translate(-349.848 -251.98)"/>
                <g id="Group_11993" data-name="Group 11993" transform="translate(2.188 6.545)">
                  <path id="Path_35573" data-name="Path 35573" class="cls-20" d="M360.171,266.578a.861.861,0,0,1-.83-.63c-1.583-5.636-7.423-7.922-7.482-7.945a.863.863,0,0,1,.612-1.613c.272.1,6.709,2.6,8.531,9.092a.865.865,0,0,1-.6,1.064A.9.9,0,0,1,360.171,266.578Z" transform="translate(-351.303 -256.334)"/>
                </g>
                <g id="Group_11995" data-name="Group 11995" transform="translate(4.299 9.935)">
                  <g id="Group_11994" data-name="Group 11994">
                    <path id="Path_35574" data-name="Path 35574" class="cls-20" d="M353.568,262.6a.862.862,0,0,1-.725-1.329,7.877,7.877,0,0,1,3.238-2.61.862.862,0,1,1,.705,1.574,6.25,6.25,0,0,0-2.492,1.969A.861.861,0,0,1,353.568,262.6Z" transform="translate(-352.707 -258.589)"/>
                  </g>
                </g>
              </g>
              <path id="Path_35575" data-name="Path 35575" class="cls-14" d="M393.192,277.2v18.157s-7.465,8-14.788,8.632-11.766-8.052-11.766-8.052V278.48Z" transform="translate(-338.334 -185.092)"/>
              <path id="Path_35576" data-name="Path 35576" class="cls-19" d="M393.192,277.2v8.056c-4.914,5.452-13.641,6.814-26.554,4.908V278.48Z" transform="translate(-338.334 -185.092)"/>
              <path id="Path_35577" data-name="Path 35577" class="cls-14" d="M418.859,253.818a176.809,176.809,0,0,1-2.356,22.937c-.337,1.76-.716,3.415-1.138,4.9-3.821,13.379-13.38,36.326-40.138,26.768-11.817-4.218-17.3-17.383-19.737-30.77a129.458,129.458,0,0,1-1.786-24.844,18.953,18.953,0,0,1,9.618-16.13c15.8-8.955,32.461-5.616,43.433-1.4A18.9,18.9,0,0,1,418.859,253.818Z" transform="translate(-344.857 -208.339)"/>
              <g id="Group_12010" data-name="Group 12010" transform="translate(9.911 53.888)">
                <g id="Group_12009" data-name="Group 12009">
                  <g id="Group_11999" data-name="Group 11999" transform="translate(31.989 0.651)">
                    <g id="Group_11998" data-name="Group 11998">
                      <g id="Group_11997" data-name="Group 11997">
                        <path id="Path_35578" data-name="Path 35578" class="cls-12" d="M375.682,255.976v1.431a10.714,10.714,0,0,0,10.687,10.729h.349a9.661,9.661,0,0,0,6.651-2.943,10.529,10.529,0,0,0,3.088-7.524v-1.693a3.827,3.827,0,0,0-1.1-2.662,3.747,3.747,0,0,0-2.662-1.1H379.448a3.755,3.755,0,0,0-3.4,2.145,3.647,3.647,0,0,0-.364,1.521A.536.536,0,0,0,375.682,255.976Zm1.562,0a2.205,2.205,0,0,1,2.2-2.2H392.69a2.2,2.2,0,0,1,2.2,2.2v1.693a8.948,8.948,0,0,1-2.62,6.406,8.155,8.155,0,0,1-5.588,2.5h-.317a9.149,9.149,0,0,1-9.125-9.166Z" transform="translate(-375.682 -252.21)"/>
                      </g>
                    </g>
                  </g>
                  <g id="Group_12002" data-name="Group 12002" transform="translate(5.47 0.651)">
                    <g id="Group_12001" data-name="Group 12001">
                      <g id="Group_12000" data-name="Group 12000">
                        <path id="Path_35579" data-name="Path 35579" class="cls-12" d="M358.042,255.976v1.431a10.688,10.688,0,0,0,3.172,7.625,10.582,10.582,0,0,0,7.515,3.1h.353a9.648,9.648,0,0,0,6.646-2.943,10.535,10.535,0,0,0,3.094-7.524v-1.693a.3.3,0,0,0-.006-.074,3.625,3.625,0,0,0-.317-1.442,3.757,3.757,0,0,0-3.443-2.25H361.808a3.77,3.77,0,0,0-2.9,1.359,3.683,3.683,0,0,0-.725,1.4A3.42,3.42,0,0,0,358.042,255.976Zm1.563,0a2.2,2.2,0,0,1,2.2-2.2h13.249a2.2,2.2,0,0,1,2.2,2.2v1.693a8.971,8.971,0,0,1-2.619,6.406,8.158,8.158,0,0,1-5.588,2.5h-.323a9.154,9.154,0,0,1-9.124-9.166Z" transform="translate(-358.042 -252.21)"/>
                      </g>
                    </g>
                  </g>
                  <g id="Group_12004" data-name="Group 12004" transform="translate(51.879)">
                    <g id="Group_12003" data-name="Group 12003">
                      <path id="Path_35580" data-name="Path 35580" class="cls-12" d="M399.236,251.8a18.672,18.672,0,0,0-8.981,1.735c-.355.173-1.3.789-1.342.815l.744,1.326c.011-.006,1.046-.625,1.452-.812a16.363,16.363,0,0,1,8.127-1.506Z" transform="translate(-388.913 -251.777)"/>
                    </g>
                  </g>
                  <g id="Group_12006" data-name="Group 12006" transform="translate(24.571 2.213)">
                    <g id="Group_12005" data-name="Group 12005">
                      <path id="Path_35581" data-name="Path 35581" class="cls-12" d="M379.215,255.512l.513-1.476a15.929,15.929,0,0,0-4.693-.786,10.541,10.541,0,0,0-4.286.821l.683,1.406a9.165,9.165,0,0,1,3.6-.664A14.568,14.568,0,0,1,379.215,255.512Z" transform="translate(-370.748 -253.249)"/>
                    </g>
                  </g>
                  <g id="Group_12008" data-name="Group 12008" transform="translate(0 0.396)">
                    <g id="Group_12007" data-name="Group 12007">
                      <path id="Path_35582" data-name="Path 35582" class="cls-12" d="M354.4,252.04v1.566a20.191,20.191,0,0,1,6.267,1.73l.688-1.4A21.169,21.169,0,0,0,354.4,252.04Z" transform="translate(-354.403 -252.04)"/>
                    </g>
                  </g>
                </g>
              </g>
              <path id="Path_35583" data-name="Path 35583" class="cls-12" d="M367.692,257.221c0,1.938-1,3.509-2.232,3.509s-2.231-1.571-2.231-3.509,1-3.51,2.231-3.51S367.692,255.282,367.692,257.221Z" transform="translate(-340.05 -196.916)"/>
              <path id="Path_35584" data-name="Path 35584" class="cls-12" d="M385.072,257.221c0,1.938-1,3.509-2.231,3.509s-2.231-1.571-2.231-3.509,1-3.51,2.231-3.51S385.072,255.282,385.072,257.221Z" transform="translate(-331.302 -196.916)"/>
              <path id="Path_35585" data-name="Path 35585" class="cls-12" d="M359.968,249.485s9.287-3.67,16.439-.58l-.6,3.319a30.162,30.162,0,0,0-15.329,1.1C360.007,251.792,359.364,251.059,359.968,249.485Z" transform="translate(-341.815 -199.958)"/>
              <path id="Path_35586" data-name="Path 35586" class="cls-12" d="M393.662,249.485s-9.287-3.67-16.44-.58l.6,3.319a30.157,30.157,0,0,1,15.328,1.1C393.622,251.792,394.267,251.059,393.662,249.485Z" transform="translate(-333.007 -199.958)"/>
              <g id="Group_12012" data-name="Group 12012" transform="translate(36.637 58.138)">
                <g id="Group_12011" data-name="Group 12011">
                  <path id="Path_35587" data-name="Path 35587" class="cls-19" d="M375.389,271.48a9.184,9.184,0,0,0,3.122-.658.862.862,0,0,0-.652-1.6c-.779.316-2.649.812-3.459.326a.935.935,0,0,1-.425-.8c-.311-3.013.513-13.11.522-13.211a.863.863,0,1,0-1.72-.141c-.035.421-.845,10.359-.517,13.53a2.635,2.635,0,0,0,1.254,2.106A3.644,3.644,0,0,0,375.389,271.48Z" transform="translate(-372.181 -254.604)"/>
                </g>
              </g>
              <path id="Path_35588" data-name="Path 35588" class="cls-16" d="M367.2,268.743c.705,3.546,3.047,10.072,10.943,10.072,7.912,0,10.131-5.964,10.894-10.072Z" transform="translate(-338.05 -189.35)"/>
              <g id="Group_12013" data-name="Group 12013" transform="translate(35.532 91.189)">
                <path id="Path_35589" data-name="Path 35589" class="cls-19" d="M375.9,279.37a9.015,9.015,0,0,0,4.2-1.179.863.863,0,0,0-.894-1.476,7.323,7.323,0,0,1-3.31.931,7,7,0,0,1-3.14-.926.862.862,0,0,0-.907,1.467A8.633,8.633,0,0,0,375.9,279.37Z" transform="translate(-371.446 -276.59)"/>
              </g>
              <path id="Path_35590" data-name="Path 35590" class="cls-12" d="M358.16,272.029c-.651-3.557-1.3-8.148-.827-10.5.839-4.166,4.289-6.614,3.139-10.63-1.15-4.032,3.1-8.346,6.225-9.063s10.425.831,17.616-2.583c6.861-3.262,18.79-.928,20.737,3.476,2.351,5.332-.849,5.837,5.57,11.6,2.556,2.3-.477,8.268-.91,12.15a25.9,25.9,0,0,0-.153,4.577l.026.973h7.685c.846-6.021,1.33-12.659,1.6-18.212a18.9,18.9,0,0,0-12.106-18.536c-10.974-4.218-27.634-7.56-43.436,1.4a18.942,18.942,0,0,0-9.612,16.129,137.459,137.459,0,0,0,.931,19.221Z" transform="translate(-344.856 -208.34)"/>
              <g id="Group_12018" data-name="Group 12018" transform="translate(69.002 54.162)">
                <path id="Path_35591" data-name="Path 35591" class="cls-14" d="M393.713,264.806a32.2,32.2,0,0,1,.469-6c.48-2.706,1.266-5.161,4.035-6.29,2.228-.907,4.608-.924,6.3,1.586,4.17,6.183-.473,25.419-10.681,20.964Z" transform="translate(-393.71 -251.96)"/>
                <g id="Group_12015" data-name="Group 12015" transform="translate(1.066 5.875)">
                  <g id="Group_12014" data-name="Group 12014">
                    <path id="Path_35592" data-name="Path 35592" class="cls-19" d="M395.452,267.5a.866.866,0,0,0,.692-.782c.448-5.837,5.728-9.221,5.78-9.254a.862.862,0,0,0-.914-1.463c-.248.153-6.07,3.864-6.587,10.586a.864.864,0,0,0,.8.926A.935.935,0,0,0,395.452,267.5Z" transform="translate(-394.419 -255.868)"/>
                  </g>
                </g>
                <g id="Group_12017" data-name="Group 12017" transform="translate(3.034 10.173)">
                  <g id="Group_12016" data-name="Group 12016">
                    <path id="Path_35593" data-name="Path 35593" class="cls-19" d="M400.018,262.12a.864.864,0,0,0,.45-1.446,7.845,7.845,0,0,0-3.686-1.926.862.862,0,0,0-.382,1.682,6.227,6.227,0,0,1,2.829,1.443A.864.864,0,0,0,400.018,262.12Z" transform="translate(-395.728 -258.726)"/>
                  </g>
                </g>
              </g>
            </g>
          </g>
          <g id="Group_12021" data-name="Group 12021" transform="translate(52.943 122.637)">
            <path id="Path_35594" data-name="Path 35594" class="cls-21" d="M454.257,297.509c-12.607,19.108-60.857,85.173-71.744,92.847-14.172,9.991-52.8,24.2-74.986,39.008-7.536,5.033,10.269,19.274,10.269,19.274s54.068-15.2,78.418-30.744c6.888-4.4,35.539-33.1,53.8-58.552,6.258-8.721,16.437-20.833,17.91-33.715C469.624,310.8,464.967,302.867,454.257,297.509Z" transform="translate(-305.668 -297.509)"/>
          </g>
        </g>
      </g>
      <g id="Group_12024" data-name="Group 12024" transform="translate(0 171.62)">
        <path id="Rectangle_1559" data-name="Rectangle 1559" class="cls-7" d="M2.313,0H154.948a2.314,2.314,0,0,1,2.314,2.314V16.619a2.313,2.313,0,0,1-2.313,2.313H2.313A2.313,2.313,0,0,1,0,16.619V2.313A2.313,2.313,0,0,1,2.313,0Z" transform="translate(30.674 104.093)"/>
        <path id="Path_35595" data-name="Path 35595" class="cls-24" d="M249.66,453.117l-30.577-110.7a9.869,9.869,0,0,1,9.788-12.32h67.283a10.084,10.084,0,0,1,9.753,7.145l33.67,115.876Z" transform="translate(-218.734 -330.091)"/>
        <path id="Path_35596" data-name="Path 35596" class="cls-7" d="M277.952,337.244l32.279,114.921h7.432L285.384,337.244a9.806,9.806,0,0,0-9.432-7.151H268.52A9.807,9.807,0,0,1,277.952,337.244Z" transform="translate(-192.867 -330.093)"/>
        <path id="Path_35597" data-name="Path 35597" class="cls-7" d="M272.641,378.737c1.69,7.3-2.861,13.222-10.162,13.222s-14.591-5.92-16.281-13.222,2.861-13.221,10.162-13.221S270.951,371.435,272.641,378.737Z" transform="translate(-204.279 -312.265)"/>
      </g>
    </g>
    <g id="Group_12066" data-name="Group 12066" transform="translate(54.263 103.072)">
      <g id="Group_12044" data-name="Group 12044" transform="translate(514.377 36.721)">
        <g id="Group_12043" data-name="Group 12043">
          <g id="Group_12026" data-name="Group 12026" transform="translate(8.082)">
            <path id="Path_35598" data-name="Path 35598" class="cls-25" d="M401.071,147.353A9.927,9.927,0,1,1,411,137.425,9.94,9.94,0,0,1,401.071,147.353Zm0-16.741a6.813,6.813,0,1,0,6.811,6.813A6.821,6.821,0,0,0,401.071,130.612Z" transform="translate(-391.143 -127.499)"/>
          </g>
          <g id="Group_12027" data-name="Group 12027" transform="translate(43.818 34.825)">
            <path id="Path_35599" data-name="Path 35599" class="cls-26" d="M424.841,170.519a9.927,9.927,0,1,1,9.926-9.926A9.937,9.937,0,0,1,424.841,170.519Zm0-16.739a6.812,6.812,0,1,0,6.813,6.813A6.821,6.821,0,0,0,424.841,153.78Z" transform="translate(-414.915 -150.665)"/>
          </g>
          <g id="Group_12034" data-name="Group 12034" transform="translate(54.813 76.956)">
            <g id="Group_12030" data-name="Group 12030" transform="translate(9.639)">
              <g id="Group_12028" data-name="Group 12028">
                <path id="Path_35600" data-name="Path 35600" class="cls-27" d="M430.2,188.672a1.558,1.558,0,0,1-1.557-1.557v-6.867a1.557,1.557,0,1,1,3.113,0v6.867A1.556,1.556,0,0,1,430.2,188.672Z" transform="translate(-428.641 -178.69)"/>
              </g>
              <g id="Group_12029" data-name="Group 12029" transform="translate(0 12.017)">
                <path id="Path_35601" data-name="Path 35601" class="cls-27" d="M430.2,196.664a1.556,1.556,0,0,1-1.557-1.556v-6.867a1.557,1.557,0,1,1,3.113,0v6.867A1.555,1.555,0,0,1,430.2,196.664Z" transform="translate(-428.641 -186.684)"/>
              </g>
            </g>
            <g id="Group_12033" data-name="Group 12033" transform="translate(0 9.442)">
              <g id="Group_12031" data-name="Group 12031" transform="translate(13.109)">
                <path id="Path_35602" data-name="Path 35602" class="cls-27" d="M438.675,188.086h-6.168a1.557,1.557,0,0,1,0-3.115h6.168a1.557,1.557,0,0,1,0,3.115Z" transform="translate(-430.949 -184.971)"/>
              </g>
              <g id="Group_12032" data-name="Group 12032">
                <path id="Path_35603" data-name="Path 35603" class="cls-27" d="M429.955,188.086h-6.168a1.557,1.557,0,1,1,0-3.115h6.168a1.557,1.557,0,0,1,0,3.115Z" transform="translate(-422.229 -184.971)"/>
              </g>
            </g>
          </g>
          <g id="Group_12042" data-name="Group 12042" transform="translate(0 38.477)">
            <g id="Group_12041" data-name="Group 12041">
              <g id="Group_12037" data-name="Group 12037" transform="translate(9.639)">
                <g id="Group_12035" data-name="Group 12035">
                  <path id="Path_35604" data-name="Path 35604" class="cls-28" d="M393.736,163.076a1.558,1.558,0,0,1-1.557-1.557v-6.867a1.557,1.557,0,1,1,3.115,0v6.867A1.558,1.558,0,0,1,393.736,163.076Z" transform="translate(-392.179 -153.094)"/>
                </g>
                <g id="Group_12036" data-name="Group 12036" transform="translate(0 12.017)">
                  <path id="Path_35605" data-name="Path 35605" class="cls-28" d="M393.736,171.07a1.558,1.558,0,0,1-1.557-1.557v-6.867a1.557,1.557,0,0,1,3.115,0v6.867A1.558,1.558,0,0,1,393.736,171.07Z" transform="translate(-392.179 -161.088)"/>
                </g>
              </g>
              <g id="Group_12040" data-name="Group 12040" transform="translate(0 9.442)">
                <g id="Group_12038" data-name="Group 12038" transform="translate(13.109)">
                  <path id="Path_35606" data-name="Path 35606" class="cls-28" d="M402.214,162.49h-6.17a1.557,1.557,0,1,1,0-3.115h6.17a1.557,1.557,0,0,1,0,3.115Z" transform="translate(-394.487 -159.375)"/>
                </g>
                <g id="Group_12039" data-name="Group 12039">
                  <path id="Path_35607" data-name="Path 35607" class="cls-28" d="M393.494,162.49h-6.17a1.557,1.557,0,1,1,0-3.115h6.17a1.557,1.557,0,0,1,0,3.115Z" transform="translate(-385.767 -159.375)"/>
                </g>
              </g>
            </g>
          </g>
        </g>
      </g>
      <g id="Group_12063" data-name="Group 12063">
        <g id="Group_12062" data-name="Group 12062">
          <g id="Group_12045" data-name="Group 12045" transform="translate(71.698 1.072)">
            <path id="Path_35608" data-name="Path 35608" class="cls-29" d="M91.3,113.711a9.927,9.927,0,1,1,9.926,9.928A9.937,9.937,0,0,1,91.3,113.711Zm3.115,0a6.812,6.812,0,1,0,6.811-6.813A6.82,6.82,0,0,0,94.411,113.711Z" transform="translate(-91.296 -103.785)"/>
          </g>
          <g id="Group_12046" data-name="Group 12046" transform="translate(31.834 38.908)">
            <path id="Path_35609" data-name="Path 35609" class="cls-30" d="M64.778,138.882a9.926,9.926,0,1,1,9.926,9.926A9.939,9.939,0,0,1,64.778,138.882Zm3.113,0a6.813,6.813,0,1,0,6.813-6.813A6.82,6.82,0,0,0,67.891,138.882Z" transform="translate(-64.778 -128.954)"/>
          </g>
          <g id="Group_12053" data-name="Group 12053" transform="translate(0 52.785)">
            <g id="Group_12049" data-name="Group 12049" transform="translate(9.638)">
              <g id="Group_12047" data-name="Group 12047">
                <path id="Path_35610" data-name="Path 35610" class="cls-7" d="M51.57,148.165a1.558,1.558,0,0,0,1.557-1.557v-6.867a1.557,1.557,0,0,0-3.115,0v6.867A1.558,1.558,0,0,0,51.57,148.165Z" transform="translate(-50.013 -138.185)"/>
              </g>
              <g id="Group_12048" data-name="Group 12048" transform="translate(0 12.016)">
                <path id="Path_35611" data-name="Path 35611" class="cls-7" d="M51.57,156.16a1.558,1.558,0,0,0,1.557-1.557v-6.867a1.557,1.557,0,1,0-3.115,0V154.6A1.558,1.558,0,0,0,51.57,156.16Z" transform="translate(-50.013 -146.178)"/>
              </g>
            </g>
            <g id="Group_12052" data-name="Group 12052" transform="translate(0 9.441)">
              <g id="Group_12050" data-name="Group 12050">
                <path id="Path_35612" data-name="Path 35612" class="cls-7" d="M45.159,147.58h6.168a1.557,1.557,0,1,0,0-3.115H45.159a1.557,1.557,0,1,0,0,3.115Z" transform="translate(-43.602 -144.465)"/>
              </g>
              <g id="Group_12051" data-name="Group 12051" transform="translate(13.109)">
                <path id="Path_35613" data-name="Path 35613" class="cls-7" d="M53.879,147.58h6.168a1.557,1.557,0,1,0,0-3.115H53.879a1.557,1.557,0,1,0,0,3.115Z" transform="translate(-52.322 -144.465)"/>
              </g>
            </g>
          </g>
          <g id="Group_12061" data-name="Group 12061" transform="translate(35.879)">
            <g id="Group_12060" data-name="Group 12060">
              <g id="Group_12056" data-name="Group 12056" transform="translate(9.639)">
                <g id="Group_12054" data-name="Group 12054">
                  <path id="Path_35614" data-name="Path 35614" class="cls-31" d="M75.437,113.052a1.558,1.558,0,0,0,1.557-1.557v-6.867a1.557,1.557,0,0,0-3.113,0V111.5A1.557,1.557,0,0,0,75.437,113.052Z" transform="translate(-73.881 -103.072)"/>
                </g>
                <g id="Group_12055" data-name="Group 12055" transform="translate(0 12.016)">
                  <path id="Path_35615" data-name="Path 35615" class="cls-31" d="M75.437,121.047a1.558,1.558,0,0,0,1.557-1.557v-6.867a1.557,1.557,0,1,0-3.113,0v6.867A1.557,1.557,0,0,0,75.437,121.047Z" transform="translate(-73.881 -111.065)"/>
                </g>
              </g>
              <g id="Group_12059" data-name="Group 12059" transform="translate(0 9.441)">
                <g id="Group_12057" data-name="Group 12057">
                  <path id="Path_35616" data-name="Path 35616" class="cls-31" d="M69.026,112.467h6.168a1.557,1.557,0,0,0,0-3.115H69.026a1.557,1.557,0,0,0,0,3.115Z" transform="translate(-67.469 -109.352)"/>
                </g>
                <g id="Group_12058" data-name="Group 12058" transform="translate(13.109)">
                  <path id="Path_35617" data-name="Path 35617" class="cls-31" d="M77.746,112.467h6.168a1.557,1.557,0,1,0,0-3.115H77.746a1.557,1.557,0,0,0,0,3.115Z" transform="translate(-76.189 -109.352)"/>
                </g>
              </g>
            </g>
          </g>
        </g>
      </g>
      <g id="Group_12065" data-name="Group 12065" transform="translate(373.124 14.299)">
        <path id="Path_35618" data-name="Path 35618" class="cls-32" d="M373.321,119.822v30.227a7.239,7.239,0,0,1-7.238,7.237H311.2l-16.569,5.946a2.108,2.108,0,0,1-2.679-2.745l6.269-16.186V119.822a7.24,7.24,0,0,1,7.24-7.238h60.622A7.241,7.241,0,0,1,373.321,119.822Z" transform="translate(-291.805 -112.584)"/>
        <g id="Group_12064" data-name="Group 12064" class="cls-33" transform="translate(17.599 11.795)">
          <path id="Path_35619" data-name="Path 35619" class="cls-34" d="M355.859,124.424h-50.35a2,2,0,0,1-2-2h0a2,2,0,0,1,2-2h50.35a2,2,0,0,1,2,2h0A2,2,0,0,1,355.859,124.424Z" transform="translate(-303.512 -120.43)"/>
          <path id="Path_35620" data-name="Path 35620" class="cls-34" d="M355.859,129.776h-50.35a2,2,0,0,1-2-2h0a2,2,0,0,1,2-2h50.35a2,2,0,0,1,2,2h0A2,2,0,0,1,355.859,129.776Z" transform="translate(-303.512 -117.737)"/>
          <path id="Path_35621" data-name="Path 35621" class="cls-34" d="M355.859,135.125h-50.35a2,2,0,0,1-2-2h0a2,2,0,0,1,2-2h50.35a2,2,0,0,1,2,2h0A2,2,0,0,1,355.859,135.125Z" transform="translate(-303.512 -115.044)"/>
        </g>
      </g>
    </g>
    <g id="Group_12067" data-name="Group 12067" transform="translate(62.787 567.312)">
      <path id="Rectangle_1560" data-name="Rectangle 1560" class="cls-7" d="M7.509,0H600.5a7.506,7.506,0,0,1,7.506,7.506v8.636a7.506,7.506,0,0,1-7.506,7.506h-593A7.506,7.506,0,0,1,0,16.143V7.509A7.509,7.509,0,0,1,7.509,0Z" transform="translate(0 0.087)"/>
      <path id="Path_35622" data-name="Path 35622" class="cls-35" d="M657.281,423.207v.54H49.272v-5.9c0-6.231,5.05-5.919,11.284-5.919H645.994C652.228,411.923,658.624,410.087,657.281,423.207Z" transform="translate(-49.272 -411.836)"/>
    </g>
  </g>
</svg>
