<svg width="300" height="80" viewBox="0 0 177 47" fill="none" xmlns="http://www.w3.org/2000/svg">
<path d="M176.6 5.63127C176.6 3.0419 174.501 0.94281 171.912 0.94281L31.0748 0.94281C30.3758 0.94281 29.6856 1.09911 29.0548 1.40028L3.11667 13.7839C1.48629 14.5623 0.448212 16.2083 0.448212 18.0149V41.7994C0.448212 44.3888 2.54731 46.4879 5.13667 46.4879L151.218 46.4879C151.936 46.4879 152.644 46.323 153.288 46.006L173.982 35.8218C175.585 35.0329 176.6 33.4017 176.6 31.6151V5.63127Z" fill="#2CA0E2"/>
<path d="M42.6134 29.3198V18.3086H49.5577V19.8678H44.3977V22.9863H48.5932V24.5295H44.3977V27.7444H49.5577V29.3198H42.6134ZM50.6519 21.2824H52.5166L54.0919 24.0633L55.6833 21.2824H57.5479L55.1528 25.2368L57.5479 29.3198H55.6833L54.0919 26.571L52.5166 29.3198H50.6519L52.9827 25.285L50.6519 21.2824ZM59.014 32.7758V21.2824H60.75V21.7807C61.4895 21.3306 62.1807 21.1056 62.8237 21.1056C63.8846 21.1056 64.6616 21.4324 65.1545 22.0861C65.6475 22.7291 65.8939 23.8168 65.8939 25.3493C65.8939 26.871 65.61 27.9427 65.042 28.5643C64.4847 29.1858 63.5685 29.4966 62.2932 29.4966C61.8538 29.4966 61.3448 29.4484 60.7661 29.3519V32.7758H59.014ZM62.5183 22.6648C62.0146 22.6648 61.5109 22.7773 61.0072 23.0024L60.7661 23.1149V27.857C61.1948 27.9427 61.6663 27.9856 62.1807 27.9856C62.9094 27.9856 63.4131 27.7766 63.6917 27.3586C63.9703 26.9407 64.1097 26.2281 64.1097 25.2207C64.1097 23.5168 63.5792 22.6648 62.5183 22.6648ZM67.8783 29.3198V17.9389H69.6304V29.3198H67.8783ZM72.4156 22.1504C72.9728 21.4539 73.8944 21.1056 75.1804 21.1056C76.4664 21.1056 77.3826 21.4539 77.9292 22.1504C78.4864 22.847 78.7651 23.8919 78.7651 25.285C78.7651 26.6781 78.4972 27.7284 77.9613 28.4357C77.4255 29.1429 76.4985 29.4966 75.1804 29.4966C73.8623 29.4966 72.9353 29.1429 72.3995 28.4357C71.8637 27.7284 71.5957 26.6781 71.5957 25.285C71.5957 23.8919 71.869 22.847 72.4156 22.1504ZM73.7337 27.3747C73.9802 27.8034 74.4624 28.0177 75.1804 28.0177C75.8984 28.0177 76.3807 27.8034 76.6271 27.3747C76.8736 26.9461 76.9969 26.2441 76.9969 25.2689C76.9969 24.2937 76.8629 23.6025 76.595 23.1953C76.3378 22.7881 75.8663 22.5845 75.1804 22.5845C74.4946 22.5845 74.0177 22.7881 73.7498 23.1953C73.4926 23.6025 73.364 24.2937 73.364 25.2689C73.364 26.2441 73.4872 26.9461 73.7337 27.3747ZM80.6395 29.3198V21.2824H82.3756V22.2469C83.2865 21.6575 84.1974 21.277 85.1083 21.1056V22.8577C84.1867 23.0399 83.399 23.2757 82.7453 23.565L82.3916 23.7097V29.3198H80.6395ZM92.2415 27.873L92.6916 27.8248L92.7238 29.1269C91.5021 29.3733 90.4197 29.4966 89.4767 29.4966C88.2871 29.4966 87.4298 29.1697 86.9047 28.516C86.3903 27.8623 86.1331 26.8175 86.1331 25.3815C86.1331 22.5309 87.2959 21.1056 89.6213 21.1056C91.8718 21.1056 92.997 22.3326 92.997 24.7867L92.8845 26.0405H87.9013C87.9121 26.7049 88.0567 27.1925 88.3354 27.5033C88.614 27.8141 89.1337 27.9695 89.8946 27.9695C90.6555 27.9695 91.4378 27.9373 92.2415 27.873ZM91.277 24.6902C91.277 23.8972 91.1484 23.3453 90.8912 23.0345C90.6448 22.7131 90.2215 22.5523 89.6213 22.5523C89.0212 22.5523 88.5818 22.7184 88.3032 23.0506C88.0353 23.3828 87.896 23.9294 87.8853 24.6902H91.277ZM98.6908 29.3198V18.3086H101.809L105.153 27.7444H105.394V18.3086H107.178V29.3198H104.124L100.7 19.8678H100.475V29.3198H98.6908ZM109.845 29.3198V18.3086H116.676V19.8678H111.629V23.5811H115.825V25.1403H111.629V29.3198H109.845ZM117.426 19.9V18.3086H125.463V19.9H122.361V29.3198H120.561V19.9H117.426ZM126.568 21.9736L127.291 18.1961H129.124L127.902 21.9736H126.568ZM136.148 22.9381C134.884 22.7666 133.968 22.6809 133.4 22.6809C132.832 22.6809 132.435 22.7506 132.21 22.8899C131.996 23.0185 131.889 23.2274 131.889 23.5168C131.889 23.8061 132.007 24.0097 132.242 24.1276C132.489 24.2455 133.057 24.3848 133.946 24.5456C134.846 24.6956 135.484 24.9367 135.859 25.2689C136.234 25.6011 136.422 26.1905 136.422 27.0372C136.422 27.8838 136.148 28.5053 135.602 28.9018C135.066 29.2983 134.278 29.4966 133.239 29.4966C132.585 29.4966 131.76 29.4055 130.763 29.2233L130.265 29.1429L130.329 27.6801C131.615 27.8516 132.542 27.9373 133.11 27.9373C133.678 27.9373 134.08 27.8677 134.316 27.7284C134.562 27.5891 134.686 27.3586 134.686 27.0372C134.686 26.7157 134.568 26.496 134.332 26.3781C134.107 26.2495 133.555 26.1155 132.676 25.9762C131.808 25.8262 131.171 25.5958 130.763 25.285C130.356 24.9742 130.153 24.4063 130.153 23.5811C130.153 22.7559 130.431 22.1397 130.989 21.7325C131.556 21.3253 132.28 21.1217 133.159 21.1217C133.844 21.1217 134.686 21.2074 135.682 21.3788L136.181 21.4753L136.148 22.9381Z" fill="white"/>
</svg>
