<svg width="250" height="45" viewBox="0 0 122 31" fill="none" xmlns="http://www.w3.org/2000/svg">
<path d="M121.157 4.80989C121.157 2.22053 119.058 0.121437 116.468 0.121437L21.8813 0.121437C21.1895 0.121437 20.5062 0.27456 19.8805 0.569822L3.28378 8.40166C1.64297 9.17594 0.596176 10.8274 0.596176 12.6417V26.2429C0.596176 28.8322 2.69527 30.9313 5.28464 30.9313L103.452 30.9313C104.162 30.9313 104.863 30.7698 105.502 30.459L118.519 24.1274C120.133 23.3425 121.157 21.7056 121.157 19.9113V4.80989Z" fill="#2CA0E2"/>
<path d="M31.3242 19.5752C30.3196 19.5752 29.6364 19.2972 29.2747 18.7413C28.9197 18.1854 28.7422 17.2711 28.7422 15.9985C28.7422 14.726 28.9231 13.8218 29.2848 13.2859C29.6464 12.7434 30.3263 12.4721 31.3242 12.4721C31.9204 12.4721 32.5767 12.5559 33.2934 12.7233L33.2532 13.6275C32.6504 13.5204 32.0476 13.4668 31.4448 13.4668C30.842 13.4668 30.4334 13.6476 30.2191 14.0093C30.0048 14.3643 29.8976 15.0374 29.8976 16.0287C29.8976 17.0133 30.0014 17.6864 30.2091 18.0481C30.4167 18.4031 30.8219 18.5805 31.4247 18.5805C32.0275 18.5805 32.637 18.5303 33.2532 18.4298L33.2834 19.3541C32.5935 19.5015 31.9404 19.5752 31.3242 19.5752ZM34.6647 14.9838C35.013 14.5485 35.589 14.3308 36.3927 14.3308C37.1964 14.3308 37.7691 14.5485 38.1107 14.9838C38.459 15.4192 38.6331 16.0722 38.6331 16.9429C38.6331 17.8136 38.4657 18.47 38.1308 18.9121C37.7959 19.3541 37.2165 19.5752 36.3927 19.5752C35.5689 19.5752 34.9895 19.3541 34.6546 18.9121C34.3197 18.47 34.1523 17.8136 34.1523 16.9429C34.1523 16.0722 34.3231 15.4192 34.6647 14.9838ZM35.4885 18.249C35.6425 18.5169 35.9439 18.6509 36.3927 18.6509C36.8415 18.6509 37.1429 18.5169 37.2969 18.249C37.451 17.9811 37.528 17.5424 37.528 16.9329C37.528 16.3234 37.4443 15.8914 37.2768 15.6369C37.1161 15.3823 36.8214 15.2551 36.3927 15.2551C35.964 15.2551 35.666 15.3823 35.4985 15.6369C35.3378 15.8914 35.2574 16.3234 35.2574 16.9329C35.2574 17.5424 35.3344 17.9811 35.4885 18.249ZM40.95 19.4647H39.8549V14.4413H40.9399V14.7527C41.4288 14.4714 41.891 14.3308 42.3264 14.3308C42.9961 14.3308 43.4516 14.5217 43.6927 14.9034C43.9405 15.2785 44.0644 15.9014 44.0644 16.7721V19.4647H42.9794V16.8023C42.9794 16.2598 42.9191 15.8746 42.7985 15.6469C42.6847 15.4192 42.4469 15.3053 42.0852 15.3053C41.7436 15.3053 41.4155 15.3723 41.1007 15.5063L40.95 15.5665V19.4647ZM46.5684 19.4647H45.4733V14.4413H46.5583V14.7527C47.0473 14.4714 47.5094 14.3308 47.9448 14.3308C48.6146 14.3308 49.07 14.5217 49.3111 14.9034C49.559 15.2785 49.6829 15.9014 49.6829 16.7721V19.4647H48.5978V16.8023C48.5978 16.2598 48.5375 15.8746 48.417 15.6469C48.3031 15.4192 48.0654 15.3053 47.7037 15.3053C47.3621 15.3053 47.0339 15.3723 46.7191 15.5063L46.5684 15.5665V19.4647ZM54.6684 18.5604L54.9497 18.5303L54.9698 19.3441C54.2062 19.4981 53.5297 19.5752 52.9403 19.5752C52.1969 19.5752 51.661 19.3709 51.3329 18.9623C51.0114 18.5538 50.8506 17.9007 50.8506 17.0032C50.8506 15.2216 51.5773 14.3308 53.0307 14.3308C54.4373 14.3308 55.1406 15.0977 55.1406 16.6315L55.0702 17.4151H51.9558C51.9625 17.8304 52.0529 18.1351 52.227 18.3294C52.4012 18.5236 52.726 18.6207 53.2015 18.6207C53.6771 18.6207 54.166 18.6006 54.6684 18.5604ZM54.0656 16.5712C54.0656 16.0756 53.9852 15.7306 53.8244 15.5364C53.6704 15.3355 53.4058 15.235 53.0307 15.235C52.6557 15.235 52.3811 15.3388 52.2069 15.5464C52.0395 15.7541 51.9524 16.0957 51.9457 16.5712H54.0656ZM58.2063 14.3308C58.5613 14.3308 58.9799 14.3777 59.4621 14.4714L59.7133 14.5217L59.6731 15.3857C59.144 15.3321 58.7521 15.3053 58.4976 15.3053C57.9886 15.3053 57.647 15.4192 57.4729 15.6469C57.2987 15.8746 57.2116 16.3033 57.2116 16.9329C57.2116 17.5625 57.2954 17.9978 57.4628 18.239C57.6303 18.4801 57.9785 18.6006 58.5077 18.6006L59.6831 18.5203L59.7133 19.3943C59.0368 19.5149 58.5278 19.5752 58.1862 19.5752C57.4226 19.5752 56.8835 19.3709 56.5687 18.9623C56.2606 18.5471 56.1065 17.8706 56.1065 16.9329C56.1065 15.9952 56.2706 15.3288 56.5988 14.9336C56.927 14.5317 57.4628 14.3308 58.2063 14.3308ZM63.6085 15.3756H62.2221V17.5859C62.2221 17.9945 62.2522 18.2657 62.3125 18.3997C62.3728 18.5337 62.5268 18.6006 62.7747 18.6006L63.5985 18.5705L63.6487 19.4446C63.2 19.5316 62.8584 19.5752 62.624 19.5752C62.0547 19.5752 61.6628 19.4446 61.4485 19.1833C61.2409 18.9221 61.1371 18.4298 61.1371 17.7065V15.3756H60.4941V14.4413H61.1371V12.9845H62.2221V14.4413H63.6085V15.3756ZM66.5602 12.5827H67.7356L68.7202 18.5002H68.9312L70.2373 12.6028H71.5433L72.8494 18.5002H73.0704L74.055 12.5827H75.2305L73.8742 19.4647H72.0758L70.8903 13.949L69.7148 19.4647H67.9064L66.5602 12.5827ZM79.8401 15.9885V18.2791C79.8468 18.4265 79.8836 18.537 79.9506 18.6107C80.0243 18.6777 80.1348 18.7212 80.2821 18.7413L80.252 19.5752C79.676 19.5752 79.2306 19.4513 78.9158 19.2034C78.38 19.4513 77.8408 19.5752 77.2983 19.5752C76.3003 19.5752 75.8013 19.0427 75.8013 17.9777C75.8013 17.4687 75.9353 17.1003 76.2032 16.8726C76.4778 16.6449 76.8964 16.5076 77.459 16.4607L78.7551 16.3502V15.9885C78.7551 15.7206 78.6948 15.533 78.5742 15.4259C78.4603 15.3187 78.2896 15.2651 78.0618 15.2651C77.6332 15.2651 77.0973 15.2919 76.4544 15.3455L76.1329 15.3656L76.0927 14.592C76.8227 14.4179 77.4925 14.3308 78.102 14.3308C78.7182 14.3308 79.1603 14.4647 79.4282 14.7327C79.7028 14.9939 79.8401 15.4125 79.8401 15.9885ZM77.5896 17.2343C77.1275 17.2745 76.8964 17.5256 76.8964 17.9878C76.8964 18.4499 77.1007 18.681 77.5093 18.681C77.8441 18.681 78.1991 18.6274 78.5742 18.5203L78.7551 18.46V17.1238L77.5896 17.2343ZM81.4091 19.4647V12.3516H82.5042V19.4647H81.4091ZM84.0841 19.4647V12.3516H85.1792V19.4647H84.0841ZM90.2756 18.5604L90.5569 18.5303L90.577 19.3441C89.8134 19.4981 89.1369 19.5752 88.5475 19.5752C87.8041 19.5752 87.2682 19.3709 86.94 18.9623C86.6186 18.5538 86.4578 17.9007 86.4578 17.0032C86.4578 15.2216 87.1845 14.3308 88.6379 14.3308C90.0445 14.3308 90.7477 15.0977 90.7477 16.6315L90.6774 17.4151H87.5629C87.5696 17.8304 87.6601 18.1351 87.8342 18.3294C88.0083 18.5236 88.3332 18.6207 88.8087 18.6207C89.2843 18.6207 89.7732 18.6006 90.2756 18.5604ZM89.6727 16.5712C89.6727 16.0756 89.5924 15.7306 89.4316 15.5364C89.2776 15.3355 89.013 15.235 88.6379 15.235C88.2629 15.235 87.9883 15.3388 87.8141 15.5464C87.6467 15.7541 87.5596 16.0957 87.5529 16.5712H89.6727ZM94.6373 15.3756H93.2508V17.5859C93.2508 17.9945 93.281 18.2657 93.3413 18.3997C93.4015 18.5337 93.5556 18.6006 93.8034 18.6006L94.6272 18.5705L94.6775 19.4446C94.2287 19.5316 93.8871 19.5752 93.6527 19.5752C93.0834 19.5752 92.6916 19.4446 92.4772 19.1833C92.2696 18.9221 92.1658 18.4298 92.1658 17.7065V15.3756H91.5228V14.4413H92.1658V12.9845H93.2508V14.4413H94.6373V15.3756Z" fill="white"/>
</svg>
