<svg width="284" height="108" viewBox="0 0 284 108" fill="none" xmlns="http://www.w3.org/2000/svg">
<g filter="url(#filter0_b_133_12)">
<path d="M0.141663 0.0142517L283.459 0.0142517V75.746C283.459 80.7819 280.728 85.4218 276.326 87.8668L243.485 106.105C241.426 107.249 239.109 107.849 236.754 107.849H0.141663V0.0142517Z" fill="url(#paint0_linear_133_12)" fill-opacity="0.1"/>
<path d="M0.719348 0.591937L282.881 0.591937V75.746C282.881 80.5721 280.264 85.0186 276.045 87.3617L243.205 105.6C241.231 106.696 239.011 107.271 236.754 107.271H0.719348V0.591937Z" stroke="url(#paint1_linear_133_12)" stroke-width="1.15537"/>
</g>
<path d="M35.774 37.0523H32.0232V42.7588H29.0494V24.4068H35.774C39.9355 24.4068 42.0163 26.4608 42.0163 30.5688C42.0163 32.6764 41.4894 34.2838 40.4356 35.3912C39.3997 36.4986 37.8458 37.0523 35.774 37.0523ZM32.0232 34.4803H35.7472C37.8905 34.4803 38.9621 33.1765 38.9621 30.5688C38.9621 29.3185 38.7031 28.4076 38.1852 27.8361C37.6672 27.2645 36.8545 26.9788 35.7472 26.9788H32.0232V34.4803ZM54.7373 40.3476L55.4875 40.2672L55.5411 42.4373C53.5049 42.8481 51.701 43.0535 50.1292 43.0535C48.1467 43.0535 46.7178 42.5087 45.8426 41.4192C44.9853 40.3297 44.5567 38.5883 44.5567 36.1949C44.5567 31.444 46.4946 29.0685 50.3704 29.0685C54.1211 29.0685 55.9965 31.1135 55.9965 35.2037L55.809 37.2934H47.5037C47.5216 38.4008 47.7627 39.2134 48.2271 39.7314C48.6914 40.2493 49.5577 40.5083 50.8258 40.5083C52.0939 40.5083 53.3978 40.4547 54.7373 40.3476ZM53.1298 35.0429C53.1298 33.7212 52.9155 32.8014 52.4869 32.2834C52.0761 31.7476 51.3706 31.4797 50.3704 31.4797C49.3701 31.4797 48.6379 31.7565 48.1735 32.3102C47.727 32.8639 47.4948 33.7748 47.4769 35.0429H53.1298ZM69.3871 33.489V39.5974C69.405 39.9904 69.5032 40.2851 69.6818 40.4815C69.8783 40.6601 70.173 40.7762 70.5659 40.8298L70.4855 43.0535C68.9495 43.0535 67.7618 42.7231 66.9223 42.0622C65.4934 42.7231 64.0556 43.0535 62.6089 43.0535C59.9477 43.0535 58.617 41.6336 58.617 38.7937C58.617 37.4363 58.9742 36.4539 59.6887 35.8467C60.421 35.2394 61.5373 34.8732 63.0376 34.7482L66.4936 34.4535V33.489C66.4936 32.7746 66.3329 32.2745 66.0114 31.9887C65.7078 31.703 65.2523 31.5601 64.645 31.5601C63.502 31.5601 62.0731 31.6315 60.3585 31.7744L59.5011 31.828L59.394 29.7651C61.3408 29.3007 63.1269 29.0685 64.7522 29.0685C66.3954 29.0685 67.5742 29.4257 68.2887 30.1401C69.0209 30.8367 69.3871 31.953 69.3871 33.489ZM63.3859 36.8111C62.1535 36.9183 61.5373 37.5881 61.5373 38.8205C61.5373 40.0529 62.082 40.6691 63.1715 40.6691C64.0646 40.6691 65.0112 40.5262 66.0114 40.2404L66.4936 40.0797V36.5164L63.3859 36.8111ZM76.6431 42.7588H73.7229V23.7906H76.6431V34.7482L78.3042 34.5875L81.4655 29.3632H84.7341L80.8761 35.6323L84.9484 42.7588H81.6531L78.3845 37.1058L76.6431 37.2934V42.7588ZM97.012 40.3476L97.7621 40.2672L97.8157 42.4373C95.7796 42.8481 93.9756 43.0535 92.4039 43.0535C90.4213 43.0535 88.9925 42.5087 88.1173 41.4192C87.26 40.3297 86.8313 38.5883 86.8313 36.1949C86.8313 31.444 88.7692 29.0685 92.645 29.0685C96.3958 29.0685 98.2712 31.1135 98.2712 35.2037L98.0836 37.2934H89.7783C89.7962 38.4008 90.0373 39.2134 90.5017 39.7314C90.9661 40.2493 91.8323 40.5083 93.1004 40.5083C94.3686 40.5083 95.6724 40.4547 97.012 40.3476ZM95.4045 35.0429C95.4045 33.7212 95.1902 32.8014 94.7615 32.2834C94.3507 31.7476 93.6452 31.4797 92.645 31.4797C91.6448 31.4797 90.9125 31.7565 90.4481 32.3102C90.0016 32.8639 89.7694 33.7748 89.7515 35.0429H95.4045ZM101.749 42.7588V29.3632H104.642V30.9707C106.161 29.9883 107.679 29.3543 109.197 29.0685V31.9887C107.661 32.2924 106.348 32.6853 105.259 33.1675L104.669 33.4087V42.7588H101.749ZM129.908 42.7588V34.8286H121.978V42.7588H119.004V24.4068H121.978V32.2298H129.908V24.4068H132.909V42.7588H129.908ZM146.811 40.3476L147.561 40.2672L147.615 42.4373C145.579 42.8481 143.775 43.0535 142.203 43.0535C140.221 43.0535 138.792 42.5087 137.916 41.4192C137.059 40.3297 136.631 38.5883 136.631 36.1949C136.631 31.444 138.568 29.0685 142.444 29.0685C146.195 29.0685 148.07 31.1135 148.07 35.2037L147.883 37.2934H139.578C139.595 38.4008 139.837 39.2134 140.301 39.7314C140.765 40.2493 141.632 40.5083 142.9 40.5083C144.168 40.5083 145.472 40.4547 146.811 40.3476ZM145.204 35.0429C145.204 33.7212 144.989 32.8014 144.561 32.2834C144.15 31.7476 143.444 31.4797 142.444 31.4797C141.444 31.4797 140.712 31.7565 140.247 32.3102C139.801 32.8639 139.569 33.7748 139.551 35.0429H145.204ZM161.461 33.489V39.5974C161.479 39.9904 161.577 40.2851 161.756 40.4815C161.952 40.6601 162.247 40.7762 162.64 40.8298L162.559 43.0535C161.023 43.0535 159.836 42.7231 158.996 42.0622C157.567 42.7231 156.129 43.0535 154.683 43.0535C152.021 43.0535 150.691 41.6336 150.691 38.7937C150.691 37.4363 151.048 36.4539 151.763 35.8467C152.495 35.2394 153.611 34.8732 155.111 34.7482L158.567 34.4535V33.489C158.567 32.7746 158.407 32.2745 158.085 31.9887C157.782 31.703 157.326 31.5601 156.719 31.5601C155.576 31.5601 154.147 31.6315 152.432 31.7744L151.575 31.828L151.468 29.7651C153.415 29.3007 155.201 29.0685 156.826 29.0685C158.469 29.0685 159.648 29.4257 160.362 30.1401C161.095 30.8367 161.461 31.953 161.461 33.489ZM155.46 36.8111C154.227 36.9183 153.611 37.5881 153.611 38.8205C153.611 40.0529 154.156 40.6691 155.245 40.6691C156.138 40.6691 157.085 40.5262 158.085 40.2404L158.567 40.0797V36.5164L155.46 36.8111ZM176.728 23.7906V42.7588H173.834V42.0622C172.53 42.7231 171.334 43.0535 170.244 43.0535C168.494 43.0535 167.208 42.5266 166.386 41.4728C165.582 40.419 165.181 38.6508 165.181 36.1682C165.181 33.6855 165.627 31.8816 166.52 30.7563C167.431 29.6311 168.842 29.0685 170.753 29.0685C171.396 29.0685 172.414 29.1846 173.807 29.4168V23.7906H176.728ZM173.352 39.9725L173.807 39.785V31.8548C172.736 31.6762 171.744 31.5869 170.833 31.5869C169.03 31.5869 168.128 33.0872 168.128 36.0878C168.128 37.731 168.333 38.8741 168.744 39.5171C169.172 40.1422 169.842 40.4547 170.753 40.4547C171.664 40.4547 172.53 40.294 173.352 39.9725Z" fill="white"/>
<path d="M35.6275 70.026C31.4695 70.026 29.3477 73.391 29.3477 77.7847C29.3477 82.1999 31.4695 85.5649 35.6275 85.5649C39.7641 85.5649 41.886 82.1999 41.886 77.7847C41.886 73.391 39.7641 70.026 35.6275 70.026ZM35.6275 71.2263C37.0207 71.2263 38.0923 71.7192 38.8854 72.598L31.5553 81.7927C31.0195 80.6996 30.7623 79.3279 30.7623 77.7847C30.7623 74.034 32.3483 71.2263 35.6275 71.2263ZM35.6275 84.3647C34.2344 84.3647 33.1413 83.8503 32.3483 82.9715L39.6784 73.7768C40.2142 74.8699 40.4714 76.2416 40.4714 77.7847C40.4714 81.557 38.9068 84.3647 35.6275 84.3647ZM46.7898 85.5649C47.6899 85.5649 48.4615 84.8362 48.4615 83.8931C48.4615 82.9715 47.6899 82.2428 46.7898 82.2428C45.8681 82.2428 45.1394 82.9715 45.1394 83.8931C45.1394 84.8362 45.8681 85.5649 46.7898 85.5649ZM53.1955 85.3506H54.6101C54.6101 79.135 56.8606 75.1699 61.3401 72.8123V70.2403H50.4307V71.4406H59.8398L60.9114 71.2263V71.6549C55.596 74.5269 53.1955 78.8135 53.1955 85.3506ZM63.1038 77.5919H64.5183C64.5183 72.7694 66.6831 71.2263 69.4908 71.2263C71.8699 71.2263 73.3059 72.4908 73.3059 75.1056C73.3059 81.0854 64.8613 82.65 63.3181 82.8644V85.3506H74.7204V84.1503H64.8184L63.7468 84.3647V83.936C69.8123 83.0144 74.7204 79.9709 74.7204 75.1056C74.7204 71.8049 72.5986 70.026 69.4479 70.026C65.9115 70.026 63.1038 72.0836 63.1038 77.5919ZM77.7653 85.3506H86.8314V84.1503H79.1798V78.3849H85.7598V77.1846H79.1798V71.4406H86.8314V70.2403H77.7653V85.3506ZM101.035 70.2403H89.0109V71.4406H94.3262V85.3506H95.7408V71.4406H101.035V70.2403ZM113.826 70.2403V77.2704H104.652V70.2403H103.238V85.3506H104.652V78.4706H113.826V85.3506H115.24V70.2403H113.826Z" fill="white"/>
<path opacity="0.7" d="M143.746 82.877C143.746 80.6909 141.656 80.064 139.566 79.4371V75.1451C141.061 75.3541 142.219 76.2864 142.219 78.0546H143.28C143.28 76.415 142.363 74.486 139.566 74.2288V71.9784H138.666V74.1967C136.078 74.261 134.985 75.3059 134.985 76.9615C134.985 78.9066 136.496 79.5174 138.666 80.1604V84.9185C136.737 84.7739 135.532 84.0023 135.532 81.4785H134.471C134.471 83.8898 135.403 85.5937 138.666 85.8187V88.0692H139.566V85.8509C142.83 85.8348 143.746 84.5006 143.746 82.877ZM136.046 76.8972C136.046 75.5791 137.155 75.1451 138.666 75.0969V79.1477C137.027 78.6333 136.046 78.135 136.046 76.8972ZM139.566 84.9507V80.4015C141.158 80.8516 142.685 81.3499 142.685 82.9574C142.685 84.4524 141.495 84.9346 139.566 84.9507ZM146.029 79.8711H147.09C147.09 76.2543 148.713 75.0969 150.819 75.0969C152.603 75.0969 153.68 76.0453 153.68 78.0064C153.68 82.4913 147.347 83.6647 146.19 83.8255V85.6901H154.741V84.7899H147.315L146.511 84.9507V84.6292C151.06 83.938 154.741 81.6554 154.741 78.0064C154.741 75.5309 153.15 74.1967 150.787 74.1967C148.135 74.1967 146.029 75.7399 146.029 79.8711ZM165.532 79.6139C165.532 76.0131 163.748 74.1967 161.112 74.1967C158.379 74.1967 156.707 75.9649 156.707 78.4083C156.707 80.7552 158.186 82.4752 160.678 82.4752C162.671 82.4752 164.278 81.3499 164.632 79.7746H164.954L164.632 80.5784C164.359 82.861 163.539 85.24 160.678 84.9507L157.511 84.6292V85.5294L160.678 85.8509C164.246 86.2206 165.532 83.3111 165.532 79.6139ZM164.471 78.2475C164.471 80.3051 162.8 81.575 160.758 81.575C158.861 81.575 157.768 80.289 157.768 78.4083C157.768 76.3346 159.022 75.0969 161.112 75.0969C163.234 75.0969 164.471 76.7044 164.471 78.2475ZM168.36 83.1342L167.17 87.5709L168.199 87.8441L169.389 83.4075L168.36 83.1342ZM171.664 82.5877C171.664 84.4202 173.255 85.8509 176.132 85.8509C178.994 85.8509 180.585 84.4202 180.585 82.5877C180.585 81.0124 179.733 80.1283 178.013 79.6139V79.2924C179.283 78.8584 179.942 78.2154 179.942 76.8972C179.942 75.0808 178.351 74.1967 176.132 74.1967C173.898 74.1967 172.307 75.0808 172.307 76.8972C172.307 78.2154 172.966 78.8584 174.236 79.2924V79.6139C172.516 80.1283 171.664 81.0124 171.664 82.5877ZM173.368 77.058C173.368 75.5791 174.429 75.0969 176.132 75.0969C177.82 75.0969 178.881 75.5791 178.881 77.058C178.881 78.5529 177.82 79.0191 176.132 79.0191C174.429 79.0191 173.368 78.5529 173.368 77.058ZM172.725 82.427C172.725 80.9481 173.786 79.9193 176.132 79.9193C178.463 79.9193 179.524 80.9481 179.524 82.427C179.524 83.9219 178.463 84.9507 176.132 84.9507C173.786 84.9507 172.725 83.9219 172.725 82.427ZM182.385 82.5877C182.385 84.4202 183.977 85.8509 186.854 85.8509C189.715 85.8509 191.307 84.4202 191.307 82.5877C191.307 81.0124 190.455 80.1283 188.735 79.6139V79.2924C190.005 78.8584 190.664 78.2154 190.664 76.8972C190.664 75.0808 189.073 74.1967 186.854 74.1967C184.62 74.1967 183.028 75.0808 183.028 76.8972C183.028 78.2154 183.687 78.8584 184.957 79.2924V79.6139C183.237 80.1283 182.385 81.0124 182.385 82.5877ZM184.089 77.058C184.089 75.5791 185.15 75.0969 186.854 75.0969C188.542 75.0969 189.603 75.5791 189.603 77.058C189.603 78.5529 188.542 79.0191 186.854 79.0191C185.15 79.0191 184.089 78.5529 184.089 77.058ZM183.446 82.427C183.446 80.9481 184.507 79.9193 186.854 79.9193C189.185 79.9193 190.246 80.9481 190.246 82.427C190.246 83.9219 189.185 84.9507 186.854 84.9507C184.507 84.9507 183.446 83.9219 183.446 82.427ZM201.868 82.1698H200.357V77.7331H199.296V82.1698H194.393L193.589 82.3305V82.009C197.383 80.1283 199.007 77.4116 199.473 74.3574H198.412C198.042 77.5724 195.808 79.9514 193.268 81.1892V83.0699H199.296V85.6901H200.357V83.0699H201.868V82.1698ZM203.519 80.4337C203.519 84.0344 205.303 85.8509 207.939 85.8509C210.672 85.8509 212.344 84.0827 212.344 81.6393C212.344 79.2924 210.865 77.5724 208.373 77.5724C206.38 77.5724 204.772 78.6976 204.419 80.2729H204.097L204.419 79.4692C204.692 77.1866 205.512 74.8075 208.373 75.0969L211.54 75.4184V74.5182L208.373 74.1967C204.805 73.827 203.519 76.7365 203.519 80.4337ZM204.58 81.8C204.58 79.7425 206.251 78.4726 208.293 78.4726C210.19 78.4726 211.283 79.7586 211.283 81.6393C211.283 83.7129 210.029 84.9507 207.939 84.9507C205.817 84.9507 204.58 83.3432 204.58 81.8Z" fill="white"/>
<defs>
<filter id="filter0_b_133_12" x="-69.1806" y="-69.308" width="421.962" height="246.479" filterUnits="userSpaceOnUse" color-interpolation-filters="sRGB">
<feFlood flood-opacity="0" result="BackgroundImageFix"/>
<feGaussianBlur in="BackgroundImage" stdDeviation="34.6611"/>
<feComposite in2="SourceAlpha" operator="in" result="effect1_backgroundBlur_133_12"/>
<feBlend mode="normal" in="SourceGraphic" in2="effect1_backgroundBlur_133_12" result="shape"/>
</filter>
<linearGradient id="paint0_linear_133_12" x1="-4.16968" y1="83.0982" x2="295.777" y2="83.0982" gradientUnits="userSpaceOnUse">
<stop stop-color="white"/>
<stop offset="1" stop-color="white" stop-opacity="0.24"/>
</linearGradient>
<linearGradient id="paint1_linear_133_12" x1="0.141663" y1="0.0142517" x2="46.6563" y2="179.622" gradientUnits="userSpaceOnUse">
<stop stop-color="white" stop-opacity="0.28"/>
<stop offset="1" stop-color="white" stop-opacity="0"/>
</linearGradient>
</defs>
</svg>
