<svg xmlns="http://www.w3.org/2000/svg" width="980" height="980"><path fill-rule="evenodd" fill="#FBFBFD" d="M0 0h980v980H0V0zm398.368 547.905h20.495V430.902h-20.495c-10.049 7.063-20.496 14.426-30.545 21.49v19.102l30.644-21.092c0 32.435-.099 65.168-.099 97.503zm27.857-117.003v17.709h34.823v99.393h20.794v-99.393h34.822v-17.709h-90.439zm96.309 0v117.003h32.435c18.406 0 32.633.398 43.677-6.965 1.791-1.194 4.079-2.985 5.472-4.577 3.084-3.283 4.875-6.566 6.367-11.342 6.268-20.396-6.268-36.812-25.37-38.802v-.796c4.377-.895 5.969-1.592 8.357-2.984 5.373-3.284 9.352-7.86 11.541-14.327 3.781-10.944-.995-22.983-7.163-28.455-3.98-3.582-8.855-5.97-14.825-7.562-6.467-1.591-14.924-1.392-22.982-1.392l-37.509.199zm21.49 16.316c20.297-.298 40.295-3.382 42.185 13.929.498 5.074-.796 7.164-1.592 9.054-5.074 11.74-21.888 9.651-40.593 9.551v-32.534zm0 48.055c22.386-.099 44.672-3.383 46.662 16.416.299 3.383-.497 7.164-1.393 9.353-5.77 13.829-26.067 10.645-45.269 10.546v-36.315z"/></svg>