<svg viewBox="0 0 47 54" xmlns="http://www.w3.org/2000/svg"><g transform="translate(-15 -12)"><path d="m45 18a1.12 1.12 0 0 1 -.56-.15l-6-3.44-6 3.45a1.12 1.12 0 1 1 -1.12-1.95l6.68-3.76a1.12 1.12 0 0 1 1.12 0l6.51 3.77a1.12 1.12 0 0 1 -.63 2.08"/><path d="m38.51 47.65a1.12 1.12 0 0 1 -1.12-1.12v-7.53a1.12 1.12 0 1 1 2.25 0v7.54a1.12 1.12 0 0 1 -1.12 1.12"/><path d="m16.12 34.71a1.12 1.12 0 0 1 -1.12-1.13v-7.58a1.12 1.12 0 1 1 2.24 0v7.54a1.12 1.12 0 0 1 -1.12 1.12"/><path d="m60.88 34.71a1.12 1.12 0 0 1 -1.12-1.12v-7.59a1.12 1.12 0 1 1 2.24 0v7.54a1.12 1.12 0 0 1 -1.12 1.12"/><path d="m60.88 53a1.12 1.12 0 0 1 -1.12-1.12v-7.49a1.12 1.12 0 0 1 1.12-1.12 1.12 1.12 0 0 1 1.12 1.12v7.54a1.12 1.12 0 0 1 -1.12 1.07z"/><path d="m16.12 53a1.12 1.12 0 0 1 -1.12-1.07v-7.54a1.12 1.12 0 1 1 2.24 0v7.54a1.12 1.12 0 0 1 -1.12 1.07"/><path d="m38.51 22.47a1.12 1.12 0 0 1 -1.12-1.12v-8.22a1.12 1.12 0 1 1 2.25 0v8.22a1.12 1.12 0 0 1 -1.12 1.12"/><path d="m38.51 66a1.12 1.12 0 0 1 -1.12-1.12v-7.54a1.12 1.12 0 1 1 2.25 0v7.54a1.12 1.12 0 0 1 -1.13 1.12"/><path d="m38.51 66a1.13 1.13 0 0 1 -.56-.15l-6.56-3.79a1.12 1.12 0 0 1 1.12-1.95l6 3.47 5.91-3.43a1.12 1.12 0 0 1 1.13 1.95l-6.48 3.75a1.11 1.11 0 0 1 -.56.15"/><path d="m38.51 40.11a1.13 1.13 0 0 1 -.51-.11l-6.53-3.77a1.12 1.12 0 0 1 1.12-1.95l6 3.45 6-3.45a1.12 1.12 0 0 1 1.13 1.95l-6.64 3.77a1.11 1.11 0 0 1 -.56.15"/><path d="m54.35 30.94a1.12 1.12 0 0 1 -.56-2.1l6.52-3.77a1.12 1.12 0 0 1 1.13 1.93l-6.52 3.77a1.12 1.12 0 0 1 -.56.15"/><path d="m60.87 27.17a1.12 1.12 0 0 1 -.56-.15l-6.53-3.77a1.12 1.12 0 1 1 1.12-1.95l6.53 3.77a1.12 1.12 0 0 1 -.56 2.1"/><path d="m22.65 30.94a1.12 1.12 0 0 1 -.56-.15l-6.53-3.79a1.12 1.12 0 0 1 1.12-1.95l6.52 3.77a1.12 1.12 0 0 1 -.56 2.1"/><path d="m16.12 27.17a1.12 1.12 0 0 1 -.56-2.1l6.52-3.76a1.12 1.12 0 0 1 1.12 1.95l-6.52 3.74a1.13 1.13 0 0 1 -.56.15"/><path d="m54.34 56.82a1.12 1.12 0 0 1 -.56-2.1l6.54-3.72a1.12 1.12 0 1 1 1.12 1.95l-6.54 3.72a1.13 1.13 0 0 1 -.56.15"/><path d="m60.88 53a1.12 1.12 0 0 1 -.56-.15l-6.53-3.77a1.12 1.12 0 0 1 1.12-1.95l6.53 3.87a1.12 1.12 0 0 1 -.56 2.1"/><path d="m22.65 56.82a1.13 1.13 0 0 1 -.56-.15l-6.53-3.77a1.12 1.12 0 0 1 1.13-1.9l6.52 3.77a1.12 1.12 0 0 1 -.56 2.1"/><path d="m16.12 53a1.12 1.12 0 0 1 -.56-2.1l6.51-3.77a1.12 1.12 0 0 1 1.13 1.95l-6.51 3.82a1.12 1.12 0 0 1 -.56.15"/><path d="m16.12 26.69a.64.64 0 0 1 -.32-1.2l22.39-12.92a.64.64 0 0 1 .64 1.11l-22.39 12.92a.64.64 0 0 1 -.32.09" opacity=".2"/><path d="m16.12 52.57a.64.64 0 0 1 -.32-1.2l44.76-25.88a.64.64 0 0 1 .64 1.11l-44.76 25.88a.64.64 0 0 1 -.32.09" opacity=".2"/><path d="m60.87 26.69a.64.64 0 0 1 -.32-.09l-22.36-12.92a.64.64 0 0 1 .64-1.11l22.36 12.92a.64.64 0 0 1 -.32 1.2" opacity=".2"/><path d="m60.88 52.57a.63.63 0 0 1 -.32-.09l-44.76-25.88a.64.64 0 0 1 .64-1.11l44.76 25.88a.64.64 0 0 1 -.32 1.2" opacity=".2"/><path d="m38.51 65.52a.64.64 0 0 1 -.32-.09l-22.39-13a.64.64 0 0 1 .64-1.11l22.39 13a.64.64 0 0 1 -.32 1.2" opacity=".2"/><path d="m38.51 65.52a.64.64 0 0 1 -.32-1.2l22.36-13a.64.64 0 0 1 .64 1.11l-22.36 13a.64.64 0 0 1 -.32.09" opacity=".2"/><path d="m16.12 52.57a.64.64 0 0 1 -.64-.64v-25.93a.64.64 0 1 1 1.28 0v25.93a.64.64 0 0 1 -.64.64" opacity=".2"/><path d="m60.88 52.57a.64.64 0 0 1 -.64-.64v-25.93a.64.64 0 1 1 1.28 0v25.93a.64.64 0 0 1 -.64.64" opacity=".2"/><path d="m38.51 65.45a.64.64 0 0 1 -.64-.64v-51.68a.64.64 0 0 1 1.28 0v51.68a.64.64 0 0 1 -.64.64" opacity=".2"/></g></svg>